{"glyphs":{"0":{"ha":663,"x_min":49,"x_max":614,"o":"m 333 -18 q 187 19 251 -18 q 85 123 122 57 q 49 272 49 189 q 85 418 49 354 q 188 518 122 482 q 335 554 253 554 q 479 517 415 554 q 578 415 543 481 q 614 268 614 350 q 578 121 614 186 q 478 19 542 56 q 333 -18 414 -18 m 349 1 q 474 69 432 1 q 517 251 517 136 q 460 463 517 390 q 319 535 404 535 q 191 465 238 535 q 144 283 144 396 q 200 81 144 160 q 349 1 256 1 z "},"1":{"ha":461,"x_min":63,"x_max":431,"o":"m 76 0 q 72 8 72 0 q 76 17 72 17 q 164 24 136 17 q 202 51 192 31 q 213 113 213 71 l 213 371 q 206 445 213 424 q 176 467 199 467 q 75 432 151 467 l 74 432 q 65 439 68 432 q 68 447 63 446 l 278 549 q 282 550 279 550 q 289 547 286 550 q 292 539 292 543 l 292 113 q 301 50 292 69 q 338 24 310 31 q 426 17 365 17 q 431 8 431 17 q 426 0 431 0 q 354 1 381 0 l 251 3 l 150 1 q 76 0 124 0 z "},"2":{"ha":558,"x_min":46,"x_max":518,"o":"m 51 21 q 240 184 174 121 q 336 297 307 247 q 365 397 365 347 q 331 488 365 453 q 243 524 297 524 q 85 351 133 524 q 79 350 85 350 q 68 356 67 350 l 122 567 q 128 569 122 569 q 135 567 132 569 q 138 564 139 565 q 136 549 136 558 q 157 526 136 526 q 199 536 169 526 q 300 554 256 554 q 412 516 371 554 q 453 417 453 478 q 422 319 453 368 q 330 216 390 271 q 161 78 269 161 q 158 71 156 74 q 167 68 160 68 q 379 72 319 68 q 465 94 439 76 q 501 158 492 113 q 510 160 503 161 q 518 157 518 160 l 497 15 q 494 5 497 10 q 485 0 490 0 l 61 0 q 50 8 54 0 q 51 21 46 15 z "},"3":{"ha":540,"x_min":44,"x_max":485,"o":"m 297 182 q 437 117 389 172 q 485 -12 485 61 q 440 -152 485 -81 q 305 -285 396 -224 q 82 -382 214 -346 q 73 -376 76 -383 q 75 -367 69 -368 q 313 -221 242 -315 q 385 -28 385 -126 q 346 99 385 47 q 228 150 307 150 q 161 142 192 150 q 154 149 157 140 q 156 158 151 157 q 309 236 264 186 q 354 372 354 286 q 324 483 354 443 q 233 524 294 524 q 63 358 110 524 q 57 357 61 357 q 46 363 44 357 l 97 565 q 103 568 100 568 q 111 566 107 568 q 114 563 115 564 q 111 547 111 551 q 135 524 111 524 q 176 533 147 524 q 279 554 233 554 q 400 508 357 554 q 443 396 443 461 q 404 269 443 328 q 297 182 365 210 z "},"4":{"ha":626,"x_min":25,"x_max":581,"o":"m 575 61 q 581 35 581 61 q 578 13 581 24 q 574 1 576 1 q 457 7 532 4 l 457 -212 q 446 -232 457 -228 l 388 -261 q 379 -264 379 -264 q 375 -253 375 -264 l 375 8 q 40 11 288 11 q 29 17 33 11 q 31 28 25 22 l 436 550 q 444 553 439 553 q 453 551 449 553 q 457 544 457 549 l 457 58 q 575 61 489 58 m 108 53 q 375 56 228 53 l 375 413 l 101 63 q 99 56 97 58 q 108 53 101 53 z "},"5":{"ha":568,"x_min":79,"x_max":496,"o":"m 165 451 q 144 432 147 451 l 115 272 q 397 202 307 271 q 488 13 488 133 q 447 -131 488 -67 q 322 -256 407 -196 q 94 -382 236 -317 l 93 -382 q 84 -376 88 -382 q 86 -367 81 -369 q 326 -195 257 -282 q 396 -11 396 -108 q 318 168 396 104 q 94 232 240 232 q 83 237 88 232 q 81 249 79 242 l 125 496 q 129 508 126 506 q 143 511 132 510 q 378 540 318 532 q 455 558 438 549 q 479 588 472 567 q 488 591 481 592 q 494 585 496 590 l 467 482 q 453 462 461 467 q 428 457 446 457 l 165 451 z "},"6":{"ha":646,"x_min":65,"x_max":597,"o":"m 415 393 q 553 343 508 393 q 597 221 597 293 q 560 101 597 156 q 458 14 522 46 q 319 -18 394 -18 q 133 63 201 -18 q 65 289 65 143 q 124 543 65 418 q 294 767 183 668 q 556 918 406 865 q 564 913 561 919 q 563 903 567 906 q 340 747 432 843 q 201 537 247 650 q 154 313 154 424 q 209 95 154 182 q 358 8 264 8 q 467 56 426 8 q 508 183 508 103 q 473 307 508 260 q 368 354 438 354 q 300 339 332 354 q 229 289 268 324 q 225 288 228 288 q 217 292 221 288 q 215 299 214 296 q 415 393 290 393 z "},"7":{"ha":596,"x_min":31,"x_max":546,"o":"m 226 -303 q 215 -322 222 -315 q 197 -336 208 -328 l 128 -382 l 126 -382 q 120 -378 124 -382 q 118 -372 117 -375 l 488 456 q 481 465 492 465 q 195 460 275 465 q 89 436 115 454 q 49 371 63 418 q 42 368 46 368 q 34 370 38 368 q 32 375 31 372 l 81 574 q 90 576 82 576 q 97 572 99 575 q 96 558 96 567 q 109 540 96 544 q 163 536 122 536 l 531 536 q 541 530 536 536 q 543 518 546 524 l 226 -303 z "},"8":{"ha":679,"x_min":65,"x_max":629,"o":"m 414 478 q 526 408 483 439 q 599 332 569 378 q 629 225 629 286 q 590 101 629 157 q 483 14 550 46 q 336 -18 415 -18 q 194 13 256 -18 q 99 97 133 44 q 65 208 65 149 q 120 363 65 290 q 256 476 175 435 q 172 546 201 510 q 143 631 143 582 q 176 722 143 685 q 260 778 210 760 q 360 797 310 797 q 458 776 415 797 q 523 721 500 754 q 546 651 546 688 q 512 562 546 607 q 414 478 478 517 m 331 775 q 251 747 282 775 q 219 672 219 719 q 264 574 219 614 q 399 486 308 535 q 450 555 433 521 q 467 629 467 589 q 428 735 467 694 q 331 775 390 775 m 375 7 q 501 54 451 7 q 550 181 550 101 q 519 290 550 244 q 445 366 489 336 q 328 435 401 396 l 275 464 q 187 371 218 428 q 156 244 156 314 q 183 128 156 182 q 261 40 211 74 q 375 7 311 7 z "},"9":{"ha":646,"x_min":49,"x_max":581,"o":"m 246 151 q 97 208 146 151 q 49 339 49 265 q 82 450 49 401 q 173 526 115 499 q 301 554 231 554 q 505 465 429 554 q 581 231 581 376 q 522 -19 581 104 q 353 -240 464 -143 q 90 -382 242 -336 q 83 -376 86 -383 q 85 -367 79 -369 q 307 -219 215 -314 q 445 -14 399 -125 q 492 203 492 97 q 470 351 492 276 q 401 477 449 426 q 279 528 353 528 q 175 485 213 528 q 138 365 138 442 q 177 240 138 289 q 290 190 217 190 q 354 201 326 190 q 417 242 382 213 q 421 243 418 243 q 429 239 425 243 q 432 232 433 235 q 246 151 364 151 z "}," ":{"ha":325,"x_min":0,"x_max":0,"o":""},"A":{"ha":975,"x_min":-6,"x_max":976,"o":"m 971 17 q 976 8 976 17 q 971 0 976 0 q 889 3 944 0 q 808 6 833 6 q 731 3 778 6 q 663 0 686 0 q 657 8 657 0 q 663 17 657 17 q 738 26 714 17 q 761 60 761 36 q 743 119 761 79 l 583 460 l 321 460 l 201 176 q 182 99 182 129 q 318 17 182 17 q 325 8 325 17 q 318 0 325 0 q 246 3 293 0 q 154 6 193 6 q 71 3 118 6 q 1 0 29 0 q -6 8 -6 0 q 1 17 -6 17 q 67 31 40 17 q 119 83 94 46 q 172 189 143 119 l 465 881 q 475 885 468 885 q 483 881 482 885 l 811 190 q 892 52 858 88 q 971 17 925 17 m 333 489 l 569 489 l 444 753 l 333 489 z "},"Á":{"ha":975,"x_min":-6,"x_max":976,"o":"m 971 17 q 976 8 976 17 q 971 0 976 0 q 889 3 944 0 q 808 6 833 6 q 731 3 778 6 q 663 0 686 0 q 657 8 657 0 q 663 17 657 17 q 738 26 714 17 q 761 60 761 36 q 743 119 761 79 l 583 460 l 321 460 l 201 176 q 182 99 182 129 q 318 17 182 17 q 325 8 325 17 q 318 0 325 0 q 246 3 293 0 q 154 6 193 6 q 71 3 118 6 q 1 0 29 0 q -6 8 -6 0 q 1 17 -6 17 q 67 31 40 17 q 119 83 94 46 q 172 189 143 119 l 465 881 q 475 885 468 885 q 483 881 482 885 l 811 190 q 892 52 858 88 q 971 17 925 17 m 333 489 l 569 489 l 444 753 l 333 489 m 336 942 q 329 948 331 942 q 332 957 328 954 q 483 1043 378 982 q 527 1071 508 1060 q 558 1089 546 1082 q 591 1083 564 1092 q 638 1063 618 1074 q 647 1050 657 1051 q 490 1003 561 1029 q 339 943 418 978 l 336 942 z "},"Ă":{"ha":975,"x_min":-6,"x_max":976,"o":"m 971 17 q 976 8 976 17 q 971 0 976 0 q 889 3 944 0 q 808 6 833 6 q 731 3 778 6 q 663 0 686 0 q 657 8 657 0 q 663 17 657 17 q 738 26 714 17 q 761 60 761 36 q 743 119 761 79 l 583 460 l 321 460 l 201 176 q 182 99 182 129 q 318 17 182 17 q 325 8 325 17 q 318 0 325 0 q 246 3 293 0 q 154 6 193 6 q 71 3 118 6 q 1 0 29 0 q -6 8 -6 0 q 1 17 -6 17 q 67 31 40 17 q 119 83 94 46 q 172 189 143 119 l 465 881 q 475 885 468 885 q 483 881 482 885 l 811 190 q 892 52 858 88 q 971 17 925 17 m 333 489 l 569 489 l 444 753 l 333 489 m 474 958 q 378 997 415 958 q 331 1107 342 1036 q 336 1113 329 1113 q 346 1111 343 1114 q 392 1046 356 1074 q 474 1018 429 1018 q 553 1046 517 1018 q 600 1111 590 1074 q 606 1114 600 1114 q 613 1112 610 1114 q 615 1107 617 1110 q 568 997 604 1035 q 474 958 532 958 z "},"Ắ":{"ha":975,"x_min":-6,"x_max":976,"o":"m 971 17 q 976 8 976 17 q 971 0 976 0 q 889 3 944 0 q 808 6 833 6 q 731 3 778 6 q 663 0 686 0 q 657 8 657 0 q 663 17 657 17 q 738 26 714 17 q 761 60 761 36 q 743 119 761 79 l 583 460 l 321 460 l 201 176 q 182 99 182 129 q 318 17 182 17 q 325 8 325 17 q 318 0 325 0 q 246 3 293 0 q 154 6 193 6 q 71 3 118 6 q 1 0 29 0 q -6 8 -6 0 q 1 17 -6 17 q 67 31 40 17 q 119 83 94 46 q 172 189 143 119 l 465 881 q 475 885 468 885 q 483 881 482 885 l 811 190 q 892 52 858 88 q 971 17 925 17 m 333 489 l 569 489 l 444 753 l 333 489 m 474 913 q 378 951 414 913 q 331 1061 342 989 q 336 1067 329 1067 q 346 1064 343 1068 q 392 999 356 1026 q 474 972 429 972 q 553 999 517 972 q 600 1064 590 1026 q 609 1067 601 1068 q 615 1061 617 1067 q 569 951 604 989 q 474 913 533 913 m 397 1043 q 393 1042 396 1042 q 387 1047 389 1042 q 388 1054 385 1051 q 493 1189 442 1114 q 524 1185 497 1194 q 573 1165 551 1176 q 583 1150 594 1153 q 397 1043 493 1114 z "},"Ặ":{"ha":975,"x_min":-6,"x_max":976,"o":"m 971 17 q 976 8 976 17 q 971 0 976 0 q 889 3 944 0 q 808 6 833 6 q 731 3 778 6 q 663 0 686 0 q 657 8 657 0 q 663 17 657 17 q 738 26 714 17 q 761 60 761 36 q 743 119 761 79 l 583 460 l 321 460 l 201 176 q 182 99 182 129 q 318 17 182 17 q 325 8 325 17 q 318 0 325 0 q 246 3 293 0 q 154 6 193 6 q 71 3 118 6 q 1 0 29 0 q -6 8 -6 0 q 1 17 -6 17 q 67 31 40 17 q 119 83 94 46 q 172 189 143 119 l 465 881 q 475 885 468 885 q 483 881 482 885 l 811 190 q 892 52 858 88 q 971 17 925 17 m 333 489 l 569 489 l 444 753 l 333 489 m 490 -264 q 445 -249 461 -264 q 429 -206 429 -233 q 445 -162 429 -178 q 490 -147 461 -147 q 533 -162 518 -147 q 549 -206 549 -178 q 533 -249 549 -233 q 490 -264 518 -264 m 474 958 q 378 997 415 958 q 331 1107 342 1036 q 336 1113 329 1113 q 346 1111 343 1114 q 392 1046 356 1074 q 474 1018 429 1018 q 553 1046 517 1018 q 600 1111 590 1074 q 606 1114 600 1114 q 613 1112 610 1114 q 615 1107 617 1110 q 568 997 604 1035 q 474 958 532 958 z "},"Ằ":{"ha":975,"x_min":-6,"x_max":976,"o":"m 971 17 q 976 8 976 17 q 971 0 976 0 q 889 3 944 0 q 808 6 833 6 q 731 3 778 6 q 663 0 686 0 q 657 8 657 0 q 663 17 657 17 q 738 26 714 17 q 761 60 761 36 q 743 119 761 79 l 583 460 l 321 460 l 201 176 q 182 99 182 129 q 318 17 182 17 q 325 8 325 17 q 318 0 325 0 q 246 3 293 0 q 154 6 193 6 q 71 3 118 6 q 1 0 29 0 q -6 8 -6 0 q 1 17 -6 17 q 67 31 40 17 q 119 83 94 46 q 172 189 143 119 l 465 881 q 475 885 468 885 q 483 881 482 885 l 811 190 q 892 52 858 88 q 971 17 925 17 m 333 489 l 569 489 l 444 753 l 333 489 m 474 913 q 378 951 414 913 q 331 1061 342 989 q 336 1067 329 1067 q 346 1064 343 1068 q 392 999 356 1026 q 474 972 429 972 q 553 999 517 972 q 600 1064 590 1026 q 609 1067 601 1068 q 615 1061 617 1067 q 569 951 604 989 q 474 913 533 913 m 543 1043 q 452 1104 494 1079 q 358 1150 410 1129 q 369 1165 349 1153 q 418 1185 390 1176 q 449 1189 446 1194 q 553 1056 494 1122 l 556 1050 q 551 1044 556 1046 q 543 1043 547 1042 z "},"Ẳ":{"ha":975,"x_min":-6,"x_max":976,"o":"m 971 17 q 976 8 976 17 q 971 0 976 0 q 889 3 944 0 q 808 6 833 6 q 731 3 778 6 q 663 0 686 0 q 657 8 657 0 q 663 17 657 17 q 738 26 714 17 q 761 60 761 36 q 743 119 761 79 l 583 460 l 321 460 l 201 176 q 182 99 182 129 q 318 17 182 17 q 325 8 325 17 q 318 0 325 0 q 246 3 293 0 q 154 6 193 6 q 71 3 118 6 q 1 0 29 0 q -6 8 -6 0 q 1 17 -6 17 q 67 31 40 17 q 119 83 94 46 q 172 189 143 119 l 465 881 q 475 885 468 885 q 483 881 482 885 l 811 190 q 892 52 858 88 q 971 17 925 17 m 333 489 l 569 489 l 444 753 l 333 489 m 474 913 q 378 951 414 913 q 331 1061 342 989 q 336 1067 329 1067 q 346 1064 343 1068 q 392 999 356 1026 q 474 972 429 972 q 553 999 517 972 q 600 1064 590 1026 q 609 1067 601 1068 q 615 1061 617 1067 q 569 951 604 989 q 474 913 533 913 m 456 1019 q 453 1038 453 1026 q 472 1089 453 1056 q 493 1142 493 1121 q 478 1174 493 1163 q 446 1185 464 1185 q 413 1178 429 1185 l 411 1178 q 403 1183 407 1178 q 403 1189 399 1188 q 447 1208 424 1201 q 486 1215 469 1215 q 535 1197 517 1215 q 553 1156 553 1179 q 541 1120 553 1136 q 508 1085 529 1104 q 476 1050 486 1064 q 471 1019 467 1036 q 465 1016 474 1017 q 456 1019 457 1015 z "},"Ẵ":{"ha":975,"x_min":-6,"x_max":976,"o":"m 971 17 q 976 8 976 17 q 971 0 976 0 q 889 3 944 0 q 808 6 833 6 q 731 3 778 6 q 663 0 686 0 q 657 8 657 0 q 663 17 657 17 q 738 26 714 17 q 761 60 761 36 q 743 119 761 79 l 583 460 l 321 460 l 201 176 q 182 99 182 129 q 318 17 182 17 q 325 8 325 17 q 318 0 325 0 q 246 3 293 0 q 154 6 193 6 q 71 3 118 6 q 1 0 29 0 q -6 8 -6 0 q 1 17 -6 17 q 67 31 40 17 q 119 83 94 46 q 172 189 143 119 l 465 881 q 475 885 468 885 q 483 881 482 885 l 811 190 q 892 52 858 88 q 971 17 925 17 m 333 489 l 569 489 l 444 753 l 333 489 m 476 931 q 381 969 418 931 q 333 1079 344 1008 q 339 1085 332 1085 q 349 1083 346 1086 q 395 1018 358 1046 q 476 990 432 990 q 556 1018 519 990 q 603 1083 593 1046 q 608 1086 603 1086 q 616 1084 613 1086 q 618 1079 619 1082 q 571 969 607 1007 q 476 931 535 931 m 581 1160 q 618 1169 604 1160 q 649 1197 632 1179 l 650 1197 q 658 1194 654 1197 q 658 1188 661 1190 q 599 1119 622 1138 q 549 1101 575 1101 q 464 1118 519 1101 q 428 1128 458 1119 q 367 1136 399 1136 q 334 1129 346 1136 q 313 1113 322 1122 q 299 1099 304 1103 l 296 1099 q 289 1102 292 1099 q 289 1108 286 1106 q 344 1167 313 1140 q 407 1193 375 1193 q 476 1179 426 1193 q 581 1160 540 1160 z "},"Ǎ":{"ha":975,"x_min":-6,"x_max":976,"o":"m 971 17 q 976 8 976 17 q 971 0 976 0 q 889 3 944 0 q 808 6 833 6 q 731 3 778 6 q 663 0 686 0 q 657 8 657 0 q 663 17 657 17 q 738 26 714 17 q 761 60 761 36 q 743 119 761 79 l 583 460 l 321 460 l 201 176 q 182 99 182 129 q 318 17 182 17 q 325 8 325 17 q 318 0 325 0 q 246 3 293 0 q 154 6 193 6 q 71 3 118 6 q 1 0 29 0 q -6 8 -6 0 q 1 17 -6 17 q 67 31 40 17 q 119 83 94 46 q 172 189 143 119 l 465 881 q 475 885 468 885 q 483 881 482 885 l 811 190 q 892 52 858 88 q 971 17 925 17 m 333 489 l 569 489 l 444 753 l 333 489 m 314 1089 q 313 1090 313 1089 q 313 1090 313 1090 q 316 1097 313 1093 q 322 1099 319 1100 l 474 1019 l 624 1099 l 625 1099 q 632 1094 629 1099 q 631 1089 635 1090 l 489 954 q 474 949 483 949 q 457 954 463 949 l 314 1089 z "},"Â":{"ha":975,"x_min":-6,"x_max":976,"o":"m 971 17 q 976 8 976 17 q 971 0 976 0 q 889 3 944 0 q 808 6 833 6 q 731 3 778 6 q 663 0 686 0 q 657 8 657 0 q 663 17 657 17 q 738 26 714 17 q 761 60 761 36 q 743 119 761 79 l 583 460 l 321 460 l 201 176 q 182 99 182 129 q 318 17 182 17 q 325 8 325 17 q 318 0 325 0 q 246 3 293 0 q 154 6 193 6 q 71 3 118 6 q 1 0 29 0 q -6 8 -6 0 q 1 17 -6 17 q 67 31 40 17 q 119 83 94 46 q 172 189 143 119 l 465 881 q 475 885 468 885 q 483 881 482 885 l 811 190 q 892 52 858 88 q 971 17 925 17 m 333 489 l 569 489 l 444 753 l 333 489 m 457 1044 q 472 1051 464 1051 q 489 1044 482 1051 l 631 910 q 632 907 632 910 q 628 901 632 904 q 624 900 625 899 l 474 979 l 322 900 q 315 903 319 899 q 314 910 311 908 l 457 1044 z "},"Ấ":{"ha":975,"x_min":-6,"x_max":976,"o":"m 971 17 q 976 8 976 17 q 971 0 976 0 q 889 3 944 0 q 808 6 833 6 q 731 3 778 6 q 663 0 686 0 q 657 8 657 0 q 663 17 657 17 q 738 26 714 17 q 761 60 761 36 q 743 119 761 79 l 583 460 l 321 460 l 201 176 q 182 99 182 129 q 318 17 182 17 q 325 8 325 17 q 318 0 325 0 q 246 3 293 0 q 154 6 193 6 q 71 3 118 6 q 1 0 29 0 q -6 8 -6 0 q 1 17 -6 17 q 67 31 40 17 q 119 83 94 46 q 172 189 143 119 l 465 881 q 475 885 468 885 q 483 881 482 885 l 811 190 q 892 52 858 88 q 971 17 925 17 m 333 489 l 569 489 l 444 753 l 333 489 m 457 1044 q 472 1051 464 1051 q 489 1044 482 1051 l 631 910 q 632 907 632 910 q 628 901 632 904 q 624 900 625 899 l 474 979 l 322 900 q 315 903 319 899 q 314 910 311 908 l 457 1044 m 564 1006 q 560 1004 563 1004 q 553 1009 556 1004 q 554 1017 551 1014 q 660 1151 608 1076 q 691 1148 664 1157 q 740 1127 718 1139 q 750 1113 761 1115 q 564 1006 660 1076 z "},"Ậ":{"ha":975,"x_min":-6,"x_max":976,"o":"m 971 17 q 976 8 976 17 q 971 0 976 0 q 889 3 944 0 q 808 6 833 6 q 731 3 778 6 q 663 0 686 0 q 657 8 657 0 q 663 17 657 17 q 738 26 714 17 q 761 60 761 36 q 743 119 761 79 l 583 460 l 321 460 l 201 176 q 182 99 182 129 q 318 17 182 17 q 325 8 325 17 q 318 0 325 0 q 246 3 293 0 q 154 6 193 6 q 71 3 118 6 q 1 0 29 0 q -6 8 -6 0 q 1 17 -6 17 q 67 31 40 17 q 119 83 94 46 q 172 189 143 119 l 465 881 q 475 885 468 885 q 483 881 482 885 l 811 190 q 892 52 858 88 q 971 17 925 17 m 333 489 l 569 489 l 444 753 l 333 489 m 490 -264 q 445 -249 461 -264 q 429 -206 429 -233 q 445 -162 429 -178 q 490 -147 461 -147 q 533 -162 518 -147 q 549 -206 549 -178 q 533 -249 549 -233 q 490 -264 518 -264 m 457 1044 q 472 1051 464 1051 q 489 1044 482 1051 l 631 910 q 632 907 632 910 q 628 901 632 904 q 624 900 625 899 l 474 979 l 322 900 q 315 903 319 899 q 314 910 311 908 l 457 1044 z "},"Ầ":{"ha":975,"x_min":-6,"x_max":976,"o":"m 971 17 q 976 8 976 17 q 971 0 976 0 q 889 3 944 0 q 808 6 833 6 q 731 3 778 6 q 663 0 686 0 q 657 8 657 0 q 663 17 657 17 q 738 26 714 17 q 761 60 761 36 q 743 119 761 79 l 583 460 l 321 460 l 201 176 q 182 99 182 129 q 318 17 182 17 q 325 8 325 17 q 318 0 325 0 q 246 3 293 0 q 154 6 193 6 q 71 3 118 6 q 1 0 29 0 q -6 8 -6 0 q 1 17 -6 17 q 67 31 40 17 q 119 83 94 46 q 172 189 143 119 l 465 881 q 475 885 468 885 q 483 881 482 885 l 811 190 q 892 52 858 88 q 971 17 925 17 m 333 489 l 569 489 l 444 753 l 333 489 m 457 1044 q 472 1051 464 1051 q 489 1044 482 1051 l 631 910 q 632 907 632 910 q 628 901 632 904 q 624 900 625 899 l 474 979 l 322 900 q 315 903 319 899 q 314 910 311 908 l 457 1044 m 706 975 q 615 1036 657 1011 q 521 1082 572 1061 q 532 1097 511 1085 q 581 1117 553 1108 q 611 1121 608 1126 q 715 988 657 1054 l 718 982 q 714 976 718 978 q 706 975 710 974 z "},"Ẩ":{"ha":975,"x_min":-6,"x_max":976,"o":"m 971 17 q 976 8 976 17 q 971 0 976 0 q 889 3 944 0 q 808 6 833 6 q 731 3 778 6 q 663 0 686 0 q 657 8 657 0 q 663 17 657 17 q 738 26 714 17 q 761 60 761 36 q 743 119 761 79 l 583 460 l 321 460 l 201 176 q 182 99 182 129 q 318 17 182 17 q 325 8 325 17 q 318 0 325 0 q 246 3 293 0 q 154 6 193 6 q 71 3 118 6 q 1 0 29 0 q -6 8 -6 0 q 1 17 -6 17 q 67 31 40 17 q 119 83 94 46 q 172 189 143 119 l 465 881 q 475 885 468 885 q 483 881 482 885 l 811 190 q 892 52 858 88 q 971 17 925 17 m 333 489 l 569 489 l 444 753 l 333 489 m 457 1044 q 472 1051 464 1051 q 489 1044 482 1051 l 631 910 q 632 907 632 910 q 628 901 632 904 q 624 900 625 899 l 474 979 l 322 900 q 315 903 319 899 q 314 910 311 908 l 457 1044 m 585 1006 q 582 1024 582 1013 q 601 1075 582 1042 q 622 1128 622 1107 q 608 1160 622 1149 q 575 1171 593 1171 q 542 1164 558 1171 l 540 1164 q 532 1169 536 1164 q 532 1175 528 1174 q 576 1194 553 1188 q 615 1201 599 1201 q 664 1183 646 1201 q 682 1142 682 1165 q 670 1106 682 1122 q 638 1071 658 1090 q 606 1036 615 1050 q 600 1006 596 1022 q 594 1002 603 1003 q 585 1006 586 1001 z "},"Ẫ":{"ha":975,"x_min":-6,"x_max":976,"o":"m 971 17 q 976 8 976 17 q 971 0 976 0 q 889 3 944 0 q 808 6 833 6 q 731 3 778 6 q 663 0 686 0 q 657 8 657 0 q 663 17 657 17 q 738 26 714 17 q 761 60 761 36 q 743 119 761 79 l 583 460 l 321 460 l 201 176 q 182 99 182 129 q 318 17 182 17 q 325 8 325 17 q 318 0 325 0 q 246 3 293 0 q 154 6 193 6 q 71 3 118 6 q 1 0 29 0 q -6 8 -6 0 q 1 17 -6 17 q 67 31 40 17 q 119 83 94 46 q 172 189 143 119 l 465 881 q 475 885 468 885 q 483 881 482 885 l 811 190 q 892 52 858 88 q 971 17 925 17 m 333 489 l 569 489 l 444 753 l 333 489 m 457 1044 q 472 1051 464 1051 q 489 1044 482 1051 l 631 910 q 632 907 632 910 q 628 901 632 904 q 624 900 625 899 l 474 979 l 322 900 q 315 903 319 899 q 314 910 311 908 l 457 1044 m 589 1126 q 626 1136 613 1126 q 657 1164 640 1146 l 658 1164 q 666 1160 663 1164 q 667 1154 669 1157 q 607 1086 631 1104 q 557 1068 583 1068 q 472 1085 528 1068 q 437 1094 467 1086 q 375 1103 407 1103 q 342 1096 354 1103 q 322 1079 331 1089 q 307 1065 313 1069 l 304 1065 q 297 1069 300 1065 q 297 1075 294 1072 q 352 1133 321 1107 q 415 1160 383 1160 q 485 1146 435 1160 q 589 1126 549 1126 z "},"Ä":{"ha":975,"x_min":-6,"x_max":976,"o":"m 971 17 q 976 8 976 17 q 971 0 976 0 q 889 3 944 0 q 808 6 833 6 q 731 3 778 6 q 663 0 686 0 q 657 8 657 0 q 663 17 657 17 q 738 26 714 17 q 761 60 761 36 q 743 119 761 79 l 583 460 l 321 460 l 201 176 q 182 99 182 129 q 318 17 182 17 q 325 8 325 17 q 318 0 325 0 q 246 3 293 0 q 154 6 193 6 q 71 3 118 6 q 1 0 29 0 q -6 8 -6 0 q 1 17 -6 17 q 67 31 40 17 q 119 83 94 46 q 172 189 143 119 l 465 881 q 475 885 468 885 q 483 881 482 885 l 811 190 q 892 52 858 88 q 971 17 925 17 m 333 489 l 569 489 l 444 753 l 333 489 m 353 996 q 309 1011 325 996 q 293 1053 293 1026 q 309 1094 293 1079 q 353 1110 325 1110 q 395 1095 381 1110 q 410 1053 410 1081 q 395 1011 410 1026 q 353 996 381 996 m 596 996 q 552 1011 568 996 q 536 1053 536 1026 q 552 1094 536 1079 q 596 1110 568 1110 q 639 1095 624 1110 q 654 1053 654 1081 q 639 1010 654 1025 q 596 996 624 996 z "},"Ạ":{"ha":975,"x_min":-6,"x_max":976,"o":"m 971 17 q 976 8 976 17 q 971 0 976 0 q 889 3 944 0 q 808 6 833 6 q 731 3 778 6 q 663 0 686 0 q 657 8 657 0 q 663 17 657 17 q 738 26 714 17 q 761 60 761 36 q 743 119 761 79 l 583 460 l 321 460 l 201 176 q 182 99 182 129 q 318 17 182 17 q 325 8 325 17 q 318 0 325 0 q 246 3 293 0 q 154 6 193 6 q 71 3 118 6 q 1 0 29 0 q -6 8 -6 0 q 1 17 -6 17 q 67 31 40 17 q 119 83 94 46 q 172 189 143 119 l 465 881 q 475 885 468 885 q 483 881 482 885 l 811 190 q 892 52 858 88 q 971 17 925 17 m 333 489 l 569 489 l 444 753 l 333 489 m 490 -264 q 445 -249 461 -264 q 429 -206 429 -233 q 445 -162 429 -178 q 490 -147 461 -147 q 533 -162 518 -147 q 549 -206 549 -178 q 533 -249 549 -233 q 490 -264 518 -264 z "},"À":{"ha":975,"x_min":-6,"x_max":976,"o":"m 971 17 q 976 8 976 17 q 971 0 976 0 q 889 3 944 0 q 808 6 833 6 q 731 3 778 6 q 663 0 686 0 q 657 8 657 0 q 663 17 657 17 q 738 26 714 17 q 761 60 761 36 q 743 119 761 79 l 583 460 l 321 460 l 201 176 q 182 99 182 129 q 318 17 182 17 q 325 8 325 17 q 318 0 325 0 q 246 3 293 0 q 154 6 193 6 q 71 3 118 6 q 1 0 29 0 q -6 8 -6 0 q 1 17 -6 17 q 67 31 40 17 q 119 83 94 46 q 172 189 143 119 l 465 881 q 475 885 468 885 q 483 881 482 885 l 811 190 q 892 52 858 88 q 971 17 925 17 m 333 489 l 569 489 l 444 753 l 333 489 m 611 943 q 301 1050 454 1013 q 312 1063 292 1051 q 359 1083 332 1074 q 392 1089 386 1092 l 432 1064 q 617 957 569 982 q 619 951 619 956 q 617 944 619 947 q 611 943 614 942 z "},"Ả":{"ha":975,"x_min":-6,"x_max":976,"o":"m 971 17 q 976 8 976 17 q 971 0 976 0 q 889 3 944 0 q 808 6 833 6 q 731 3 778 6 q 663 0 686 0 q 657 8 657 0 q 663 17 657 17 q 738 26 714 17 q 761 60 761 36 q 743 119 761 79 l 583 460 l 321 460 l 201 176 q 182 99 182 129 q 318 17 182 17 q 325 8 325 17 q 318 0 325 0 q 246 3 293 0 q 154 6 193 6 q 71 3 118 6 q 1 0 29 0 q -6 8 -6 0 q 1 17 -6 17 q 67 31 40 17 q 119 83 94 46 q 172 189 143 119 l 465 881 q 475 885 468 885 q 483 881 482 885 l 811 190 q 892 52 858 88 q 971 17 925 17 m 333 489 l 569 489 l 444 753 l 333 489 m 478 904 q 470 901 478 901 q 461 904 463 901 q 457 933 457 919 q 465 973 457 954 q 488 1014 472 992 q 508 1053 501 1039 q 514 1083 514 1067 q 497 1124 514 1110 q 456 1139 481 1139 q 417 1129 436 1139 l 415 1129 q 407 1134 411 1129 q 407 1140 403 1139 q 497 1169 447 1169 q 563 1149 539 1169 q 586 1097 586 1128 q 572 1051 586 1072 q 529 1003 557 1031 q 490 958 503 976 q 476 918 476 939 q 478 904 476 908 z "},"Ā":{"ha":975,"x_min":-6,"x_max":976,"o":"m 971 17 q 976 8 976 17 q 971 0 976 0 q 889 3 944 0 q 808 6 833 6 q 731 3 778 6 q 663 0 686 0 q 657 8 657 0 q 663 17 657 17 q 738 26 714 17 q 761 60 761 36 q 743 119 761 79 l 583 460 l 321 460 l 201 176 q 182 99 182 129 q 318 17 182 17 q 325 8 325 17 q 318 0 325 0 q 246 3 293 0 q 154 6 193 6 q 71 3 118 6 q 1 0 29 0 q -6 8 -6 0 q 1 17 -6 17 q 67 31 40 17 q 119 83 94 46 q 172 189 143 119 l 465 881 q 475 885 468 885 q 483 881 482 885 l 811 190 q 892 52 858 88 q 971 17 925 17 m 333 489 l 569 489 l 444 753 l 333 489 m 299 1003 q 290 1022 290 1003 q 299 1042 290 1042 l 647 1042 q 656 1022 656 1042 q 647 1003 656 1003 l 299 1003 z "},"Ą":{"ha":978,"x_min":-6,"x_max":976,"o":"m 971 13 q 976 5 976 13 q 971 -3 976 -3 q 896 0 940 -3 l 838 1 q 711 -49 763 1 q 660 -179 660 -100 q 698 -294 660 -247 q 810 -340 736 -340 q 888 -322 851 -340 l 889 -322 q 897 -326 893 -322 q 897 -333 900 -331 q 751 -382 835 -382 q 625 -341 671 -382 q 579 -231 579 -300 q 606 -134 579 -174 q 682 -47 632 -94 q 738 13 719 -12 q 756 68 756 38 q 743 117 756 90 l 579 460 l 321 460 l 201 176 q 182 99 182 129 q 318 17 182 17 q 325 8 325 17 q 318 0 325 0 q 246 3 293 0 q 154 6 193 6 q 71 3 118 6 q 1 0 29 0 q -6 8 -6 0 q 1 17 -6 17 q 67 31 40 17 q 119 83 94 46 q 172 189 143 119 l 465 881 q 475 885 468 885 q 483 881 482 885 l 811 188 q 892 49 858 86 q 971 13 926 13 m 333 489 l 565 489 l 443 747 l 333 489 z "},"Å":{"ha":975,"x_min":-6,"x_max":976,"o":"m 971 17 q 976 8 976 17 q 971 0 976 0 q 889 3 944 0 q 808 6 833 6 q 731 3 778 6 q 663 0 686 0 q 657 8 657 0 q 663 17 657 17 q 738 26 714 17 q 761 60 761 36 q 743 119 761 79 l 583 460 l 321 460 l 201 176 q 182 99 182 129 q 318 17 182 17 q 325 8 325 17 q 318 0 325 0 q 246 3 293 0 q 154 6 193 6 q 71 3 118 6 q 1 0 29 0 q -6 8 -6 0 q 1 17 -6 17 q 67 31 40 17 q 119 83 94 46 q 172 189 143 119 l 465 881 q 475 885 468 885 q 483 881 482 885 l 811 190 q 892 52 858 88 q 971 17 925 17 m 333 489 l 569 489 l 444 753 l 333 489 m 467 922 q 378 956 411 922 q 344 1033 344 989 q 387 1112 344 1083 q 481 1140 429 1140 q 567 1108 531 1140 q 603 1031 603 1076 q 561 952 603 982 q 467 922 519 922 m 488 938 q 526 954 514 938 q 539 1006 539 971 q 514 1090 539 1054 q 453 1126 489 1126 q 418 1110 429 1126 q 407 1061 407 1094 q 429 976 407 1014 q 488 938 451 938 z "},"Ǻ":{"ha":975,"x_min":-6,"x_max":976,"o":"m 971 17 q 976 8 976 17 q 971 0 976 0 q 889 3 944 0 q 808 6 833 6 q 731 3 778 6 q 663 0 686 0 q 657 8 657 0 q 663 17 657 17 q 738 26 714 17 q 761 60 761 36 q 743 119 761 79 l 583 460 l 321 460 l 201 176 q 182 99 182 129 q 318 17 182 17 q 325 8 325 17 q 318 0 325 0 q 246 3 293 0 q 154 6 193 6 q 71 3 118 6 q 1 0 29 0 q -6 8 -6 0 q 1 17 -6 17 q 67 31 40 17 q 119 83 94 46 q 172 189 143 119 l 465 881 q 475 885 468 885 q 483 881 482 885 l 811 190 q 892 52 858 88 q 971 17 925 17 m 333 489 l 569 489 l 444 753 l 333 489 m 344 1129 q 338 1135 340 1129 q 340 1143 336 1142 q 447 1197 431 1189 l 529 1239 q 559 1233 535 1243 q 603 1212 583 1224 q 613 1199 622 1200 q 347 1129 493 1176 l 344 1129 m 464 938 q 378 965 411 938 q 346 1032 346 993 q 387 1099 346 1074 q 478 1124 428 1124 q 564 1096 528 1124 q 600 1029 600 1068 q 558 963 600 988 q 464 938 517 938 m 486 953 q 536 1004 536 953 q 511 1078 536 1047 q 451 1108 486 1108 q 415 1097 426 1108 q 404 1060 404 1085 q 426 985 404 1018 q 486 953 449 953 z "},"Ã":{"ha":975,"x_min":-6,"x_max":976,"o":"m 971 17 q 976 8 976 17 q 971 0 976 0 q 889 3 944 0 q 808 6 833 6 q 731 3 778 6 q 663 0 686 0 q 657 8 657 0 q 663 17 657 17 q 738 26 714 17 q 761 60 761 36 q 743 119 761 79 l 583 460 l 321 460 l 201 176 q 182 99 182 129 q 318 17 182 17 q 325 8 325 17 q 318 0 325 0 q 246 3 293 0 q 154 6 193 6 q 71 3 118 6 q 1 0 29 0 q -6 8 -6 0 q 1 17 -6 17 q 67 31 40 17 q 119 83 94 46 q 172 189 143 119 l 465 881 q 475 885 468 885 q 483 881 482 885 l 811 190 q 892 52 858 88 q 971 17 925 17 m 333 489 l 569 489 l 444 753 l 333 489 m 582 1031 q 620 1040 606 1031 q 650 1068 635 1050 l 653 1068 q 660 1065 657 1068 q 660 1058 663 1061 q 600 990 624 1007 q 550 972 576 972 q 465 989 521 972 q 369 1006 404 1006 q 335 999 347 1006 q 313 982 322 992 q 300 968 304 972 l 299 968 q 291 972 294 968 q 290 978 288 975 q 344 1038 313 1011 q 408 1065 376 1065 q 478 1050 432 1065 q 517 1040 485 1049 q 582 1031 550 1031 z "},"Æ":{"ha":1214,"x_min":-3,"x_max":1146,"o":"m 1129 207 q 1135 210 1129 210 q 1142 208 1139 210 q 1146 204 1146 206 q 1133 21 1133 117 q 1128 5 1133 10 q 1111 0 1124 0 l 544 0 q 542 8 542 0 q 544 17 542 17 q 620 24 596 17 q 653 51 644 31 q 663 113 663 71 l 663 438 l 424 438 l 244 175 q 203 76 203 115 q 311 17 203 17 q 318 8 318 17 q 311 0 318 0 q 236 3 286 0 q 140 6 181 6 q 65 3 107 6 q 4 0 26 0 q -3 8 -3 0 q 4 17 -3 17 q 100 60 47 17 q 208 183 153 103 l 629 797 q 647 832 647 822 q 624 848 647 844 q 540 851 601 851 q 538 860 538 851 q 540 868 538 868 l 1088 868 q 1100 856 1100 868 l 1103 685 q 1095 680 1103 681 q 1088 683 1088 679 q 1042 794 1085 749 q 939 839 1000 839 l 863 839 q 792 832 815 839 q 760 808 769 825 q 751 754 751 790 l 751 467 l 907 467 q 1003 489 975 467 q 1032 564 1032 511 q 1040 567 1032 567 q 1049 564 1049 567 l 1047 451 q 1049 390 1047 411 l 1050 324 q 1042 321 1050 321 q 1033 324 1033 321 q 1003 411 1033 385 q 904 438 974 438 l 751 438 l 751 118 q 760 62 751 81 q 791 36 768 43 q 860 29 814 29 l 961 29 q 1068 79 1021 29 q 1129 207 1115 129 m 443 467 l 663 467 l 663 788 l 443 467 z "},"Ǽ":{"ha":1214,"x_min":-3,"x_max":1146,"o":"m 1129 207 q 1135 210 1129 210 q 1142 208 1139 210 q 1146 204 1146 206 q 1133 21 1133 117 q 1128 5 1133 10 q 1111 0 1124 0 l 544 0 q 542 8 542 0 q 544 17 542 17 q 620 24 596 17 q 653 51 644 31 q 663 113 663 71 l 663 438 l 424 438 l 244 175 q 203 76 203 115 q 311 17 203 17 q 318 8 318 17 q 311 0 318 0 q 236 3 286 0 q 140 6 181 6 q 65 3 107 6 q 4 0 26 0 q -3 8 -3 0 q 4 17 -3 17 q 100 60 47 17 q 208 183 153 103 l 629 797 q 647 832 647 822 q 624 848 647 844 q 540 851 601 851 q 538 860 538 851 q 540 868 538 868 l 1088 868 q 1100 856 1100 868 l 1103 685 q 1095 680 1103 681 q 1088 683 1088 679 q 1042 794 1085 749 q 939 839 1000 839 l 863 839 q 792 832 815 839 q 760 808 769 825 q 751 754 751 790 l 751 467 l 907 467 q 1003 489 975 467 q 1032 564 1032 511 q 1040 567 1032 567 q 1049 564 1049 567 l 1047 451 q 1049 390 1047 411 l 1050 324 q 1042 321 1050 321 q 1033 324 1033 321 q 1003 411 1033 385 q 904 438 974 438 l 751 438 l 751 118 q 760 62 751 81 q 791 36 768 43 q 860 29 814 29 l 961 29 q 1068 79 1021 29 q 1129 207 1115 129 m 443 467 l 663 467 l 663 788 l 443 467 m 667 942 q 660 948 661 942 q 663 957 658 954 q 814 1043 708 982 q 858 1071 839 1060 q 889 1089 876 1082 q 922 1083 894 1092 q 968 1063 949 1074 q 978 1050 988 1051 q 820 1003 892 1029 q 669 943 749 978 l 667 942 z "},"Ǣ":{"ha":1214,"x_min":-3,"x_max":1146,"o":"m 1129 207 q 1135 210 1129 210 q 1142 208 1139 210 q 1146 204 1146 206 q 1133 21 1133 117 q 1128 5 1133 10 q 1111 0 1124 0 l 544 0 q 542 8 542 0 q 544 17 542 17 q 620 24 596 17 q 653 51 644 31 q 663 113 663 71 l 663 438 l 424 438 l 244 175 q 203 76 203 115 q 311 17 203 17 q 318 8 318 17 q 311 0 318 0 q 236 3 286 0 q 140 6 181 6 q 65 3 107 6 q 4 0 26 0 q -3 8 -3 0 q 4 17 -3 17 q 100 60 47 17 q 208 183 153 103 l 629 797 q 647 832 647 822 q 624 848 647 844 q 540 851 601 851 q 538 860 538 851 q 540 868 538 868 l 1088 868 q 1100 856 1100 868 l 1103 685 q 1095 680 1103 681 q 1088 683 1088 679 q 1042 794 1085 749 q 939 839 1000 839 l 863 839 q 792 832 815 839 q 760 808 769 825 q 751 754 751 790 l 751 467 l 907 467 q 1003 489 975 467 q 1032 564 1032 511 q 1040 567 1032 567 q 1049 564 1049 567 l 1047 451 q 1049 390 1047 411 l 1050 324 q 1042 321 1050 321 q 1033 324 1033 321 q 1003 411 1033 385 q 904 438 974 438 l 751 438 l 751 118 q 760 62 751 81 q 791 36 768 43 q 860 29 814 29 l 961 29 q 1068 79 1021 29 q 1129 207 1115 129 m 443 467 l 663 467 l 663 788 l 443 467 m 629 1003 q 621 1022 621 1003 q 629 1042 621 1042 l 978 1042 q 986 1022 986 1042 q 978 1003 986 1003 l 629 1003 z "},"B":{"ha":775,"x_min":57,"x_max":706,"o":"m 461 489 q 638 416 571 481 q 706 256 706 351 q 669 122 706 182 q 570 28 633 63 q 429 -6 507 -6 q 329 -1 383 -6 q 283 1 310 0 q 225 3 257 3 l 131 1 q 60 0 106 0 q 57 8 57 0 q 60 17 57 17 q 138 24 113 17 q 172 51 163 32 q 182 113 182 71 l 182 756 q 173 817 182 797 q 139 844 164 836 q 63 851 114 851 q 58 860 58 851 q 63 868 58 868 l 131 867 q 225 864 189 864 q 272 865 250 864 q 308 868 293 867 q 389 872 351 872 q 564 822 506 872 q 622 689 622 771 q 579 570 622 622 q 461 489 536 518 m 358 851 q 305 846 322 851 q 279 819 288 840 q 271 753 271 799 l 271 489 l 333 488 q 483 540 435 488 q 532 678 532 592 q 490 803 532 756 q 358 851 447 851 m 408 19 q 559 72 510 19 q 608 221 608 124 q 547 392 608 326 q 376 458 485 457 q 271 456 332 460 l 271 113 q 281 57 271 76 q 322 28 292 38 q 408 19 351 19 z "},"C":{"ha":929,"x_min":68,"x_max":869,"o":"m 576 883 q 711 871 643 883 q 819 835 779 858 q 835 823 832 829 q 840 801 839 817 l 856 646 q 849 641 856 642 q 840 644 842 640 q 727 802 810 751 q 522 853 644 853 q 338 806 417 853 q 215 675 258 760 q 172 479 172 590 q 226 240 172 350 q 370 67 279 131 q 567 3 461 3 q 740 58 667 3 q 853 226 814 113 q 858 231 853 231 q 866 229 863 231 q 869 225 869 228 l 850 68 q 844 47 847 51 q 828 36 840 42 q 564 -17 703 -17 q 285 51 397 -17 q 121 222 174 118 q 68 442 68 326 q 139 671 68 569 q 326 828 210 772 q 576 883 443 883 z "},"Ć":{"ha":929,"x_min":68,"x_max":869,"o":"m 576 883 q 711 871 643 883 q 819 835 779 858 q 835 823 832 829 q 840 801 839 817 l 856 646 q 849 641 856 642 q 840 644 842 640 q 727 802 810 751 q 522 853 644 853 q 338 806 417 853 q 215 675 258 760 q 172 479 172 590 q 226 240 172 350 q 370 67 279 131 q 567 3 461 3 q 740 58 667 3 q 853 226 814 113 q 858 231 853 231 q 866 229 863 231 q 869 225 869 228 l 850 68 q 844 47 847 51 q 828 36 840 42 q 564 -17 703 -17 q 285 51 397 -17 q 121 222 174 118 q 68 442 68 326 q 139 671 68 569 q 326 828 210 772 q 576 883 443 883 m 389 942 q 382 948 383 942 q 385 957 381 954 q 536 1043 431 982 q 580 1071 561 1060 q 611 1089 599 1082 q 644 1083 617 1092 q 690 1063 671 1074 q 700 1050 710 1051 q 542 1003 614 1029 q 392 943 471 978 l 389 942 z "},"Č":{"ha":929,"x_min":68,"x_max":869,"o":"m 576 883 q 711 871 643 883 q 819 835 779 858 q 835 823 832 829 q 840 801 839 817 l 856 646 q 849 641 856 642 q 840 644 842 640 q 727 802 810 751 q 522 853 644 853 q 338 806 417 853 q 215 675 258 760 q 172 479 172 590 q 226 240 172 350 q 370 67 279 131 q 567 3 461 3 q 740 58 667 3 q 853 226 814 113 q 858 231 853 231 q 866 229 863 231 q 869 225 869 228 l 850 68 q 844 47 847 51 q 828 36 840 42 q 564 -17 703 -17 q 285 51 397 -17 q 121 222 174 118 q 68 442 68 326 q 139 671 68 569 q 326 828 210 772 q 576 883 443 883 m 367 1089 q 365 1090 365 1089 q 365 1090 365 1090 q 369 1097 365 1093 q 375 1099 372 1100 l 526 1019 l 676 1099 l 678 1099 q 685 1094 682 1099 q 683 1089 688 1090 l 542 954 q 526 949 536 949 q 510 954 515 949 l 367 1089 z "},"Ç":{"ha":929,"x_min":68,"x_max":869,"o":"m 853 226 q 858 231 853 231 q 866 229 863 231 q 869 225 869 228 l 850 68 q 844 47 847 51 q 828 36 840 42 q 564 -17 703 -17 l 536 -17 q 522 -79 522 -58 q 534 -109 522 -99 q 583 -142 546 -119 q 638 -186 618 -161 q 658 -249 658 -211 q 622 -341 658 -300 q 514 -382 585 -382 q 450 -368 475 -382 q 425 -329 425 -354 q 438 -299 425 -311 q 467 -287 450 -287 q 490 -295 482 -287 q 507 -318 499 -303 q 527 -345 517 -336 q 558 -354 538 -354 q 606 -301 606 -354 q 580 -237 606 -265 q 486 -172 554 -208 q 467 -154 467 -162 q 474 -131 467 -149 q 517 -15 492 -85 q 265 63 365 -6 q 116 233 164 132 q 68 442 68 333 q 139 671 68 569 q 326 828 210 772 q 576 883 443 883 q 711 871 643 883 q 819 835 779 858 q 835 823 832 829 q 840 801 839 817 l 856 646 q 849 641 856 642 q 840 644 842 640 q 727 802 810 751 q 522 853 644 853 q 338 806 417 853 q 215 675 258 760 q 172 479 172 590 q 226 240 172 350 q 370 67 279 131 q 567 3 461 3 q 740 58 667 3 q 853 226 814 113 z "},"Ĉ":{"ha":929,"x_min":68,"x_max":869,"o":"m 576 883 q 711 871 643 883 q 819 835 779 858 q 835 823 832 829 q 840 801 839 817 l 856 646 q 849 641 856 642 q 840 644 842 640 q 727 802 810 751 q 522 853 644 853 q 338 806 417 853 q 215 675 258 760 q 172 479 172 590 q 226 240 172 350 q 370 67 279 131 q 567 3 461 3 q 740 58 667 3 q 853 226 814 113 q 858 231 853 231 q 866 229 863 231 q 869 225 869 228 l 850 68 q 844 47 847 51 q 828 36 840 42 q 564 -17 703 -17 q 285 51 397 -17 q 121 222 174 118 q 68 442 68 326 q 139 671 68 569 q 326 828 210 772 q 576 883 443 883 m 511 1097 q 528 1104 518 1104 q 543 1097 536 1104 l 685 961 q 686 958 686 961 q 683 953 686 956 q 678 951 679 950 l 528 1032 l 376 951 q 369 955 374 950 q 368 961 365 960 l 511 1097 z "},"Ċ":{"ha":929,"x_min":68,"x_max":869,"o":"m 576 883 q 711 871 643 883 q 819 835 779 858 q 835 823 832 829 q 840 801 839 817 l 856 646 q 849 641 856 642 q 840 644 842 640 q 727 802 810 751 q 522 853 644 853 q 338 806 417 853 q 215 675 258 760 q 172 479 172 590 q 226 240 172 350 q 370 67 279 131 q 567 3 461 3 q 740 58 667 3 q 853 226 814 113 q 858 231 853 231 q 866 229 863 231 q 869 225 869 228 l 850 68 q 844 47 847 51 q 828 36 840 42 q 564 -17 703 -17 q 285 51 397 -17 q 121 222 174 118 q 68 442 68 326 q 139 671 68 569 q 326 828 210 772 q 576 883 443 883 m 526 990 q 481 1006 497 990 q 465 1050 465 1022 q 481 1093 465 1078 q 526 1108 497 1108 q 569 1093 554 1108 q 585 1050 585 1078 q 569 1006 585 1022 q 526 990 554 990 z "},"D":{"ha":960,"x_min":46,"x_max":892,"o":"m 421 -6 q 328 -1 381 -6 q 278 1 308 0 q 213 3 249 3 l 118 1 q 49 0 93 0 q 46 8 46 0 q 49 17 46 17 q 126 24 101 17 q 159 51 150 31 q 168 113 168 71 l 168 756 q 160 817 168 797 q 127 844 151 836 q 50 851 103 851 q 47 860 47 851 q 50 868 47 868 l 119 867 q 213 864 178 864 q 317 868 265 864 q 401 871 378 871 q 657 815 546 871 q 830 664 768 760 q 892 449 892 568 q 828 210 892 314 q 657 51 765 107 q 421 -6 549 -6 m 407 15 q 604 62 518 15 q 738 199 690 108 q 786 418 786 290 q 740 638 786 539 q 610 793 694 736 q 414 850 525 850 q 322 843 354 850 q 274 815 289 836 q 258 753 258 794 l 258 128 q 270 63 258 86 q 315 27 282 39 q 407 15 347 15 z "},"Ð":{"ha":960,"x_min":46,"x_max":892,"o":"m 401 871 q 657 815 546 871 q 830 664 768 760 q 892 449 892 568 q 828 210 892 314 q 657 51 765 107 q 421 -6 549 -6 q 328 -1 381 -6 q 278 1 308 0 q 213 3 249 3 l 118 1 q 49 0 93 0 q 46 8 46 0 q 49 17 46 17 q 126 24 101 17 q 159 51 150 31 q 168 113 168 71 l 168 418 l 74 418 q 68 432 68 418 q 74 446 68 446 l 168 446 l 168 756 q 160 817 168 797 q 127 844 151 836 q 50 851 103 851 q 47 860 47 851 q 50 868 47 868 l 119 867 q 213 864 178 864 q 317 868 265 864 q 401 871 378 871 m 407 15 q 604 62 518 15 q 738 199 690 108 q 786 418 786 290 q 740 638 786 539 q 610 793 694 736 q 414 850 525 850 q 322 843 354 850 q 274 815 289 836 q 258 753 258 794 l 258 446 l 447 446 q 453 432 453 446 q 447 418 453 418 l 258 418 l 258 128 q 270 63 258 86 q 315 27 282 39 q 407 15 347 15 z "},"Ď":{"ha":960,"x_min":46,"x_max":892,"o":"m 421 -6 q 328 -1 381 -6 q 278 1 308 0 q 213 3 249 3 l 118 1 q 49 0 93 0 q 46 8 46 0 q 49 17 46 17 q 126 24 101 17 q 159 51 150 31 q 168 113 168 71 l 168 756 q 160 817 168 797 q 127 844 151 836 q 50 851 103 851 q 47 860 47 851 q 50 868 47 868 l 119 867 q 213 864 178 864 q 317 868 265 864 q 401 871 378 871 q 657 815 546 871 q 830 664 768 760 q 892 449 892 568 q 828 210 892 314 q 657 51 765 107 q 421 -6 549 -6 m 407 15 q 604 62 518 15 q 738 199 690 108 q 786 418 786 290 q 740 638 786 539 q 610 793 694 736 q 414 850 525 850 q 322 843 354 850 q 274 815 289 836 q 258 753 258 794 l 258 128 q 270 63 258 86 q 315 27 282 39 q 407 15 347 15 m 282 1089 q 281 1090 281 1089 q 281 1090 281 1090 q 284 1097 281 1093 q 290 1099 288 1100 l 442 1019 l 592 1099 l 593 1099 q 600 1094 597 1099 q 599 1089 603 1090 l 457 954 q 442 949 451 949 q 425 954 431 949 l 282 1089 z "},"Đ":{"ha":960,"x_min":46,"x_max":892,"o":"m 401 871 q 657 815 546 871 q 830 664 768 760 q 892 449 892 568 q 828 210 892 314 q 657 51 765 107 q 421 -6 549 -6 q 328 -1 381 -6 q 278 1 308 0 q 213 3 249 3 l 118 1 q 49 0 93 0 q 46 8 46 0 q 49 17 46 17 q 126 24 101 17 q 159 51 150 31 q 168 113 168 71 l 168 418 l 74 418 q 68 432 68 418 q 74 446 68 446 l 168 446 l 168 756 q 160 817 168 797 q 127 844 151 836 q 50 851 103 851 q 47 860 47 851 q 50 868 47 868 l 119 867 q 213 864 178 864 q 317 868 265 864 q 401 871 378 871 m 407 15 q 604 62 518 15 q 738 199 690 108 q 786 418 786 290 q 740 638 786 539 q 610 793 694 736 q 414 850 525 850 q 322 843 354 850 q 274 815 289 836 q 258 753 258 794 l 258 446 l 447 446 q 453 432 453 446 q 447 418 453 418 l 258 418 l 258 128 q 270 63 258 86 q 315 27 282 39 q 407 15 347 15 z "},"Ḍ":{"ha":960,"x_min":46,"x_max":892,"o":"m 421 -6 q 328 -1 381 -6 q 278 1 308 0 q 213 3 249 3 l 118 1 q 49 0 93 0 q 46 8 46 0 q 49 17 46 17 q 126 24 101 17 q 159 51 150 31 q 168 113 168 71 l 168 756 q 160 817 168 797 q 127 844 151 836 q 50 851 103 851 q 47 860 47 851 q 50 868 47 868 l 119 867 q 213 864 178 864 q 317 868 265 864 q 401 871 378 871 q 657 815 546 871 q 830 664 768 760 q 892 449 892 568 q 828 210 892 314 q 657 51 765 107 q 421 -6 549 -6 m 407 15 q 604 62 518 15 q 738 199 690 108 q 786 418 786 290 q 740 638 786 539 q 610 793 694 736 q 414 850 525 850 q 322 843 354 850 q 274 815 289 836 q 258 753 258 794 l 258 128 q 270 63 258 86 q 315 27 282 39 q 407 15 347 15 m 450 -264 q 405 -249 421 -264 q 389 -206 389 -233 q 405 -162 389 -178 q 450 -147 421 -147 q 493 -162 478 -147 q 508 -206 508 -178 q 493 -249 508 -233 q 450 -264 478 -264 z "},"Ḏ":{"ha":960,"x_min":46,"x_max":892,"o":"m 421 -6 q 328 -1 381 -6 q 278 1 308 0 q 213 3 249 3 l 118 1 q 49 0 93 0 q 46 8 46 0 q 49 17 46 17 q 126 24 101 17 q 159 51 150 31 q 168 113 168 71 l 168 756 q 160 817 168 797 q 127 844 151 836 q 50 851 103 851 q 47 860 47 851 q 50 868 47 868 l 119 867 q 213 864 178 864 q 317 868 265 864 q 401 871 378 871 q 657 815 546 871 q 830 664 768 760 q 892 449 892 568 q 828 210 892 314 q 657 51 765 107 q 421 -6 549 -6 m 407 15 q 604 62 518 15 q 738 199 690 108 q 786 418 786 290 q 740 638 786 539 q 610 793 694 736 q 414 850 525 850 q 322 843 354 850 q 274 815 289 836 q 258 753 258 794 l 258 128 q 270 63 258 86 q 315 27 282 39 q 407 15 347 15 m 274 -157 q 265 -137 265 -157 q 274 -118 265 -118 l 622 -118 q 631 -137 631 -118 q 622 -157 631 -157 l 274 -157 z "},"E":{"ha":746,"x_min":57,"x_max":676,"o":"m 660 207 q 665 210 660 210 q 673 208 669 210 q 676 204 676 207 q 664 21 664 117 q 659 5 664 10 q 642 0 654 0 l 60 0 q 57 8 57 0 q 60 17 57 17 q 137 24 113 17 q 170 51 161 31 q 179 113 179 71 l 179 756 q 170 817 179 797 q 137 844 161 836 q 60 851 113 851 q 57 860 57 851 q 60 868 57 868 l 618 868 q 631 856 631 868 l 633 685 q 626 680 633 681 q 618 683 619 679 q 574 798 614 757 q 467 839 533 839 l 382 839 q 310 831 333 839 q 278 805 288 824 q 269 749 269 786 l 269 467 l 439 467 q 534 489 506 467 q 563 564 563 511 q 571 567 563 567 q 579 564 579 567 l 578 451 q 579 390 578 411 l 581 324 q 572 321 581 321 q 564 324 564 321 q 534 411 564 385 q 435 438 504 438 l 269 438 l 269 118 q 278 61 269 79 q 308 36 286 43 q 378 29 331 29 l 489 29 q 600 76 556 29 q 660 207 644 124 z "},"É":{"ha":746,"x_min":57,"x_max":676,"o":"m 660 207 q 665 210 660 210 q 673 208 669 210 q 676 204 676 207 q 664 21 664 117 q 659 5 664 10 q 642 0 654 0 l 60 0 q 57 8 57 0 q 60 17 57 17 q 137 24 113 17 q 170 51 161 31 q 179 113 179 71 l 179 756 q 170 817 179 797 q 137 844 161 836 q 60 851 113 851 q 57 860 57 851 q 60 868 57 868 l 618 868 q 631 856 631 868 l 633 685 q 626 680 633 681 q 618 683 619 679 q 574 798 614 757 q 467 839 533 839 l 382 839 q 310 831 333 839 q 278 805 288 824 q 269 749 269 786 l 269 467 l 439 467 q 534 489 506 467 q 563 564 563 511 q 571 567 563 567 q 579 564 579 567 l 578 451 q 579 390 578 411 l 581 324 q 572 321 581 321 q 564 324 564 321 q 534 411 564 385 q 435 438 504 438 l 269 438 l 269 118 q 278 61 269 79 q 308 36 286 43 q 378 29 331 29 l 489 29 q 600 76 556 29 q 660 207 644 124 m 268 942 q 261 948 263 942 q 264 957 260 954 q 415 1043 310 982 q 459 1071 440 1060 q 490 1089 478 1082 q 523 1083 496 1092 q 569 1063 550 1074 q 579 1050 589 1051 q 422 1003 493 1029 q 271 943 350 978 l 268 942 z "},"Ĕ":{"ha":746,"x_min":57,"x_max":676,"o":"m 660 207 q 665 210 660 210 q 673 208 669 210 q 676 204 676 207 q 664 21 664 117 q 659 5 664 10 q 642 0 654 0 l 60 0 q 57 8 57 0 q 60 17 57 17 q 137 24 113 17 q 170 51 161 31 q 179 113 179 71 l 179 756 q 170 817 179 797 q 137 844 161 836 q 60 851 113 851 q 57 860 57 851 q 60 868 57 868 l 618 868 q 631 856 631 868 l 633 685 q 626 680 633 681 q 618 683 619 679 q 574 798 614 757 q 467 839 533 839 l 382 839 q 310 831 333 839 q 278 805 288 824 q 269 749 269 786 l 269 467 l 439 467 q 534 489 506 467 q 563 564 563 511 q 571 567 563 567 q 579 564 579 567 l 578 451 q 579 390 578 411 l 581 324 q 572 321 581 321 q 564 324 564 321 q 534 411 564 385 q 435 438 504 438 l 269 438 l 269 118 q 278 61 269 79 q 308 36 286 43 q 378 29 331 29 l 489 29 q 600 76 556 29 q 660 207 644 124 m 406 958 q 310 997 347 958 q 263 1107 274 1036 q 268 1113 261 1113 q 278 1111 275 1114 q 324 1046 288 1074 q 406 1018 361 1018 q 485 1046 449 1018 q 532 1111 522 1074 q 538 1114 532 1114 q 545 1112 542 1114 q 547 1107 549 1110 q 500 997 536 1035 q 406 958 464 958 z "},"Ě":{"ha":746,"x_min":57,"x_max":676,"o":"m 660 207 q 665 210 660 210 q 673 208 669 210 q 676 204 676 207 q 664 21 664 117 q 659 5 664 10 q 642 0 654 0 l 60 0 q 57 8 57 0 q 60 17 57 17 q 137 24 113 17 q 170 51 161 31 q 179 113 179 71 l 179 756 q 170 817 179 797 q 137 844 161 836 q 60 851 113 851 q 57 860 57 851 q 60 868 57 868 l 618 868 q 631 856 631 868 l 633 685 q 626 680 633 681 q 618 683 619 679 q 574 798 614 757 q 467 839 533 839 l 382 839 q 310 831 333 839 q 278 805 288 824 q 269 749 269 786 l 269 467 l 439 467 q 534 489 506 467 q 563 564 563 511 q 571 567 563 567 q 579 564 579 567 l 578 451 q 579 390 578 411 l 581 324 q 572 321 581 321 q 564 324 564 321 q 534 411 564 385 q 435 438 504 438 l 269 438 l 269 118 q 278 61 269 79 q 308 36 286 43 q 378 29 331 29 l 489 29 q 600 76 556 29 q 660 207 644 124 m 246 1089 q 244 1090 244 1089 q 244 1090 244 1090 q 248 1097 244 1093 q 254 1099 251 1100 l 406 1019 l 556 1099 l 557 1099 q 564 1094 561 1099 q 563 1089 567 1090 l 421 954 q 406 949 415 949 q 389 954 394 949 l 246 1089 z "},"Ê":{"ha":746,"x_min":57,"x_max":676,"o":"m 660 207 q 665 210 660 210 q 673 208 669 210 q 676 204 676 207 q 664 21 664 117 q 659 5 664 10 q 642 0 654 0 l 60 0 q 57 8 57 0 q 60 17 57 17 q 137 24 113 17 q 170 51 161 31 q 179 113 179 71 l 179 756 q 170 817 179 797 q 137 844 161 836 q 60 851 113 851 q 57 860 57 851 q 60 868 57 868 l 618 868 q 631 856 631 868 l 633 685 q 626 680 633 681 q 618 683 619 679 q 574 798 614 757 q 467 839 533 839 l 382 839 q 310 831 333 839 q 278 805 288 824 q 269 749 269 786 l 269 467 l 439 467 q 534 489 506 467 q 563 564 563 511 q 571 567 563 567 q 579 564 579 567 l 578 451 q 579 390 578 411 l 581 324 q 572 321 581 321 q 564 324 564 321 q 534 411 564 385 q 435 438 504 438 l 269 438 l 269 118 q 278 61 269 79 q 308 36 286 43 q 378 29 331 29 l 489 29 q 600 76 556 29 q 660 207 644 124 m 390 1097 q 407 1104 397 1104 q 422 1097 415 1104 l 564 961 q 565 958 565 961 q 562 953 565 956 q 557 951 558 950 l 407 1032 l 256 951 q 249 955 253 950 q 247 961 244 960 l 390 1097 z "},"Ế":{"ha":746,"x_min":57,"x_max":685,"o":"m 660 207 q 665 210 660 210 q 673 208 669 210 q 676 204 676 207 q 664 21 664 117 q 659 5 664 10 q 642 0 654 0 l 60 0 q 57 8 57 0 q 60 17 57 17 q 137 24 113 17 q 170 51 161 31 q 179 113 179 71 l 179 756 q 170 817 179 797 q 137 844 161 836 q 60 851 113 851 q 57 860 57 851 q 60 868 57 868 l 618 868 q 631 856 631 868 l 633 685 q 626 680 633 681 q 618 683 619 679 q 574 798 614 757 q 467 839 533 839 l 382 839 q 310 831 333 839 q 278 805 288 824 q 269 749 269 786 l 269 467 l 439 467 q 534 489 506 467 q 563 564 563 511 q 571 567 563 567 q 579 564 579 567 l 578 451 q 579 390 578 411 l 581 324 q 572 321 581 321 q 564 324 564 321 q 534 411 564 385 q 435 438 504 438 l 269 438 l 269 118 q 278 61 269 79 q 308 36 286 43 q 378 29 331 29 l 489 29 q 600 76 556 29 q 660 207 644 124 m 389 1044 q 404 1051 396 1051 q 421 1044 414 1051 l 563 910 q 564 907 564 910 q 560 901 564 904 q 556 900 557 899 l 406 979 l 254 900 q 247 903 251 899 q 246 910 243 908 l 389 1044 m 496 1006 q 492 1004 494 1004 q 485 1009 488 1004 q 486 1017 483 1014 q 592 1151 540 1076 q 623 1148 596 1157 q 672 1127 650 1139 q 682 1113 693 1115 q 496 1006 592 1076 z "},"Ệ":{"ha":746,"x_min":57,"x_max":676,"o":"m 660 207 q 665 210 660 210 q 673 208 669 210 q 676 204 676 207 q 664 21 664 117 q 659 5 664 10 q 642 0 654 0 l 60 0 q 57 8 57 0 q 60 17 57 17 q 137 24 113 17 q 170 51 161 31 q 179 113 179 71 l 179 756 q 170 817 179 797 q 137 844 161 836 q 60 851 113 851 q 57 860 57 851 q 60 868 57 868 l 618 868 q 631 856 631 868 l 633 685 q 626 680 633 681 q 618 683 619 679 q 574 798 614 757 q 467 839 533 839 l 382 839 q 310 831 333 839 q 278 805 288 824 q 269 749 269 786 l 269 467 l 439 467 q 534 489 506 467 q 563 564 563 511 q 571 567 563 567 q 579 564 579 567 l 578 451 q 579 390 578 411 l 581 324 q 572 321 581 321 q 564 324 564 321 q 534 411 564 385 q 435 438 504 438 l 269 438 l 269 118 q 278 61 269 79 q 308 36 286 43 q 378 29 331 29 l 489 29 q 600 76 556 29 q 660 207 644 124 m 400 -264 q 355 -249 371 -264 q 339 -206 339 -233 q 355 -162 339 -178 q 400 -147 371 -147 q 443 -162 428 -147 q 458 -206 458 -178 q 443 -249 458 -233 q 400 -264 428 -264 m 389 1044 q 404 1051 396 1051 q 421 1044 414 1051 l 563 910 q 564 907 564 910 q 560 901 564 904 q 556 900 557 899 l 406 979 l 254 900 q 247 903 251 899 q 246 910 243 908 l 389 1044 z "},"Ề":{"ha":746,"x_min":57,"x_max":676,"o":"m 660 207 q 665 210 660 210 q 673 208 669 210 q 676 204 676 207 q 664 21 664 117 q 659 5 664 10 q 642 0 654 0 l 60 0 q 57 8 57 0 q 60 17 57 17 q 137 24 113 17 q 170 51 161 31 q 179 113 179 71 l 179 756 q 170 817 179 797 q 137 844 161 836 q 60 851 113 851 q 57 860 57 851 q 60 868 57 868 l 618 868 q 631 856 631 868 l 633 685 q 626 680 633 681 q 618 683 619 679 q 574 798 614 757 q 467 839 533 839 l 382 839 q 310 831 333 839 q 278 805 288 824 q 269 749 269 786 l 269 467 l 439 467 q 534 489 506 467 q 563 564 563 511 q 571 567 563 567 q 579 564 579 567 l 578 451 q 579 390 578 411 l 581 324 q 572 321 581 321 q 564 324 564 321 q 534 411 564 385 q 435 438 504 438 l 269 438 l 269 118 q 278 61 269 79 q 308 36 286 43 q 378 29 331 29 l 489 29 q 600 76 556 29 q 660 207 644 124 m 389 1044 q 404 1051 396 1051 q 421 1044 414 1051 l 563 910 q 564 907 564 910 q 560 901 564 904 q 556 900 557 899 l 406 979 l 254 900 q 247 903 251 899 q 246 910 243 908 l 389 1044 m 638 975 q 547 1036 589 1011 q 453 1082 504 1061 q 464 1097 443 1085 q 513 1117 485 1108 q 543 1121 540 1126 q 647 988 589 1054 l 650 982 q 646 976 650 978 q 638 975 642 974 z "},"Ể":{"ha":746,"x_min":57,"x_max":676,"o":"m 660 207 q 665 210 660 210 q 673 208 669 210 q 676 204 676 207 q 664 21 664 117 q 659 5 664 10 q 642 0 654 0 l 60 0 q 57 8 57 0 q 60 17 57 17 q 137 24 113 17 q 170 51 161 31 q 179 113 179 71 l 179 756 q 170 817 179 797 q 137 844 161 836 q 60 851 113 851 q 57 860 57 851 q 60 868 57 868 l 618 868 q 631 856 631 868 l 633 685 q 626 680 633 681 q 618 683 619 679 q 574 798 614 757 q 467 839 533 839 l 382 839 q 310 831 333 839 q 278 805 288 824 q 269 749 269 786 l 269 467 l 439 467 q 534 489 506 467 q 563 564 563 511 q 571 567 563 567 q 579 564 579 567 l 578 451 q 579 390 578 411 l 581 324 q 572 321 581 321 q 564 324 564 321 q 534 411 564 385 q 435 438 504 438 l 269 438 l 269 118 q 278 61 269 79 q 308 36 286 43 q 378 29 331 29 l 489 29 q 600 76 556 29 q 660 207 644 124 m 389 1044 q 404 1051 396 1051 q 421 1044 414 1051 l 563 910 q 564 907 564 910 q 560 901 564 904 q 556 900 557 899 l 406 979 l 254 900 q 247 903 251 899 q 246 910 243 908 l 389 1044 m 517 1006 q 514 1024 514 1013 q 533 1075 514 1042 q 554 1128 554 1107 q 540 1160 554 1149 q 507 1171 525 1171 q 474 1164 490 1171 l 472 1164 q 464 1169 468 1164 q 464 1175 460 1174 q 508 1194 485 1188 q 547 1201 531 1201 q 596 1183 578 1201 q 614 1142 614 1165 q 602 1106 614 1122 q 569 1071 590 1090 q 538 1036 547 1050 q 532 1006 528 1022 q 526 1002 535 1003 q 517 1006 518 1001 z "},"Ễ":{"ha":746,"x_min":57,"x_max":676,"o":"m 660 207 q 665 210 660 210 q 673 208 669 210 q 676 204 676 207 q 664 21 664 117 q 659 5 664 10 q 642 0 654 0 l 60 0 q 57 8 57 0 q 60 17 57 17 q 137 24 113 17 q 170 51 161 31 q 179 113 179 71 l 179 756 q 170 817 179 797 q 137 844 161 836 q 60 851 113 851 q 57 860 57 851 q 60 868 57 868 l 618 868 q 631 856 631 868 l 633 685 q 626 680 633 681 q 618 683 619 679 q 574 798 614 757 q 467 839 533 839 l 382 839 q 310 831 333 839 q 278 805 288 824 q 269 749 269 786 l 269 467 l 439 467 q 534 489 506 467 q 563 564 563 511 q 571 567 563 567 q 579 564 579 567 l 578 451 q 579 390 578 411 l 581 324 q 572 321 581 321 q 564 324 564 321 q 534 411 564 385 q 435 438 504 438 l 269 438 l 269 118 q 278 61 269 79 q 308 36 286 43 q 378 29 331 29 l 489 29 q 600 76 556 29 q 660 207 644 124 m 389 1044 q 404 1051 396 1051 q 421 1044 414 1051 l 563 910 q 564 907 564 910 q 560 901 564 904 q 556 900 557 899 l 406 979 l 254 900 q 247 903 251 899 q 246 910 243 908 l 389 1044 m 521 1126 q 558 1136 544 1126 q 589 1164 572 1146 l 590 1164 q 598 1160 594 1164 q 599 1154 601 1157 q 539 1086 563 1104 q 489 1068 515 1068 q 404 1085 460 1068 q 369 1094 399 1086 q 307 1103 339 1103 q 274 1096 286 1103 q 253 1079 263 1089 q 239 1065 244 1069 l 236 1065 q 229 1069 232 1065 q 229 1075 226 1072 q 284 1133 253 1107 q 347 1160 315 1160 q 417 1146 367 1160 q 521 1126 481 1126 z "},"Ë":{"ha":746,"x_min":57,"x_max":676,"o":"m 660 207 q 665 210 660 210 q 673 208 669 210 q 676 204 676 207 q 664 21 664 117 q 659 5 664 10 q 642 0 654 0 l 60 0 q 57 8 57 0 q 60 17 57 17 q 137 24 113 17 q 170 51 161 31 q 179 113 179 71 l 179 756 q 170 817 179 797 q 137 844 161 836 q 60 851 113 851 q 57 860 57 851 q 60 868 57 868 l 618 868 q 631 856 631 868 l 633 685 q 626 680 633 681 q 618 683 619 679 q 574 798 614 757 q 467 839 533 839 l 382 839 q 310 831 333 839 q 278 805 288 824 q 269 749 269 786 l 269 467 l 439 467 q 534 489 506 467 q 563 564 563 511 q 571 567 563 567 q 579 564 579 567 l 578 451 q 579 390 578 411 l 581 324 q 572 321 581 321 q 564 324 564 321 q 534 411 564 385 q 435 438 504 438 l 269 438 l 269 118 q 278 61 269 79 q 308 36 286 43 q 378 29 331 29 l 489 29 q 600 76 556 29 q 660 207 644 124 m 285 996 q 241 1011 257 996 q 225 1053 225 1026 q 241 1094 225 1079 q 285 1110 257 1110 q 327 1095 313 1110 q 342 1053 342 1081 q 327 1011 342 1026 q 285 996 313 996 m 528 996 q 484 1011 500 996 q 468 1053 468 1026 q 484 1094 468 1079 q 528 1110 500 1110 q 571 1095 556 1110 q 586 1053 586 1081 q 571 1010 586 1025 q 528 996 556 996 z "},"Ė":{"ha":746,"x_min":57,"x_max":676,"o":"m 660 207 q 665 210 660 210 q 673 208 669 210 q 676 204 676 207 q 664 21 664 117 q 659 5 664 10 q 642 0 654 0 l 60 0 q 57 8 57 0 q 60 17 57 17 q 137 24 113 17 q 170 51 161 31 q 179 113 179 71 l 179 756 q 170 817 179 797 q 137 844 161 836 q 60 851 113 851 q 57 860 57 851 q 60 868 57 868 l 618 868 q 631 856 631 868 l 633 685 q 626 680 633 681 q 618 683 619 679 q 574 798 614 757 q 467 839 533 839 l 382 839 q 310 831 333 839 q 278 805 288 824 q 269 749 269 786 l 269 467 l 439 467 q 534 489 506 467 q 563 564 563 511 q 571 567 563 567 q 579 564 579 567 l 578 451 q 579 390 578 411 l 581 324 q 572 321 581 321 q 564 324 564 321 q 534 411 564 385 q 435 438 504 438 l 269 438 l 269 118 q 278 61 269 79 q 308 36 286 43 q 378 29 331 29 l 489 29 q 600 76 556 29 q 660 207 644 124 m 406 990 q 360 1006 376 990 q 344 1050 344 1022 q 360 1093 344 1078 q 406 1108 376 1108 q 449 1093 433 1108 q 464 1050 464 1078 q 449 1006 464 1022 q 406 990 433 990 z "},"Ẹ":{"ha":746,"x_min":57,"x_max":676,"o":"m 660 207 q 665 210 660 210 q 673 208 669 210 q 676 204 676 207 q 664 21 664 117 q 659 5 664 10 q 642 0 654 0 l 60 0 q 57 8 57 0 q 60 17 57 17 q 137 24 113 17 q 170 51 161 31 q 179 113 179 71 l 179 756 q 170 817 179 797 q 137 844 161 836 q 60 851 113 851 q 57 860 57 851 q 60 868 57 868 l 618 868 q 631 856 631 868 l 633 685 q 626 680 633 681 q 618 683 619 679 q 574 798 614 757 q 467 839 533 839 l 382 839 q 310 831 333 839 q 278 805 288 824 q 269 749 269 786 l 269 467 l 439 467 q 534 489 506 467 q 563 564 563 511 q 571 567 563 567 q 579 564 579 567 l 578 451 q 579 390 578 411 l 581 324 q 572 321 581 321 q 564 324 564 321 q 534 411 564 385 q 435 438 504 438 l 269 438 l 269 118 q 278 61 269 79 q 308 36 286 43 q 378 29 331 29 l 489 29 q 600 76 556 29 q 660 207 644 124 m 400 -264 q 355 -249 371 -264 q 339 -206 339 -233 q 355 -162 339 -178 q 400 -147 371 -147 q 443 -162 428 -147 q 458 -206 458 -178 q 443 -249 458 -233 q 400 -264 428 -264 z "},"È":{"ha":746,"x_min":57,"x_max":676,"o":"m 660 207 q 665 210 660 210 q 673 208 669 210 q 676 204 676 207 q 664 21 664 117 q 659 5 664 10 q 642 0 654 0 l 60 0 q 57 8 57 0 q 60 17 57 17 q 137 24 113 17 q 170 51 161 31 q 179 113 179 71 l 179 756 q 170 817 179 797 q 137 844 161 836 q 60 851 113 851 q 57 860 57 851 q 60 868 57 868 l 618 868 q 631 856 631 868 l 633 685 q 626 680 633 681 q 618 683 619 679 q 574 798 614 757 q 467 839 533 839 l 382 839 q 310 831 333 839 q 278 805 288 824 q 269 749 269 786 l 269 467 l 439 467 q 534 489 506 467 q 563 564 563 511 q 571 567 563 567 q 579 564 579 567 l 578 451 q 579 390 578 411 l 581 324 q 572 321 581 321 q 564 324 564 321 q 534 411 564 385 q 435 438 504 438 l 269 438 l 269 118 q 278 61 269 79 q 308 36 286 43 q 378 29 331 29 l 489 29 q 600 76 556 29 q 660 207 644 124 m 543 943 q 233 1050 386 1013 q 244 1063 224 1051 q 291 1083 264 1074 q 324 1089 318 1092 l 364 1064 q 549 957 501 982 q 551 951 551 956 q 549 944 551 947 q 543 943 546 942 z "},"Ẻ":{"ha":746,"x_min":57,"x_max":676,"o":"m 660 207 q 665 210 660 210 q 673 208 669 210 q 676 204 676 207 q 664 21 664 117 q 659 5 664 10 q 642 0 654 0 l 60 0 q 57 8 57 0 q 60 17 57 17 q 137 24 113 17 q 170 51 161 31 q 179 113 179 71 l 179 756 q 170 817 179 797 q 137 844 161 836 q 60 851 113 851 q 57 860 57 851 q 60 868 57 868 l 618 868 q 631 856 631 868 l 633 685 q 626 680 633 681 q 618 683 619 679 q 574 798 614 757 q 467 839 533 839 l 382 839 q 310 831 333 839 q 278 805 288 824 q 269 749 269 786 l 269 467 l 439 467 q 534 489 506 467 q 563 564 563 511 q 571 567 563 567 q 579 564 579 567 l 578 451 q 579 390 578 411 l 581 324 q 572 321 581 321 q 564 324 564 321 q 534 411 564 385 q 435 438 504 438 l 269 438 l 269 118 q 278 61 269 79 q 308 36 286 43 q 378 29 331 29 l 489 29 q 600 76 556 29 q 660 207 644 124 m 410 904 q 402 901 410 901 q 393 904 394 901 q 389 933 389 919 q 397 973 389 954 q 419 1014 404 992 q 440 1053 433 1039 q 446 1083 446 1067 q 429 1124 446 1110 q 388 1139 413 1139 q 349 1129 368 1139 l 347 1129 q 339 1134 343 1129 q 339 1140 335 1139 q 429 1169 379 1169 q 494 1149 471 1169 q 518 1097 518 1128 q 503 1051 518 1072 q 461 1003 489 1031 q 422 958 435 976 q 408 918 408 939 q 410 904 408 908 z "},"Ē":{"ha":746,"x_min":57,"x_max":676,"o":"m 660 207 q 665 210 660 210 q 673 208 669 210 q 676 204 676 207 q 664 21 664 117 q 659 5 664 10 q 642 0 654 0 l 60 0 q 57 8 57 0 q 60 17 57 17 q 137 24 113 17 q 170 51 161 31 q 179 113 179 71 l 179 756 q 170 817 179 797 q 137 844 161 836 q 60 851 113 851 q 57 860 57 851 q 60 868 57 868 l 618 868 q 631 856 631 868 l 633 685 q 626 680 633 681 q 618 683 619 679 q 574 798 614 757 q 467 839 533 839 l 382 839 q 310 831 333 839 q 278 805 288 824 q 269 749 269 786 l 269 467 l 439 467 q 534 489 506 467 q 563 564 563 511 q 571 567 563 567 q 579 564 579 567 l 578 451 q 579 390 578 411 l 581 324 q 572 321 581 321 q 564 324 564 321 q 534 411 564 385 q 435 438 504 438 l 269 438 l 269 118 q 278 61 269 79 q 308 36 286 43 q 378 29 331 29 l 489 29 q 600 76 556 29 q 660 207 644 124 m 231 1003 q 222 1022 222 1003 q 231 1042 222 1042 l 579 1042 q 588 1022 588 1042 q 579 1003 588 1003 l 231 1003 z "},"Ę":{"ha":746,"x_min":57,"x_max":704,"o":"m 693 -308 q 701 -312 697 -308 q 700 -319 704 -317 q 550 -382 628 -382 q 435 -344 475 -382 q 394 -244 394 -307 q 550 0 394 -125 l 60 0 q 57 8 57 0 q 60 17 57 17 q 137 24 113 17 q 170 51 161 31 q 179 113 179 71 l 179 756 q 170 817 179 797 q 137 844 161 836 q 60 851 113 851 q 57 860 57 851 q 60 868 57 868 l 618 868 q 631 856 631 868 l 633 685 q 626 680 633 681 q 618 683 619 679 q 574 798 614 757 q 467 839 533 839 l 382 839 q 310 831 333 839 q 278 805 288 824 q 269 749 269 786 l 269 467 l 439 467 q 534 489 506 467 q 563 564 563 511 q 571 567 563 567 q 579 564 579 567 l 578 451 q 579 390 578 411 l 581 324 q 572 321 581 321 q 564 324 564 321 q 534 411 564 385 q 435 438 504 438 l 269 438 l 269 118 q 278 61 269 79 q 308 36 286 43 q 378 29 331 29 l 489 29 q 600 76 556 29 q 660 207 644 124 q 665 210 660 210 q 673 208 669 210 q 676 204 676 207 q 664 21 664 117 q 659 5 664 10 q 642 0 654 0 l 576 0 q 496 -98 521 -51 q 471 -199 471 -144 q 504 -303 471 -265 q 600 -340 538 -340 q 650 -332 629 -340 q 690 -308 671 -324 l 693 -308 z "},"Ẽ":{"ha":746,"x_min":57,"x_max":676,"o":"m 660 207 q 665 210 660 210 q 673 208 669 210 q 676 204 676 207 q 664 21 664 117 q 659 5 664 10 q 642 0 654 0 l 60 0 q 57 8 57 0 q 60 17 57 17 q 137 24 113 17 q 170 51 161 31 q 179 113 179 71 l 179 756 q 170 817 179 797 q 137 844 161 836 q 60 851 113 851 q 57 860 57 851 q 60 868 57 868 l 618 868 q 631 856 631 868 l 633 685 q 626 680 633 681 q 618 683 619 679 q 574 798 614 757 q 467 839 533 839 l 382 839 q 310 831 333 839 q 278 805 288 824 q 269 749 269 786 l 269 467 l 439 467 q 534 489 506 467 q 563 564 563 511 q 571 567 563 567 q 579 564 579 567 l 578 451 q 579 390 578 411 l 581 324 q 572 321 581 321 q 564 324 564 321 q 534 411 564 385 q 435 438 504 438 l 269 438 l 269 118 q 278 61 269 79 q 308 36 286 43 q 378 29 331 29 l 489 29 q 600 76 556 29 q 660 207 644 124 m 514 1031 q 552 1040 538 1031 q 582 1068 567 1050 l 585 1068 q 592 1065 589 1068 q 592 1058 594 1061 q 532 990 556 1007 q 482 972 508 972 q 397 989 453 972 q 301 1006 336 1006 q 267 999 279 1006 q 245 982 254 992 q 232 968 236 972 l 231 968 q 223 972 226 968 q 222 978 219 975 q 276 1038 244 1011 q 340 1065 308 1065 q 410 1050 364 1065 q 449 1040 417 1049 q 514 1031 482 1031 z "},"F":{"ha":707,"x_min":56,"x_max":633,"o":"m 633 685 q 626 680 633 681 q 618 683 619 679 q 574 798 614 757 q 467 839 533 839 l 382 839 q 311 832 335 839 q 278 807 288 825 q 269 754 269 789 l 269 450 l 410 450 q 515 473 483 450 q 546 547 546 496 q 554 550 546 550 q 563 547 563 550 l 561 435 q 563 374 561 394 l 564 307 q 556 304 564 304 q 547 307 547 304 q 515 394 547 368 q 406 421 482 421 l 269 421 l 269 118 q 281 53 269 74 q 328 25 293 33 q 438 17 363 17 q 442 8 442 17 q 438 0 442 0 q 349 1 381 0 l 224 3 l 129 1 q 58 0 104 0 q 56 8 56 0 q 58 17 56 17 q 136 24 111 17 q 170 51 161 31 q 179 113 179 71 l 179 756 q 170 817 179 797 q 137 844 161 836 q 60 851 113 851 q 57 860 57 851 q 60 868 57 868 l 618 868 q 631 856 631 868 l 633 685 z "},"G":{"ha":992,"x_min":68,"x_max":940,"o":"m 563 -17 q 299 42 411 -17 q 127 200 186 100 q 68 424 68 300 q 137 663 68 558 q 326 825 206 767 q 597 883 446 883 q 727 870 665 883 q 828 833 789 857 q 841 822 839 826 q 844 801 843 817 l 861 646 q 853 641 861 642 q 844 644 846 640 q 734 799 814 744 q 538 853 654 853 q 267 751 363 853 q 171 474 171 650 q 226 233 171 339 q 378 67 281 126 q 596 7 475 7 q 706 19 667 7 q 763 68 744 32 q 781 175 781 104 q 772 276 781 247 q 731 314 763 304 q 624 324 700 324 q 615 335 615 324 q 617 342 615 339 q 622 346 619 346 q 797 339 731 339 q 933 343 863 339 q 938 340 936 343 q 940 333 940 336 q 933 324 940 324 q 886 315 900 325 q 868 272 872 304 q 864 161 864 240 q 869 72 864 99 q 874 39 874 46 q 871 28 874 31 q 858 22 868 25 q 563 -17 690 -17 z "},"Ğ":{"ha":992,"x_min":68,"x_max":940,"o":"m 563 -17 q 299 42 411 -17 q 127 200 186 100 q 68 424 68 300 q 137 663 68 558 q 326 825 206 767 q 597 883 446 883 q 727 870 665 883 q 828 833 789 857 q 841 822 839 826 q 844 801 843 817 l 861 646 q 853 641 861 642 q 844 644 846 640 q 734 799 814 744 q 538 853 654 853 q 267 751 363 853 q 171 474 171 650 q 226 233 171 339 q 378 67 281 126 q 596 7 475 7 q 706 19 667 7 q 763 68 744 32 q 781 175 781 104 q 772 276 781 247 q 731 314 763 304 q 624 324 700 324 q 615 335 615 324 q 617 342 615 339 q 622 346 619 346 q 797 339 731 339 q 933 343 863 339 q 938 340 936 343 q 940 333 940 336 q 933 324 940 324 q 886 315 900 325 q 868 272 872 304 q 864 161 864 240 q 869 72 864 99 q 874 39 874 46 q 871 28 874 31 q 858 22 868 25 q 563 -17 690 -17 m 547 958 q 452 997 489 958 q 404 1107 415 1036 q 410 1113 403 1113 q 419 1111 417 1114 q 466 1046 429 1074 q 547 1018 503 1018 q 627 1046 590 1018 q 674 1111 664 1074 q 679 1114 674 1114 q 687 1112 683 1114 q 689 1107 690 1110 q 642 997 678 1035 q 547 958 606 958 z "},"Ǧ":{"ha":992,"x_min":68,"x_max":940,"o":"m 563 -17 q 299 42 411 -17 q 127 200 186 100 q 68 424 68 300 q 137 663 68 558 q 326 825 206 767 q 597 883 446 883 q 727 870 665 883 q 828 833 789 857 q 841 822 839 826 q 844 801 843 817 l 861 646 q 853 641 861 642 q 844 644 846 640 q 734 799 814 744 q 538 853 654 853 q 267 751 363 853 q 171 474 171 650 q 226 233 171 339 q 378 67 281 126 q 596 7 475 7 q 706 19 667 7 q 763 68 744 32 q 781 175 781 104 q 772 276 781 247 q 731 314 763 304 q 624 324 700 324 q 615 335 615 324 q 617 342 615 339 q 622 346 619 346 q 797 339 731 339 q 933 343 863 339 q 938 340 936 343 q 940 333 940 336 q 933 324 940 324 q 886 315 900 325 q 868 272 872 304 q 864 161 864 240 q 869 72 864 99 q 874 39 874 46 q 871 28 874 31 q 858 22 868 25 q 563 -17 690 -17 m 388 1089 q 386 1090 386 1089 q 386 1090 386 1090 q 390 1097 386 1093 q 396 1099 393 1100 l 547 1019 l 697 1099 l 699 1099 q 706 1094 703 1099 q 704 1089 708 1090 l 563 954 q 547 949 557 949 q 531 954 536 949 l 388 1089 z "},"Ĝ":{"ha":992,"x_min":68,"x_max":940,"o":"m 563 -17 q 299 42 411 -17 q 127 200 186 100 q 68 424 68 300 q 137 663 68 558 q 326 825 206 767 q 597 883 446 883 q 727 870 665 883 q 828 833 789 857 q 841 822 839 826 q 844 801 843 817 l 861 646 q 853 641 861 642 q 844 644 846 640 q 734 799 814 744 q 538 853 654 853 q 267 751 363 853 q 171 474 171 650 q 226 233 171 339 q 378 67 281 126 q 596 7 475 7 q 706 19 667 7 q 763 68 744 32 q 781 175 781 104 q 772 276 781 247 q 731 314 763 304 q 624 324 700 324 q 615 335 615 324 q 617 342 615 339 q 622 346 619 346 q 797 339 731 339 q 933 343 863 339 q 938 340 936 343 q 940 333 940 336 q 933 324 940 324 q 886 315 900 325 q 868 272 872 304 q 864 161 864 240 q 869 72 864 99 q 874 39 874 46 q 871 28 874 31 q 858 22 868 25 q 563 -17 690 -17 m 532 1097 q 549 1104 539 1104 q 564 1097 557 1104 l 706 961 q 707 958 707 961 q 703 953 707 956 q 699 951 700 950 l 549 1032 l 397 951 q 390 955 394 950 q 389 961 386 960 l 532 1097 z "},"Ģ":{"ha":992,"x_min":68,"x_max":940,"o":"m 563 -17 q 299 42 411 -17 q 127 200 186 100 q 68 424 68 300 q 137 663 68 558 q 326 825 206 767 q 597 883 446 883 q 727 870 665 883 q 828 833 789 857 q 841 822 839 826 q 844 801 843 817 l 861 646 q 853 641 861 642 q 844 644 846 640 q 734 799 814 744 q 538 853 654 853 q 267 751 363 853 q 171 474 171 650 q 226 233 171 339 q 378 67 281 126 q 596 7 475 7 q 706 19 667 7 q 763 68 744 32 q 781 175 781 104 q 772 276 781 247 q 731 314 763 304 q 624 324 700 324 q 615 335 615 324 q 617 342 615 339 q 622 346 619 346 q 797 339 731 339 q 933 343 863 339 q 938 340 936 343 q 940 333 940 336 q 933 324 940 324 q 886 315 900 325 q 868 272 872 304 q 864 161 864 240 q 869 72 864 99 q 874 39 874 46 q 871 28 874 31 q 858 22 868 25 q 563 -17 690 -17 m 571 -118 q 630 -144 610 -118 q 650 -219 650 -171 q 628 -305 650 -265 q 565 -382 607 -344 q 561 -383 564 -383 q 554 -378 557 -383 q 554 -371 551 -374 q 615 -247 615 -318 q 607 -207 615 -219 q 565 -228 596 -228 q 526 -212 540 -228 q 511 -174 511 -197 q 571 -118 511 -118 z "},"Ġ":{"ha":992,"x_min":68,"x_max":940,"o":"m 563 -17 q 299 42 411 -17 q 127 200 186 100 q 68 424 68 300 q 137 663 68 558 q 326 825 206 767 q 597 883 446 883 q 727 870 665 883 q 828 833 789 857 q 841 822 839 826 q 844 801 843 817 l 861 646 q 853 641 861 642 q 844 644 846 640 q 734 799 814 744 q 538 853 654 853 q 267 751 363 853 q 171 474 171 650 q 226 233 171 339 q 378 67 281 126 q 596 7 475 7 q 706 19 667 7 q 763 68 744 32 q 781 175 781 104 q 772 276 781 247 q 731 314 763 304 q 624 324 700 324 q 615 335 615 324 q 617 342 615 339 q 622 346 619 346 q 797 339 731 339 q 933 343 863 339 q 938 340 936 343 q 940 333 940 336 q 933 324 940 324 q 886 315 900 325 q 868 272 872 304 q 864 161 864 240 q 869 72 864 99 q 874 39 874 46 q 871 28 874 31 q 858 22 868 25 q 563 -17 690 -17 m 547 990 q 502 1006 518 990 q 486 1050 486 1022 q 502 1093 486 1078 q 547 1108 518 1108 q 590 1093 575 1108 q 606 1050 606 1078 q 590 1006 606 1022 q 547 990 575 990 z "},"Ḡ":{"ha":992,"x_min":68,"x_max":940,"o":"m 563 -17 q 299 42 411 -17 q 127 200 186 100 q 68 424 68 300 q 137 663 68 558 q 326 825 206 767 q 597 883 446 883 q 727 870 665 883 q 828 833 789 857 q 841 822 839 826 q 844 801 843 817 l 861 646 q 853 641 861 642 q 844 644 846 640 q 734 799 814 744 q 538 853 654 853 q 267 751 363 853 q 171 474 171 650 q 226 233 171 339 q 378 67 281 126 q 596 7 475 7 q 706 19 667 7 q 763 68 744 32 q 781 175 781 104 q 772 276 781 247 q 731 314 763 304 q 624 324 700 324 q 615 335 615 324 q 617 342 615 339 q 622 346 619 346 q 797 339 731 339 q 933 343 863 339 q 938 340 936 343 q 940 333 940 336 q 933 324 940 324 q 886 315 900 325 q 868 272 872 304 q 864 161 864 240 q 869 72 864 99 q 874 39 874 46 q 871 28 874 31 q 858 22 868 25 q 563 -17 690 -17 m 372 1003 q 364 1022 364 1003 q 372 1042 364 1042 l 721 1042 q 729 1022 729 1042 q 721 1003 729 1003 l 372 1003 z "},"H":{"ha":1054,"x_min":46,"x_max":1007,"o":"m 1003 17 q 1007 8 1007 17 q 1003 0 1007 0 q 935 1 960 0 l 839 3 l 738 1 q 671 0 713 0 q 667 8 667 0 q 671 17 667 17 q 750 24 725 17 q 784 51 775 31 q 793 113 793 71 l 793 438 l 260 438 l 260 113 q 269 51 260 71 q 303 24 278 31 q 382 17 328 17 q 385 8 385 17 q 382 0 385 0 q 314 1 339 0 l 214 3 l 118 1 q 49 0 93 0 q 46 8 46 0 q 49 17 46 17 q 127 24 101 17 q 162 51 153 31 q 171 113 171 71 l 171 756 q 162 817 171 797 q 128 844 153 836 q 50 851 103 851 q 47 860 47 851 q 50 868 47 868 l 121 867 q 214 864 179 864 q 315 867 254 864 l 382 868 q 385 860 385 868 q 382 851 385 851 q 303 843 329 851 q 269 815 278 835 q 260 753 260 794 l 260 467 l 793 467 l 793 753 q 784 815 793 794 q 750 843 775 835 q 671 851 725 851 q 667 860 667 851 q 671 868 667 868 l 738 867 q 839 864 799 864 q 935 867 876 864 l 1003 868 q 1007 860 1007 868 q 1003 851 1007 851 q 925 844 950 851 q 891 817 900 836 q 882 756 882 797 l 882 113 q 891 51 882 71 q 925 24 900 31 q 1003 17 950 17 z "},"Ħ":{"ha":1054,"x_min":46,"x_max":1007,"o":"m 1003 17 q 1007 8 1007 17 q 1003 0 1007 0 q 935 1 960 0 l 839 3 l 738 1 q 671 0 713 0 q 667 8 667 0 q 671 17 667 17 q 750 24 725 17 q 784 51 775 31 q 793 113 793 71 l 793 307 l 260 307 l 260 113 q 269 51 260 71 q 303 24 278 31 q 382 17 328 17 q 385 8 385 17 q 382 0 385 0 q 314 1 339 0 l 214 3 l 118 1 q 49 0 93 0 q 46 8 46 0 q 49 17 46 17 q 127 24 101 17 q 162 51 153 31 q 171 113 171 71 l 171 756 q 162 817 171 797 q 128 844 153 836 q 50 851 103 851 q 47 860 47 851 q 50 868 47 868 l 121 867 q 214 864 179 864 q 315 867 254 864 l 382 868 q 385 860 385 868 q 382 851 385 851 q 303 843 329 851 q 269 815 278 835 q 260 753 260 794 l 260 596 l 793 596 l 793 753 q 784 815 793 794 q 750 843 775 835 q 671 851 725 851 q 667 860 667 851 q 671 868 667 868 l 738 867 q 839 864 799 864 q 935 867 876 864 l 1003 868 q 1007 860 1007 868 q 1003 851 1007 851 q 925 844 950 851 q 891 817 900 836 q 882 756 882 797 l 882 113 q 891 51 882 71 q 925 24 900 31 q 1003 17 950 17 m 260 336 l 793 336 l 793 567 l 260 567 l 260 336 z "},"Ḫ":{"ha":1054,"x_min":46,"x_max":1007,"o":"m 1003 17 q 1007 8 1007 17 q 1003 0 1007 0 q 935 1 960 0 l 839 3 l 738 1 q 671 0 713 0 q 667 8 667 0 q 671 17 667 17 q 750 24 725 17 q 784 51 775 31 q 793 113 793 71 l 793 438 l 260 438 l 260 113 q 269 51 260 71 q 303 24 278 31 q 382 17 328 17 q 385 8 385 17 q 382 0 385 0 q 314 1 339 0 l 214 3 l 118 1 q 49 0 93 0 q 46 8 46 0 q 49 17 46 17 q 127 24 101 17 q 162 51 153 31 q 171 113 171 71 l 171 756 q 162 817 171 797 q 128 844 153 836 q 50 851 103 851 q 47 860 47 851 q 50 868 47 868 l 121 867 q 214 864 179 864 q 315 867 254 864 l 382 868 q 385 860 385 868 q 382 851 385 851 q 303 843 329 851 q 269 815 278 835 q 260 753 260 794 l 260 467 l 793 467 l 793 753 q 784 815 793 794 q 750 843 775 835 q 671 851 725 851 q 667 860 667 851 q 671 868 667 868 l 738 867 q 839 864 799 864 q 935 867 876 864 l 1003 868 q 1007 860 1007 868 q 1003 851 1007 851 q 925 844 950 851 q 891 817 900 836 q 882 756 882 797 l 882 113 q 891 51 882 71 q 925 24 900 31 q 1003 17 950 17 m 385 -110 q 392 -104 385 -106 q 400 -106 400 -103 q 436 -208 400 -167 q 528 -249 472 -249 q 617 -207 581 -249 q 654 -106 654 -165 q 658 -103 654 -103 q 666 -105 663 -103 q 669 -110 669 -107 q 633 -265 669 -212 q 528 -318 597 -318 q 422 -265 458 -318 q 385 -110 385 -211 z "},"Ĥ":{"ha":1054,"x_min":46,"x_max":1007,"o":"m 1003 17 q 1007 8 1007 17 q 1003 0 1007 0 q 935 1 960 0 l 839 3 l 738 1 q 671 0 713 0 q 667 8 667 0 q 671 17 667 17 q 750 24 725 17 q 784 51 775 31 q 793 113 793 71 l 793 438 l 260 438 l 260 113 q 269 51 260 71 q 303 24 278 31 q 382 17 328 17 q 385 8 385 17 q 382 0 385 0 q 314 1 339 0 l 214 3 l 118 1 q 49 0 93 0 q 46 8 46 0 q 49 17 46 17 q 127 24 101 17 q 162 51 153 31 q 171 113 171 71 l 171 756 q 162 817 171 797 q 128 844 153 836 q 50 851 103 851 q 47 860 47 851 q 50 868 47 868 l 121 867 q 214 864 179 864 q 315 867 254 864 l 382 868 q 385 860 385 868 q 382 851 385 851 q 303 843 329 851 q 269 815 278 835 q 260 753 260 794 l 260 467 l 793 467 l 793 753 q 784 815 793 794 q 750 843 775 835 q 671 851 725 851 q 667 860 667 851 q 671 868 667 868 l 738 867 q 839 864 799 864 q 935 867 876 864 l 1003 868 q 1007 860 1007 868 q 1003 851 1007 851 q 925 844 950 851 q 891 817 900 836 q 882 756 882 797 l 882 113 q 891 51 882 71 q 925 24 900 31 q 1003 17 950 17 m 513 1097 q 529 1104 519 1104 q 544 1097 538 1104 l 686 961 q 688 958 688 961 q 684 953 688 956 q 679 951 681 950 l 529 1032 l 378 951 q 371 955 375 950 q 369 961 367 960 l 513 1097 z "},"Ḥ":{"ha":1054,"x_min":46,"x_max":1007,"o":"m 1003 17 q 1007 8 1007 17 q 1003 0 1007 0 q 935 1 960 0 l 839 3 l 738 1 q 671 0 713 0 q 667 8 667 0 q 671 17 667 17 q 750 24 725 17 q 784 51 775 31 q 793 113 793 71 l 793 438 l 260 438 l 260 113 q 269 51 260 71 q 303 24 278 31 q 382 17 328 17 q 385 8 385 17 q 382 0 385 0 q 314 1 339 0 l 214 3 l 118 1 q 49 0 93 0 q 46 8 46 0 q 49 17 46 17 q 127 24 101 17 q 162 51 153 31 q 171 113 171 71 l 171 756 q 162 817 171 797 q 128 844 153 836 q 50 851 103 851 q 47 860 47 851 q 50 868 47 868 l 121 867 q 214 864 179 864 q 315 867 254 864 l 382 868 q 385 860 385 868 q 382 851 385 851 q 303 843 329 851 q 269 815 278 835 q 260 753 260 794 l 260 467 l 793 467 l 793 753 q 784 815 793 794 q 750 843 775 835 q 671 851 725 851 q 667 860 667 851 q 671 868 667 868 l 738 867 q 839 864 799 864 q 935 867 876 864 l 1003 868 q 1007 860 1007 868 q 1003 851 1007 851 q 925 844 950 851 q 891 817 900 836 q 882 756 882 797 l 882 113 q 891 51 882 71 q 925 24 900 31 q 1003 17 950 17 m 529 -264 q 484 -249 500 -264 q 468 -206 468 -233 q 484 -162 468 -178 q 529 -147 500 -147 q 572 -162 557 -147 q 588 -206 588 -178 q 572 -249 588 -233 q 529 -264 557 -264 z "},"I":{"ha":461,"x_min":61,"x_max":399,"o":"m 276 113 q 285 51 276 71 q 317 24 293 31 q 394 17 342 17 q 399 8 399 17 q 394 0 399 0 q 328 1 353 0 l 229 3 l 133 1 q 65 0 108 0 q 61 8 61 0 q 65 17 61 17 q 142 24 118 17 q 176 51 167 31 q 185 113 185 71 l 185 756 q 176 817 185 797 q 142 844 167 836 q 65 851 118 851 q 61 860 61 851 q 65 868 61 868 l 133 867 q 229 864 192 864 q 329 867 271 864 l 394 868 q 399 860 399 868 q 394 851 399 851 q 319 843 343 851 q 285 815 294 835 q 276 753 276 794 l 276 113 z "},"Ĳ":{"ha":958,"x_min":56,"x_max":915,"o":"m 269 486 q 278 424 269 443 q 310 397 286 404 q 389 390 335 390 q 392 382 392 390 q 389 374 392 374 q 321 375 346 374 l 222 376 l 129 375 q 58 374 103 374 q 56 382 56 374 q 58 390 56 390 q 135 397 111 390 q 169 424 160 404 q 178 486 178 444 l 178 756 q 169 817 178 797 q 135 844 160 836 q 58 851 111 851 q 56 860 56 851 q 58 868 56 868 l 129 867 q 222 864 188 864 q 324 867 263 864 l 389 868 q 392 860 392 868 q 389 851 392 851 q 313 843 338 851 q 278 815 288 835 q 269 753 269 794 l 269 486 m 911 868 q 915 860 915 868 q 911 851 915 851 q 845 843 867 851 q 816 815 824 835 q 808 753 808 794 l 808 358 q 767 154 808 239 q 650 26 725 69 q 476 -18 575 -18 q 319 13 390 -18 q 206 92 247 44 q 165 188 165 140 q 178 224 165 211 q 213 238 190 238 q 255 218 243 238 q 278 156 267 199 q 303 78 289 108 q 358 25 318 47 q 469 3 397 3 q 658 75 597 3 q 718 278 718 147 l 718 756 q 708 817 718 797 q 669 844 697 836 q 582 851 642 851 q 578 860 578 851 q 582 868 578 868 l 663 867 q 761 864 724 864 q 851 867 799 864 l 911 868 z "},"Í":{"ha":461,"x_min":61,"x_max":407,"o":"m 276 113 q 285 51 276 71 q 317 24 293 31 q 394 17 342 17 q 399 8 399 17 q 394 0 399 0 q 328 1 353 0 l 229 3 l 133 1 q 65 0 108 0 q 61 8 61 0 q 65 17 61 17 q 142 24 118 17 q 176 51 167 31 q 185 113 185 71 l 185 756 q 176 817 185 797 q 142 844 167 836 q 65 851 118 851 q 61 860 61 851 q 65 868 61 868 l 133 867 q 229 864 192 864 q 329 867 271 864 l 394 868 q 399 860 399 868 q 394 851 399 851 q 319 843 343 851 q 285 815 294 835 q 276 753 276 794 l 276 113 m 93 942 q 86 948 88 942 q 89 957 85 954 q 240 1043 135 982 q 284 1071 265 1060 q 315 1089 303 1082 q 348 1083 321 1092 q 394 1063 375 1074 q 404 1050 414 1051 q 247 1003 318 1029 q 96 943 175 978 l 93 942 z "},"Ĭ":{"ha":461,"x_min":61,"x_max":399,"o":"m 276 113 q 285 51 276 71 q 317 24 293 31 q 394 17 342 17 q 399 8 399 17 q 394 0 399 0 q 328 1 353 0 l 229 3 l 133 1 q 65 0 108 0 q 61 8 61 0 q 65 17 61 17 q 142 24 118 17 q 176 51 167 31 q 185 113 185 71 l 185 756 q 176 817 185 797 q 142 844 167 836 q 65 851 118 851 q 61 860 61 851 q 65 868 61 868 l 133 867 q 229 864 192 864 q 329 867 271 864 l 394 868 q 399 860 399 868 q 394 851 399 851 q 319 843 343 851 q 285 815 294 835 q 276 753 276 794 l 276 113 m 231 958 q 135 997 172 958 q 88 1107 99 1036 q 93 1113 86 1113 q 103 1111 100 1114 q 149 1046 113 1074 q 231 1018 186 1018 q 310 1046 274 1018 q 357 1111 347 1074 q 363 1114 357 1114 q 370 1112 367 1114 q 372 1107 374 1110 q 325 997 361 1035 q 231 958 289 958 z "},"Ǐ":{"ha":461,"x_min":61,"x_max":399,"o":"m 276 113 q 285 51 276 71 q 317 24 293 31 q 394 17 342 17 q 399 8 399 17 q 394 0 399 0 q 328 1 353 0 l 229 3 l 133 1 q 65 0 108 0 q 61 8 61 0 q 65 17 61 17 q 142 24 118 17 q 176 51 167 31 q 185 113 185 71 l 185 756 q 176 817 185 797 q 142 844 167 836 q 65 851 118 851 q 61 860 61 851 q 65 868 61 868 l 133 867 q 229 864 192 864 q 329 867 271 864 l 394 868 q 399 860 399 868 q 394 851 399 851 q 319 843 343 851 q 285 815 294 835 q 276 753 276 794 l 276 113 m 71 1089 q 69 1090 69 1089 q 69 1090 69 1090 q 73 1097 69 1093 q 79 1099 76 1100 l 231 1019 l 381 1099 l 382 1099 q 389 1094 386 1099 q 388 1089 392 1090 l 246 954 q 231 949 240 949 q 214 954 219 949 l 71 1089 z "},"Î":{"ha":461,"x_min":61,"x_max":399,"o":"m 276 113 q 285 51 276 71 q 317 24 293 31 q 394 17 342 17 q 399 8 399 17 q 394 0 399 0 q 328 1 353 0 l 229 3 l 133 1 q 65 0 108 0 q 61 8 61 0 q 65 17 61 17 q 142 24 118 17 q 176 51 167 31 q 185 113 185 71 l 185 756 q 176 817 185 797 q 142 844 167 836 q 65 851 118 851 q 61 860 61 851 q 65 868 61 868 l 133 867 q 229 864 192 864 q 329 867 271 864 l 394 868 q 399 860 399 868 q 394 851 399 851 q 319 843 343 851 q 285 815 294 835 q 276 753 276 794 l 276 113 m 215 1097 q 232 1104 222 1104 q 247 1097 240 1104 l 389 961 q 390 958 390 961 q 387 953 390 956 q 382 951 383 950 l 232 1032 l 81 951 q 74 955 78 950 q 72 961 69 960 l 215 1097 z "},"Ï":{"ha":461,"x_min":61,"x_max":399,"o":"m 276 113 q 285 51 276 71 q 317 24 293 31 q 394 17 342 17 q 399 8 399 17 q 394 0 399 0 q 328 1 353 0 l 229 3 l 133 1 q 65 0 108 0 q 61 8 61 0 q 65 17 61 17 q 142 24 118 17 q 176 51 167 31 q 185 113 185 71 l 185 756 q 176 817 185 797 q 142 844 167 836 q 65 851 118 851 q 61 860 61 851 q 65 868 61 868 l 133 867 q 229 864 192 864 q 329 867 271 864 l 394 868 q 399 860 399 868 q 394 851 399 851 q 319 843 343 851 q 285 815 294 835 q 276 753 276 794 l 276 113 m 132 996 q 88 1011 104 996 q 72 1053 72 1026 q 88 1094 72 1079 q 132 1110 104 1110 q 175 1094 160 1110 q 190 1053 190 1079 q 175 1011 190 1026 q 132 996 160 996 m 331 996 q 287 1011 303 996 q 271 1053 271 1026 q 287 1094 271 1079 q 331 1110 303 1110 q 373 1095 358 1110 q 388 1053 388 1081 q 373 1011 388 1026 q 331 996 358 996 z "},"İ":{"ha":461,"x_min":61,"x_max":399,"o":"m 276 113 q 285 51 276 71 q 317 24 293 31 q 394 17 342 17 q 399 8 399 17 q 394 0 399 0 q 328 1 353 0 l 229 3 l 133 1 q 65 0 108 0 q 61 8 61 0 q 65 17 61 17 q 142 24 118 17 q 176 51 167 31 q 185 113 185 71 l 185 756 q 176 817 185 797 q 142 844 167 836 q 65 851 118 851 q 61 860 61 851 q 65 868 61 868 l 133 867 q 229 864 192 864 q 329 867 271 864 l 394 868 q 399 860 399 868 q 394 851 399 851 q 319 843 343 851 q 285 815 294 835 q 276 753 276 794 l 276 113 m 231 990 q 185 1006 201 990 q 169 1050 169 1022 q 185 1093 169 1078 q 231 1108 201 1108 q 274 1093 258 1108 q 289 1050 289 1078 q 274 1006 289 1022 q 231 990 258 990 z "},"Ị":{"ha":461,"x_min":61,"x_max":399,"o":"m 276 113 q 285 51 276 71 q 317 24 293 31 q 394 17 342 17 q 399 8 399 17 q 394 0 399 0 q 328 1 353 0 l 229 3 l 133 1 q 65 0 108 0 q 61 8 61 0 q 65 17 61 17 q 142 24 118 17 q 176 51 167 31 q 185 113 185 71 l 185 756 q 176 817 185 797 q 142 844 167 836 q 65 851 118 851 q 61 860 61 851 q 65 868 61 868 l 133 867 q 229 864 192 864 q 329 867 271 864 l 394 868 q 399 860 399 868 q 394 851 399 851 q 319 843 343 851 q 285 815 294 835 q 276 753 276 794 l 276 113 m 232 -264 q 187 -249 203 -264 q 171 -206 171 -233 q 187 -162 171 -178 q 232 -147 203 -147 q 275 -162 260 -147 q 290 -206 290 -178 q 275 -249 290 -233 q 232 -264 260 -264 z "},"Ì":{"ha":461,"x_min":56,"x_max":399,"o":"m 276 113 q 285 51 276 71 q 317 24 293 31 q 394 17 342 17 q 399 8 399 17 q 394 0 399 0 q 328 1 353 0 l 229 3 l 133 1 q 65 0 108 0 q 61 8 61 0 q 65 17 61 17 q 142 24 118 17 q 176 51 167 31 q 185 113 185 71 l 185 756 q 176 817 185 797 q 142 844 167 836 q 65 851 118 851 q 61 860 61 851 q 65 868 61 868 l 133 867 q 229 864 192 864 q 329 867 271 864 l 394 868 q 399 860 399 868 q 394 851 399 851 q 319 843 343 851 q 285 815 294 835 q 276 753 276 794 l 276 113 m 368 943 q 58 1050 211 1013 q 69 1063 49 1051 q 116 1083 89 1074 q 149 1089 143 1092 l 189 1064 q 374 957 326 982 q 376 951 376 956 q 374 944 376 947 q 368 943 371 942 z "},"Ỉ":{"ha":461,"x_min":61,"x_max":399,"o":"m 276 113 q 285 51 276 71 q 317 24 293 31 q 394 17 342 17 q 399 8 399 17 q 394 0 399 0 q 328 1 353 0 l 229 3 l 133 1 q 65 0 108 0 q 61 8 61 0 q 65 17 61 17 q 142 24 118 17 q 176 51 167 31 q 185 113 185 71 l 185 756 q 176 817 185 797 q 142 844 167 836 q 65 851 118 851 q 61 860 61 851 q 65 868 61 868 l 133 867 q 229 864 192 864 q 329 867 271 864 l 394 868 q 399 860 399 868 q 394 851 399 851 q 319 843 343 851 q 285 815 294 835 q 276 753 276 794 l 276 113 m 235 904 q 227 901 235 901 q 218 904 219 901 q 214 933 214 919 q 222 973 214 954 q 244 1014 229 992 q 265 1053 258 1039 q 271 1083 271 1067 q 254 1124 271 1110 q 213 1139 238 1139 q 174 1129 193 1139 l 172 1129 q 164 1134 168 1129 q 164 1140 160 1139 q 254 1169 204 1169 q 319 1149 296 1169 q 343 1097 343 1128 q 328 1051 343 1072 q 286 1003 314 1031 q 247 958 260 976 q 233 918 233 939 q 235 904 233 908 z "},"Ī":{"ha":461,"x_min":47,"x_max":413,"o":"m 276 113 q 285 51 276 71 q 317 24 293 31 q 394 17 342 17 q 399 8 399 17 q 394 0 399 0 q 328 1 353 0 l 229 3 l 133 1 q 65 0 108 0 q 61 8 61 0 q 65 17 61 17 q 142 24 118 17 q 176 51 167 31 q 185 113 185 71 l 185 756 q 176 817 185 797 q 142 844 167 836 q 65 851 118 851 q 61 860 61 851 q 65 868 61 868 l 133 867 q 229 864 192 864 q 329 867 271 864 l 394 868 q 399 860 399 868 q 394 851 399 851 q 319 843 343 851 q 285 815 294 835 q 276 753 276 794 l 276 113 m 56 1003 q 47 1022 47 1003 q 56 1042 47 1042 l 404 1042 q 413 1022 413 1042 q 404 1003 413 1003 l 56 1003 z "},"Į":{"ha":461,"x_min":61,"x_max":399,"o":"m 394 17 q 399 8 399 17 q 394 0 399 0 q 333 1 356 0 l 243 3 q 175 -192 175 -87 q 206 -299 175 -258 q 292 -339 238 -339 q 329 -332 315 -339 q 364 -308 343 -325 l 365 -308 q 373 -312 369 -308 q 374 -319 376 -317 q 308 -367 339 -353 q 240 -382 278 -382 q 136 -345 174 -382 q 99 -246 99 -308 q 221 3 99 -124 l 131 1 q 65 0 107 0 q 61 8 61 0 q 65 17 61 17 q 142 24 118 17 q 176 51 167 31 q 185 113 185 71 l 185 756 q 176 817 185 797 q 142 844 167 836 q 65 851 118 851 q 61 860 61 851 q 65 868 61 868 l 133 867 q 229 864 192 864 q 329 867 271 864 l 394 868 q 399 860 399 868 q 394 851 399 851 q 319 843 343 851 q 285 815 294 835 q 276 753 276 794 l 276 113 q 285 51 276 71 q 317 24 293 31 q 394 17 342 17 z "},"Ĩ":{"ha":461,"x_min":46,"x_max":417,"o":"m 276 113 q 285 51 276 71 q 317 24 293 31 q 394 17 342 17 q 399 8 399 17 q 394 0 399 0 q 328 1 353 0 l 229 3 l 133 1 q 65 0 108 0 q 61 8 61 0 q 65 17 61 17 q 142 24 118 17 q 176 51 167 31 q 185 113 185 71 l 185 756 q 176 817 185 797 q 142 844 167 836 q 65 851 118 851 q 61 860 61 851 q 65 868 61 868 l 133 867 q 229 864 192 864 q 329 867 271 864 l 394 868 q 399 860 399 868 q 394 851 399 851 q 319 843 343 851 q 285 815 294 835 q 276 753 276 794 l 276 113 m 54 968 q 48 972 51 968 q 46 978 44 975 q 100 1038 68 1011 q 164 1065 132 1065 q 235 1050 189 1065 q 338 1031 299 1031 q 376 1040 363 1031 q 407 1068 390 1049 l 408 1068 q 415 1065 413 1068 q 417 1058 418 1061 q 356 990 379 1007 q 307 972 333 972 q 221 989 276 972 q 125 1006 163 1006 q 90 999 103 1006 q 69 982 78 992 q 56 968 60 972 l 54 968 z "},"J":{"ha":447,"x_min":-64,"x_max":392,"o":"m 389 868 q 392 860 392 868 q 389 851 392 851 q 322 843 343 851 q 294 815 301 835 q 286 753 286 794 l 286 -39 q 222 -258 286 -176 q 38 -339 158 -339 q -37 -323 -10 -339 q -64 -279 -64 -307 q -51 -246 -64 -258 q -17 -233 -39 -233 q 19 -244 7 -233 q 46 -275 32 -254 q 68 -303 58 -294 q 96 -311 78 -311 q 170 -253 146 -311 q 194 -68 194 -196 l 194 756 q 185 817 194 797 q 147 844 175 836 q 58 851 118 851 q 56 860 56 851 q 58 868 56 868 l 139 867 q 239 864 203 864 q 328 867 275 864 l 389 868 z "},"Ĵ":{"ha":447,"x_min":-64,"x_max":392,"o":"m 389 868 q 392 860 392 868 q 389 851 392 851 q 322 843 343 851 q 294 815 301 835 q 286 753 286 794 l 286 -39 q 222 -258 286 -176 q 38 -339 158 -339 q -37 -323 -10 -339 q -64 -279 -64 -307 q -51 -246 -64 -258 q -17 -233 -39 -233 q 19 -244 7 -233 q 46 -275 32 -254 q 68 -303 58 -294 q 96 -311 78 -311 q 170 -253 146 -311 q 194 -68 194 -196 l 194 756 q 185 817 194 797 q 147 844 175 836 q 58 851 118 851 q 56 860 56 851 q 58 868 56 868 l 139 867 q 239 864 203 864 q 328 867 275 864 l 389 868 m 211 1110 q 228 1117 218 1117 q 243 1110 236 1117 l 385 974 q 386 971 386 974 q 383 965 386 968 q 378 964 379 963 l 228 1044 l 76 964 q 69 967 74 963 q 68 974 65 972 l 211 1110 z "},"K":{"ha":903,"x_min":46,"x_max":894,"o":"m 890 17 q 894 8 894 17 q 890 0 894 0 l 735 0 q 695 -1 724 0 q 615 70 667 -1 q 517 201 564 142 l 304 469 l 258 425 l 258 113 q 267 51 258 71 q 299 24 275 31 q 376 17 324 17 q 381 8 381 17 q 376 0 381 0 q 310 1 335 0 l 213 3 l 118 1 q 49 0 93 0 q 46 8 46 0 q 49 17 46 17 q 126 24 101 17 q 159 51 150 31 q 168 113 168 71 l 168 756 q 160 817 168 797 q 127 844 151 836 q 50 851 103 851 q 47 860 47 851 q 50 868 47 868 l 119 867 q 213 864 178 864 q 311 867 253 864 l 376 868 q 381 860 381 868 q 376 851 381 851 q 301 843 325 851 q 267 815 276 835 q 258 753 258 794 l 258 460 l 556 756 q 601 824 601 801 q 519 851 601 851 q 517 860 517 851 q 519 868 517 868 l 579 867 q 681 864 635 864 q 776 867 726 864 l 828 868 q 832 860 832 868 q 828 851 832 851 q 707 826 771 851 q 588 747 643 801 l 368 532 l 568 276 q 723 90 669 144 q 806 26 776 36 q 890 17 835 17 z "},"Ḱ":{"ha":903,"x_min":46,"x_max":894,"o":"m 890 17 q 894 8 894 17 q 890 0 894 0 l 735 0 q 695 -1 724 0 q 615 70 667 -1 q 517 201 564 142 l 304 469 l 258 425 l 258 113 q 267 51 258 71 q 299 24 275 31 q 376 17 324 17 q 381 8 381 17 q 376 0 381 0 q 310 1 335 0 l 213 3 l 118 1 q 49 0 93 0 q 46 8 46 0 q 49 17 46 17 q 126 24 101 17 q 159 51 150 31 q 168 113 168 71 l 168 756 q 160 817 168 797 q 127 844 151 836 q 50 851 103 851 q 47 860 47 851 q 50 868 47 868 l 119 867 q 213 864 178 864 q 311 867 253 864 l 376 868 q 381 860 381 868 q 376 851 381 851 q 301 843 325 851 q 267 815 276 835 q 258 753 258 794 l 258 460 l 556 756 q 601 824 601 801 q 519 851 601 851 q 517 860 517 851 q 519 868 517 868 l 579 867 q 681 864 635 864 q 776 867 726 864 l 828 868 q 832 860 832 868 q 828 851 832 851 q 707 826 771 851 q 588 747 643 801 l 368 532 l 568 276 q 723 90 669 144 q 806 26 776 36 q 890 17 835 17 m 315 942 q 308 948 310 942 q 311 957 307 954 q 463 1043 357 982 q 506 1071 488 1060 q 538 1089 525 1082 q 570 1083 543 1092 q 617 1063 597 1074 q 626 1050 636 1051 q 469 1003 540 1029 q 318 943 397 978 l 315 942 z "},"Ǩ":{"ha":903,"x_min":46,"x_max":894,"o":"m 890 17 q 894 8 894 17 q 890 0 894 0 l 735 0 q 695 -1 724 0 q 615 70 667 -1 q 517 201 564 142 l 304 469 l 258 425 l 258 113 q 267 51 258 71 q 299 24 275 31 q 376 17 324 17 q 381 8 381 17 q 376 0 381 0 q 310 1 335 0 l 213 3 l 118 1 q 49 0 93 0 q 46 8 46 0 q 49 17 46 17 q 126 24 101 17 q 159 51 150 31 q 168 113 168 71 l 168 756 q 160 817 168 797 q 127 844 151 836 q 50 851 103 851 q 47 860 47 851 q 50 868 47 868 l 119 867 q 213 864 178 864 q 311 867 253 864 l 376 868 q 381 860 381 868 q 376 851 381 851 q 301 843 325 851 q 267 815 276 835 q 258 753 258 794 l 258 460 l 556 756 q 601 824 601 801 q 519 851 601 851 q 517 860 517 851 q 519 868 517 868 l 579 867 q 681 864 635 864 q 776 867 726 864 l 828 868 q 832 860 832 868 q 828 851 832 851 q 707 826 771 851 q 588 747 643 801 l 368 532 l 568 276 q 723 90 669 144 q 806 26 776 36 q 890 17 835 17 m 293 1089 q 292 1090 292 1089 q 292 1090 292 1090 q 295 1097 292 1093 q 301 1099 299 1100 l 453 1019 l 603 1099 l 604 1099 q 611 1094 608 1099 q 610 1089 614 1090 l 468 954 q 453 949 463 949 q 436 954 442 949 l 293 1089 z "},"Ķ":{"ha":903,"x_min":46,"x_max":894,"o":"m 890 17 q 894 8 894 17 q 890 0 894 0 l 735 0 q 695 -1 724 0 q 615 70 667 -1 q 517 201 564 142 l 304 469 l 258 425 l 258 113 q 267 51 258 71 q 299 24 275 31 q 376 17 324 17 q 381 8 381 17 q 376 0 381 0 q 310 1 335 0 l 213 3 l 118 1 q 49 0 93 0 q 46 8 46 0 q 49 17 46 17 q 126 24 101 17 q 159 51 150 31 q 168 113 168 71 l 168 756 q 160 817 168 797 q 127 844 151 836 q 50 851 103 851 q 47 860 47 851 q 50 868 47 868 l 119 867 q 213 864 178 864 q 311 867 253 864 l 376 868 q 381 860 381 868 q 376 851 381 851 q 301 843 325 851 q 267 815 276 835 q 258 753 258 794 l 258 460 l 556 756 q 601 824 601 801 q 519 851 601 851 q 517 860 517 851 q 519 868 517 868 l 579 867 q 681 864 635 864 q 776 867 726 864 l 828 868 q 832 860 832 868 q 828 851 832 851 q 707 826 771 851 q 588 747 643 801 l 368 532 l 568 276 q 723 90 669 144 q 806 26 776 36 q 890 17 835 17 m 468 -118 q 527 -144 507 -118 q 547 -219 547 -171 q 526 -305 547 -265 q 463 -382 504 -344 q 458 -383 461 -383 q 451 -378 454 -383 q 451 -371 449 -374 q 513 -247 513 -318 q 504 -207 513 -219 q 463 -228 493 -228 q 423 -212 438 -228 q 408 -174 408 -197 q 468 -118 408 -118 z "},"L":{"ha":740,"x_min":46,"x_max":724,"o":"m 257 118 q 265 60 257 78 q 296 35 274 42 q 368 29 318 29 l 519 29 q 646 78 599 29 q 708 213 693 126 q 716 216 708 217 q 724 211 724 215 q 711 21 711 96 q 707 5 711 10 q 690 0 703 0 l 49 0 q 46 8 46 0 q 49 17 46 17 q 126 24 101 17 q 158 51 150 31 q 167 113 167 71 l 167 756 q 158 817 167 797 q 126 844 150 836 q 49 851 101 851 q 46 860 46 851 q 49 868 46 868 l 117 867 q 211 864 175 864 q 308 867 250 864 l 375 868 q 379 860 379 868 q 375 851 379 851 q 299 844 324 851 q 266 816 275 836 q 257 754 257 796 l 257 118 z "},"Ĺ":{"ha":740,"x_min":46,"x_max":724,"o":"m 257 118 q 265 60 257 78 q 296 35 274 42 q 368 29 318 29 l 519 29 q 646 78 599 29 q 708 213 693 126 q 716 216 708 217 q 724 211 724 215 q 711 21 711 96 q 707 5 711 10 q 690 0 703 0 l 49 0 q 46 8 46 0 q 49 17 46 17 q 126 24 101 17 q 158 51 150 31 q 167 113 167 71 l 167 756 q 158 817 167 797 q 126 844 150 836 q 49 851 101 851 q 46 860 46 851 q 49 868 46 868 l 117 867 q 211 864 175 864 q 308 867 250 864 l 375 868 q 379 860 379 868 q 375 851 379 851 q 299 844 324 851 q 266 816 275 836 q 257 754 257 796 l 257 118 m 82 942 q 75 948 76 942 q 78 957 74 954 q 229 1043 124 982 q 273 1071 254 1060 q 304 1089 292 1082 q 337 1083 310 1092 q 383 1063 364 1074 q 393 1050 403 1051 q 235 1003 307 1029 q 85 943 164 978 l 82 942 z "},"Ľ":{"ha":740,"x_min":46,"x_max":724,"o":"m 257 118 q 265 60 257 78 q 296 35 274 42 q 368 29 318 29 l 519 29 q 646 78 599 29 q 708 213 693 126 q 716 216 708 217 q 724 211 724 215 q 711 21 711 96 q 707 5 711 10 q 690 0 703 0 l 49 0 q 46 8 46 0 q 49 17 46 17 q 126 24 101 17 q 158 51 150 31 q 167 113 167 71 l 167 756 q 158 817 167 797 q 126 844 150 836 q 49 851 101 851 q 46 860 46 851 q 49 868 46 868 l 117 867 q 211 864 175 864 q 308 867 250 864 l 375 868 q 379 860 379 868 q 375 851 379 851 q 299 844 324 851 q 266 816 275 836 q 257 754 257 796 l 257 118 m 490 868 q 509 867 490 875 q 545 846 528 858 q 561 826 563 833 l 517 489 q 509 487 517 486 q 501 490 501 488 l 490 868 z "},"Ļ":{"ha":740,"x_min":46,"x_max":724,"o":"m 257 118 q 265 60 257 78 q 296 35 274 42 q 368 29 318 29 l 519 29 q 646 78 599 29 q 708 213 693 126 q 716 216 708 217 q 724 211 724 215 q 711 21 711 96 q 707 5 711 10 q 690 0 703 0 l 49 0 q 46 8 46 0 q 49 17 46 17 q 126 24 101 17 q 158 51 150 31 q 167 113 167 71 l 167 756 q 158 817 167 797 q 126 844 150 836 q 49 851 101 851 q 46 860 46 851 q 49 868 46 868 l 117 867 q 211 864 175 864 q 308 867 250 864 l 375 868 q 379 860 379 868 q 375 851 379 851 q 299 844 324 851 q 266 816 275 836 q 257 754 257 796 l 257 118 m 403 -118 q 462 -144 442 -118 q 482 -219 482 -171 q 460 -305 482 -265 q 397 -382 439 -344 q 393 -383 396 -383 q 386 -378 389 -383 q 386 -371 383 -374 q 447 -247 447 -318 q 439 -207 447 -219 q 397 -228 428 -228 q 358 -212 372 -228 q 343 -174 343 -197 q 403 -118 343 -118 z "},"Ŀ":{"ha":740,"x_min":46,"x_max":724,"o":"m 257 118 q 265 60 257 78 q 296 35 274 42 q 368 29 318 29 l 519 29 q 646 78 599 29 q 708 213 693 126 q 716 216 708 217 q 724 211 724 215 q 711 21 711 96 q 707 5 711 10 q 690 0 703 0 l 49 0 q 46 8 46 0 q 49 17 46 17 q 126 24 101 17 q 158 51 150 31 q 167 113 167 71 l 167 756 q 158 817 167 797 q 126 844 150 836 q 49 851 101 851 q 46 860 46 851 q 49 868 46 868 l 117 867 q 211 864 175 864 q 308 867 250 864 l 375 868 q 379 860 379 868 q 375 851 379 851 q 299 844 324 851 q 266 816 275 836 q 257 754 257 796 l 257 118 m 594 386 q 550 403 567 386 q 533 446 533 419 q 550 488 533 472 q 594 504 567 504 q 640 489 624 504 q 656 446 656 474 q 640 402 656 418 q 594 386 624 386 z "},"Ḷ":{"ha":740,"x_min":46,"x_max":724,"o":"m 257 118 q 265 60 257 78 q 296 35 274 42 q 368 29 318 29 l 519 29 q 646 78 599 29 q 708 213 693 126 q 716 216 708 217 q 724 211 724 215 q 711 21 711 96 q 707 5 711 10 q 690 0 703 0 l 49 0 q 46 8 46 0 q 49 17 46 17 q 126 24 101 17 q 158 51 150 31 q 167 113 167 71 l 167 756 q 158 817 167 797 q 126 844 150 836 q 49 851 101 851 q 46 860 46 851 q 49 868 46 868 l 117 867 q 211 864 175 864 q 308 867 250 864 l 375 868 q 379 860 379 868 q 375 851 379 851 q 299 844 324 851 q 266 816 275 836 q 257 754 257 796 l 257 118 m 414 -264 q 369 -249 385 -264 q 353 -206 353 -233 q 369 -162 353 -178 q 414 -147 385 -147 q 457 -162 442 -147 q 472 -206 472 -178 q 457 -249 472 -233 q 414 -264 442 -264 z "},"Ḹ":{"ha":740,"x_min":36,"x_max":724,"o":"m 257 118 q 265 60 257 78 q 296 35 274 42 q 368 29 318 29 l 519 29 q 646 78 599 29 q 708 213 693 126 q 716 216 708 217 q 724 211 724 215 q 711 21 711 96 q 707 5 711 10 q 690 0 703 0 l 49 0 q 46 8 46 0 q 49 17 46 17 q 126 24 101 17 q 158 51 150 31 q 167 113 167 71 l 167 756 q 158 817 167 797 q 126 844 150 836 q 49 851 101 851 q 46 860 46 851 q 49 868 46 868 l 117 867 q 211 864 175 864 q 308 867 250 864 l 375 868 q 379 860 379 868 q 375 851 379 851 q 299 844 324 851 q 266 816 275 836 q 257 754 257 796 l 257 118 m 414 -264 q 369 -249 385 -264 q 353 -206 353 -233 q 369 -162 353 -178 q 414 -147 385 -147 q 457 -162 442 -147 q 472 -206 472 -178 q 457 -249 472 -233 q 414 -264 442 -264 m 44 1003 q 36 1022 36 1003 q 44 1042 36 1042 l 393 1042 q 401 1022 401 1042 q 393 1003 401 1003 l 44 1003 z "},"Ḻ":{"ha":740,"x_min":46,"x_max":724,"o":"m 257 118 q 265 60 257 78 q 296 35 274 42 q 368 29 318 29 l 519 29 q 646 78 599 29 q 708 213 693 126 q 716 216 708 217 q 724 211 724 215 q 711 21 711 96 q 707 5 711 10 q 690 0 703 0 l 49 0 q 46 8 46 0 q 49 17 46 17 q 126 24 101 17 q 158 51 150 31 q 167 113 167 71 l 167 756 q 158 817 167 797 q 126 844 150 836 q 49 851 101 851 q 46 860 46 851 q 49 868 46 868 l 117 867 q 211 864 175 864 q 308 867 250 864 l 375 868 q 379 860 379 868 q 375 851 379 851 q 299 844 324 851 q 266 816 275 836 q 257 754 257 796 l 257 118 m 238 -157 q 229 -137 229 -157 q 238 -118 229 -118 l 586 -118 q 594 -137 594 -118 q 586 -157 594 -157 l 238 -157 z "},"Ł":{"ha":728,"x_min":46,"x_max":724,"o":"m 708 213 q 716 216 708 217 q 724 211 724 215 q 711 21 711 96 q 707 5 711 10 q 690 0 703 0 l 49 0 q 46 8 46 0 q 49 17 46 17 q 126 24 101 17 q 158 51 150 31 q 167 113 167 71 l 167 367 l 96 326 l 94 326 q 83 338 89 326 q 81 351 76 350 l 167 401 l 167 756 q 158 817 167 797 q 126 844 150 836 q 49 851 101 851 q 46 860 46 851 q 49 868 46 868 l 117 867 q 211 864 175 864 q 308 867 250 864 l 375 868 q 379 860 379 868 q 375 851 379 851 q 299 844 324 851 q 266 816 275 836 q 257 754 257 796 l 257 453 l 406 538 l 407 538 q 417 526 411 538 q 418 513 424 514 l 257 419 l 257 118 q 265 60 257 78 q 296 35 274 42 q 368 29 318 29 l 519 29 q 646 78 599 29 q 708 213 693 126 z "},"M":{"ha":1161,"x_min":51,"x_max":1132,"o":"m 1128 17 q 1132 8 1132 17 q 1128 0 1132 0 q 1060 1 1085 0 l 964 3 l 875 1 q 813 0 853 0 q 810 8 810 0 q 813 17 810 17 q 883 24 860 17 q 913 51 906 32 q 918 113 921 71 l 893 744 l 576 10 q 565 4 574 4 q 553 10 558 4 l 211 736 l 199 151 q 224 47 197 78 q 317 17 250 17 q 319 8 319 17 q 317 0 319 0 q 257 1 278 0 l 182 3 l 110 1 q 54 0 90 0 q 51 8 51 0 q 54 17 51 17 q 138 48 113 17 q 165 151 164 79 l 178 796 q 64 851 136 851 q 61 860 61 851 q 64 868 61 868 l 115 867 q 154 865 129 865 q 197 867 179 865 q 224 868 214 868 q 253 855 242 868 q 288 796 265 842 l 597 143 l 900 833 q 942 868 915 868 q 962 867 949 868 q 997 865 975 865 l 1063 867 q 1108 868 1078 868 q 1113 860 1113 868 q 1108 851 1113 851 q 1009 831 1039 851 q 981 756 979 811 l 1008 113 q 1019 50 1010 69 q 1051 24 1028 31 q 1128 17 1075 17 z "},"Ṁ":{"ha":1161,"x_min":51,"x_max":1132,"o":"m 1128 17 q 1132 8 1132 17 q 1128 0 1132 0 q 1060 1 1085 0 l 964 3 l 875 1 q 813 0 853 0 q 810 8 810 0 q 813 17 810 17 q 883 24 860 17 q 913 51 906 32 q 918 113 921 71 l 893 744 l 576 10 q 565 4 574 4 q 553 10 558 4 l 211 736 l 199 151 q 224 47 197 78 q 317 17 250 17 q 319 8 319 17 q 317 0 319 0 q 257 1 278 0 l 182 3 l 110 1 q 54 0 90 0 q 51 8 51 0 q 54 17 51 17 q 138 48 113 17 q 165 151 164 79 l 178 796 q 64 851 136 851 q 61 860 61 851 q 64 868 61 868 l 115 867 q 154 865 129 865 q 197 867 179 865 q 224 868 214 868 q 253 855 242 868 q 288 796 265 842 l 597 143 l 900 833 q 942 868 915 868 q 962 867 949 868 q 997 865 975 865 l 1063 867 q 1108 868 1078 868 q 1113 860 1113 868 q 1108 851 1113 851 q 1009 831 1039 851 q 981 756 979 811 l 1008 113 q 1019 50 1010 69 q 1051 24 1028 31 q 1128 17 1075 17 m 581 990 q 535 1006 551 990 q 519 1050 519 1022 q 535 1093 519 1078 q 581 1108 551 1108 q 624 1093 608 1108 q 639 1050 639 1078 q 624 1006 639 1022 q 581 990 608 990 z "},"Ṃ":{"ha":1161,"x_min":51,"x_max":1132,"o":"m 1128 17 q 1132 8 1132 17 q 1128 0 1132 0 q 1060 1 1085 0 l 964 3 l 875 1 q 813 0 853 0 q 810 8 810 0 q 813 17 810 17 q 883 24 860 17 q 913 51 906 32 q 918 113 921 71 l 893 744 l 576 10 q 565 4 574 4 q 553 10 558 4 l 211 736 l 199 151 q 224 47 197 78 q 317 17 250 17 q 319 8 319 17 q 317 0 319 0 q 257 1 278 0 l 182 3 l 110 1 q 54 0 90 0 q 51 8 51 0 q 54 17 51 17 q 138 48 113 17 q 165 151 164 79 l 178 796 q 64 851 136 851 q 61 860 61 851 q 64 868 61 868 l 115 867 q 154 865 129 865 q 197 867 179 865 q 224 868 214 868 q 253 855 242 868 q 288 796 265 842 l 597 143 l 900 833 q 942 868 915 868 q 962 867 949 868 q 997 865 975 865 l 1063 867 q 1108 868 1078 868 q 1113 860 1113 868 q 1108 851 1113 851 q 1009 831 1039 851 q 981 756 979 811 l 1008 113 q 1019 50 1010 69 q 1051 24 1028 31 q 1128 17 1075 17 m 568 -264 q 523 -249 539 -264 q 507 -206 507 -233 q 523 -162 507 -178 q 568 -147 539 -147 q 611 -162 596 -147 q 626 -206 626 -178 q 611 -249 626 -233 q 568 -264 596 -264 z "},"N":{"ha":1010,"x_min":53,"x_max":982,"o":"m 978 868 q 982 860 982 868 q 978 851 982 851 q 893 819 919 851 q 867 715 867 788 l 867 -17 q 860 -21 867 -19 q 850 -19 853 -22 l 211 754 l 199 768 l 199 151 q 224 48 199 79 q 307 17 250 17 q 311 8 311 17 q 307 0 311 0 q 254 1 272 0 l 185 3 l 114 1 q 57 0 94 0 q 54 8 54 0 q 57 17 54 17 q 142 48 117 17 q 167 151 167 79 l 167 801 q 57 851 113 851 q 53 860 53 851 q 57 868 53 868 l 108 867 q 154 865 125 865 q 204 867 185 865 q 235 868 224 868 q 251 863 246 868 q 267 842 256 858 q 300 796 283 817 l 835 139 l 835 715 q 810 819 835 788 q 729 851 786 851 q 726 860 726 851 q 729 868 726 868 l 783 867 q 851 864 825 864 q 921 867 876 864 l 978 868 z "},"Ń":{"ha":1010,"x_min":53,"x_max":982,"o":"m 978 868 q 982 860 982 868 q 978 851 982 851 q 893 819 919 851 q 867 715 867 788 l 867 -17 q 860 -21 867 -19 q 850 -19 853 -22 l 211 754 l 199 768 l 199 151 q 224 48 199 79 q 307 17 250 17 q 311 8 311 17 q 307 0 311 0 q 254 1 272 0 l 185 3 l 114 1 q 57 0 94 0 q 54 8 54 0 q 57 17 54 17 q 142 48 117 17 q 167 151 167 79 l 167 801 q 57 851 113 851 q 53 860 53 851 q 57 868 53 868 l 108 867 q 154 865 125 865 q 204 867 185 865 q 235 868 224 868 q 251 863 246 868 q 267 842 256 858 q 300 796 283 817 l 835 139 l 835 715 q 810 819 835 788 q 729 851 786 851 q 726 860 726 851 q 729 868 726 868 l 783 867 q 851 864 825 864 q 921 867 876 864 l 978 868 m 385 942 q 378 948 379 942 q 381 957 376 954 q 532 1043 426 982 q 576 1071 557 1060 q 607 1089 594 1082 q 640 1083 613 1092 q 686 1063 667 1074 q 696 1050 706 1051 q 538 1003 610 1029 q 388 943 467 978 l 385 942 z "},"Ň":{"ha":1010,"x_min":53,"x_max":982,"o":"m 978 868 q 982 860 982 868 q 978 851 982 851 q 893 819 919 851 q 867 715 867 788 l 867 -17 q 860 -21 867 -19 q 850 -19 853 -22 l 211 754 l 199 768 l 199 151 q 224 48 199 79 q 307 17 250 17 q 311 8 311 17 q 307 0 311 0 q 254 1 272 0 l 185 3 l 114 1 q 57 0 94 0 q 54 8 54 0 q 57 17 54 17 q 142 48 117 17 q 167 151 167 79 l 167 801 q 57 851 113 851 q 53 860 53 851 q 57 868 53 868 l 108 867 q 154 865 125 865 q 204 867 185 865 q 235 868 224 868 q 251 863 246 868 q 267 842 256 858 q 300 796 283 817 l 835 139 l 835 715 q 810 819 835 788 q 729 851 786 851 q 726 860 726 851 q 729 868 726 868 l 783 867 q 851 864 825 864 q 921 867 876 864 l 978 868 m 363 1089 q 361 1090 361 1089 q 361 1090 361 1090 q 365 1097 361 1093 q 371 1099 368 1100 l 522 1019 l 672 1099 l 674 1099 q 681 1094 678 1099 q 679 1089 683 1090 l 538 954 q 522 949 532 949 q 506 954 511 949 l 363 1089 z "},"Ņ":{"ha":1010,"x_min":53,"x_max":982,"o":"m 978 868 q 982 860 982 868 q 978 851 982 851 q 893 819 919 851 q 867 715 867 788 l 867 -17 q 860 -21 867 -19 q 850 -19 853 -22 l 211 754 l 199 768 l 199 151 q 224 48 199 79 q 307 17 250 17 q 311 8 311 17 q 307 0 311 0 q 254 1 272 0 l 185 3 l 114 1 q 57 0 94 0 q 54 8 54 0 q 57 17 54 17 q 142 48 117 17 q 167 151 167 79 l 167 801 q 57 851 113 851 q 53 860 53 851 q 57 868 53 868 l 108 867 q 154 865 125 865 q 204 867 185 865 q 235 868 224 868 q 251 863 246 868 q 267 842 256 858 q 300 796 283 817 l 835 139 l 835 715 q 810 819 835 788 q 729 851 786 851 q 726 860 726 851 q 729 868 726 868 l 783 867 q 851 864 825 864 q 921 867 876 864 l 978 868 m 510 -118 q 569 -144 549 -118 q 589 -219 589 -171 q 567 -305 589 -265 q 504 -382 546 -344 q 500 -383 503 -383 q 493 -378 496 -383 q 493 -371 490 -374 q 554 -247 554 -318 q 546 -207 554 -219 q 504 -228 535 -228 q 465 -212 479 -228 q 450 -174 450 -197 q 510 -118 450 -118 z "},"Ṅ":{"ha":1010,"x_min":53,"x_max":982,"o":"m 978 868 q 982 860 982 868 q 978 851 982 851 q 893 819 919 851 q 867 715 867 788 l 867 -17 q 860 -21 867 -19 q 850 -19 853 -22 l 211 754 l 199 768 l 199 151 q 224 48 199 79 q 307 17 250 17 q 311 8 311 17 q 307 0 311 0 q 254 1 272 0 l 185 3 l 114 1 q 57 0 94 0 q 54 8 54 0 q 57 17 54 17 q 142 48 117 17 q 167 151 167 79 l 167 801 q 57 851 113 851 q 53 860 53 851 q 57 868 53 868 l 108 867 q 154 865 125 865 q 204 867 185 865 q 235 868 224 868 q 251 863 246 868 q 267 842 256 858 q 300 796 283 817 l 835 139 l 835 715 q 810 819 835 788 q 729 851 786 851 q 726 860 726 851 q 729 868 726 868 l 783 867 q 851 864 825 864 q 921 867 876 864 l 978 868 m 522 990 q 477 1006 493 990 q 461 1050 461 1022 q 477 1093 461 1078 q 522 1108 493 1108 q 565 1093 550 1108 q 581 1050 581 1078 q 565 1006 581 1022 q 522 990 550 990 z "},"Ṇ":{"ha":1010,"x_min":53,"x_max":982,"o":"m 978 868 q 982 860 982 868 q 978 851 982 851 q 893 819 919 851 q 867 715 867 788 l 867 -17 q 860 -21 867 -19 q 850 -19 853 -22 l 211 754 l 199 768 l 199 151 q 224 48 199 79 q 307 17 250 17 q 311 8 311 17 q 307 0 311 0 q 254 1 272 0 l 185 3 l 114 1 q 57 0 94 0 q 54 8 54 0 q 57 17 54 17 q 142 48 117 17 q 167 151 167 79 l 167 801 q 57 851 113 851 q 53 860 53 851 q 57 868 53 868 l 108 867 q 154 865 125 865 q 204 867 185 865 q 235 868 224 868 q 251 863 246 868 q 267 842 256 858 q 300 796 283 817 l 835 139 l 835 715 q 810 819 835 788 q 729 851 786 851 q 726 860 726 851 q 729 868 726 868 l 783 867 q 851 864 825 864 q 921 867 876 864 l 978 868 m 521 -264 q 476 -249 492 -264 q 460 -206 460 -233 q 476 -162 460 -178 q 521 -147 492 -147 q 564 -162 549 -147 q 579 -206 579 -178 q 564 -249 579 -233 q 521 -264 549 -264 z "},"Ŋ":{"ha":1010,"x_min":53,"x_max":982,"o":"m 978 868 q 982 860 982 868 q 978 851 982 851 q 893 819 919 851 q 867 715 867 788 l 867 -17 q 822 -201 867 -137 q 690 -265 776 -265 q 608 -242 639 -265 q 576 -186 576 -219 q 588 -149 576 -162 q 621 -136 600 -136 q 654 -149 644 -136 q 672 -186 664 -161 q 691 -225 681 -212 q 725 -237 701 -237 q 807 -178 778 -237 q 836 -19 836 -118 l 836 -3 l 211 754 l 199 768 l 199 151 q 224 48 199 79 q 307 17 250 17 q 311 8 311 17 q 307 0 311 0 q 254 1 272 0 l 185 3 l 114 1 q 57 0 94 0 q 54 8 54 0 q 57 17 54 17 q 142 48 117 17 q 168 151 168 79 l 168 800 q 57 851 111 851 q 53 860 53 851 q 57 868 53 868 l 108 867 q 154 865 125 865 q 204 867 185 865 q 235 868 224 868 q 251 863 246 868 q 267 842 256 858 q 300 796 283 817 l 836 138 l 836 715 q 811 819 836 788 q 729 851 786 851 q 726 860 726 851 q 729 868 726 868 l 783 867 q 851 864 825 864 q 921 867 876 864 l 978 868 z "},"Ṉ":{"ha":1010,"x_min":53,"x_max":982,"o":"m 978 868 q 982 860 982 868 q 978 851 982 851 q 893 819 919 851 q 867 715 867 788 l 867 -17 q 860 -21 867 -19 q 850 -19 853 -22 l 211 754 l 199 768 l 199 151 q 224 48 199 79 q 307 17 250 17 q 311 8 311 17 q 307 0 311 0 q 254 1 272 0 l 185 3 l 114 1 q 57 0 94 0 q 54 8 54 0 q 57 17 54 17 q 142 48 117 17 q 167 151 167 79 l 167 801 q 57 851 113 851 q 53 860 53 851 q 57 868 53 868 l 108 867 q 154 865 125 865 q 204 867 185 865 q 235 868 224 868 q 251 863 246 868 q 267 842 256 858 q 300 796 283 817 l 835 139 l 835 715 q 810 819 835 788 q 729 851 786 851 q 726 860 726 851 q 729 868 726 868 l 783 867 q 851 864 825 864 q 921 867 876 864 l 978 868 m 344 -157 q 336 -137 336 -157 q 344 -118 336 -118 l 693 -118 q 701 -137 701 -118 q 693 -157 701 -157 l 344 -157 z "},"Ñ":{"ha":1010,"x_min":53,"x_max":982,"o":"m 978 868 q 982 860 982 868 q 978 851 982 851 q 893 819 919 851 q 867 715 867 788 l 867 -17 q 860 -21 867 -19 q 850 -19 853 -22 l 211 754 l 199 768 l 199 151 q 224 48 199 79 q 307 17 250 17 q 311 8 311 17 q 307 0 311 0 q 254 1 272 0 l 185 3 l 114 1 q 57 0 94 0 q 54 8 54 0 q 57 17 54 17 q 142 48 117 17 q 167 151 167 79 l 167 801 q 57 851 113 851 q 53 860 53 851 q 57 868 53 868 l 108 867 q 154 865 125 865 q 204 867 185 865 q 235 868 224 868 q 251 863 246 868 q 267 842 256 858 q 300 796 283 817 l 835 139 l 835 715 q 810 819 835 788 q 729 851 786 851 q 726 860 726 851 q 729 868 726 868 l 783 867 q 851 864 825 864 q 921 867 876 864 l 978 868 m 631 1031 q 669 1040 654 1031 q 699 1068 683 1050 l 701 1068 q 708 1065 706 1068 q 708 1058 711 1061 q 649 990 672 1007 q 599 972 625 972 q 514 989 569 972 q 418 1006 453 1006 q 383 999 396 1006 q 362 982 371 992 q 349 968 353 972 l 347 968 q 340 972 343 968 q 339 978 336 975 q 393 1038 361 1011 q 457 1065 425 1065 q 526 1050 481 1065 q 566 1040 533 1049 q 631 1031 599 1031 z "},"O":{"ha":1064,"x_min":68,"x_max":996,"o":"m 508 -17 q 278 44 379 -17 q 123 208 178 104 q 68 433 68 311 q 140 678 68 576 q 326 832 213 781 q 557 883 439 883 q 789 822 689 883 q 942 658 889 760 q 996 443 996 557 q 929 211 996 317 q 751 44 863 106 q 508 -17 639 -17 m 557 13 q 727 58 651 13 q 847 193 803 104 q 890 404 890 282 q 842 636 890 535 q 705 794 793 738 q 499 851 617 851 q 260 753 346 851 q 174 482 174 654 q 222 244 174 351 q 358 74 271 136 q 557 13 446 13 z "},"Ó":{"ha":1064,"x_min":68,"x_max":996,"o":"m 508 -17 q 278 44 379 -17 q 123 208 178 104 q 68 433 68 311 q 140 678 68 576 q 326 832 213 781 q 557 883 439 883 q 789 822 689 883 q 942 658 889 760 q 996 443 996 557 q 929 211 996 317 q 751 44 863 106 q 508 -17 639 -17 m 557 13 q 727 58 651 13 q 847 193 803 104 q 890 404 890 282 q 842 636 890 535 q 705 794 793 738 q 499 851 617 851 q 260 753 346 851 q 174 482 174 654 q 222 244 174 351 q 358 74 271 136 q 557 13 446 13 m 397 942 q 390 948 392 942 q 393 957 389 954 q 544 1043 439 982 q 588 1071 569 1060 q 619 1089 607 1082 q 652 1083 625 1092 q 699 1063 679 1074 q 708 1050 718 1051 q 551 1003 622 1029 q 400 943 479 978 l 397 942 z "},"Ŏ":{"ha":1064,"x_min":68,"x_max":996,"o":"m 508 -17 q 278 44 379 -17 q 123 208 178 104 q 68 433 68 311 q 140 678 68 576 q 326 832 213 781 q 557 883 439 883 q 789 822 689 883 q 942 658 889 760 q 996 443 996 557 q 929 211 996 317 q 751 44 863 106 q 508 -17 639 -17 m 557 13 q 727 58 651 13 q 847 193 803 104 q 890 404 890 282 q 842 636 890 535 q 705 794 793 738 q 499 851 617 851 q 260 753 346 851 q 174 482 174 654 q 222 244 174 351 q 358 74 271 136 q 557 13 446 13 m 535 958 q 440 997 476 958 q 392 1107 403 1036 q 397 1113 390 1113 q 407 1111 404 1114 q 453 1046 417 1074 q 535 1018 490 1018 q 615 1046 578 1018 q 661 1111 651 1074 q 667 1114 661 1114 q 674 1112 671 1114 q 676 1107 678 1110 q 629 997 665 1035 q 535 958 593 958 z "},"Ǒ":{"ha":1064,"x_min":68,"x_max":996,"o":"m 508 -17 q 278 44 379 -17 q 123 208 178 104 q 68 433 68 311 q 140 678 68 576 q 326 832 213 781 q 557 883 439 883 q 789 822 689 883 q 942 658 889 760 q 996 443 996 557 q 929 211 996 317 q 751 44 863 106 q 508 -17 639 -17 m 557 13 q 727 58 651 13 q 847 193 803 104 q 890 404 890 282 q 842 636 890 535 q 705 794 793 738 q 499 851 617 851 q 260 753 346 851 q 174 482 174 654 q 222 244 174 351 q 358 74 271 136 q 557 13 446 13 m 375 1089 q 374 1090 374 1089 q 374 1090 374 1090 q 377 1097 374 1093 q 383 1099 381 1100 l 535 1019 l 685 1099 l 686 1099 q 693 1094 690 1099 q 692 1089 696 1090 l 550 954 q 535 949 544 949 q 518 954 524 949 l 375 1089 z "},"Ô":{"ha":1064,"x_min":68,"x_max":996,"o":"m 508 -17 q 278 44 379 -17 q 123 208 178 104 q 68 433 68 311 q 140 678 68 576 q 326 832 213 781 q 557 883 439 883 q 789 822 689 883 q 942 658 889 760 q 996 443 996 557 q 929 211 996 317 q 751 44 863 106 q 508 -17 639 -17 m 557 13 q 727 58 651 13 q 847 193 803 104 q 890 404 890 282 q 842 636 890 535 q 705 794 793 738 q 499 851 617 851 q 260 753 346 851 q 174 482 174 654 q 222 244 174 351 q 358 74 271 136 q 557 13 446 13 m 519 1097 q 536 1104 526 1104 q 551 1097 544 1104 l 693 961 q 694 958 694 961 q 691 953 694 956 q 686 951 688 950 l 536 1032 l 385 951 q 378 955 382 950 q 376 961 374 960 l 519 1097 z "},"Ố":{"ha":1064,"x_min":68,"x_max":996,"o":"m 508 -17 q 278 44 379 -17 q 123 208 178 104 q 68 433 68 311 q 140 678 68 576 q 326 832 213 781 q 557 883 439 883 q 789 822 689 883 q 942 658 889 760 q 996 443 996 557 q 929 211 996 317 q 751 44 863 106 q 508 -17 639 -17 m 557 13 q 727 58 651 13 q 847 193 803 104 q 890 404 890 282 q 842 636 890 535 q 705 794 793 738 q 499 851 617 851 q 260 753 346 851 q 174 482 174 654 q 222 244 174 351 q 358 74 271 136 q 557 13 446 13 m 518 1044 q 533 1051 525 1051 q 550 1044 543 1051 l 692 910 q 693 907 693 910 q 690 901 693 904 q 685 900 686 899 l 535 979 l 383 900 q 376 903 381 899 q 375 910 372 908 l 518 1044 m 625 1006 q 621 1004 624 1004 q 615 1009 617 1004 q 615 1017 613 1014 q 721 1151 669 1076 q 752 1148 725 1157 q 801 1127 779 1139 q 811 1113 822 1115 q 625 1006 721 1076 z "},"Ộ":{"ha":1064,"x_min":68,"x_max":996,"o":"m 508 -17 q 278 44 379 -17 q 123 208 178 104 q 68 433 68 311 q 140 678 68 576 q 326 832 213 781 q 557 883 439 883 q 789 822 689 883 q 942 658 889 760 q 996 443 996 557 q 929 211 996 317 q 751 44 863 106 q 508 -17 639 -17 m 557 13 q 727 58 651 13 q 847 193 803 104 q 890 404 890 282 q 842 636 890 535 q 705 794 793 738 q 499 851 617 851 q 260 753 346 851 q 174 482 174 654 q 222 244 174 351 q 358 74 271 136 q 557 13 446 13 m 550 -264 q 505 -249 521 -264 q 489 -206 489 -233 q 505 -162 489 -178 q 550 -147 521 -147 q 593 -162 578 -147 q 608 -206 608 -178 q 593 -249 608 -233 q 550 -264 578 -264 m 518 1044 q 533 1051 525 1051 q 550 1044 543 1051 l 692 910 q 693 907 693 910 q 690 901 693 904 q 685 900 686 899 l 535 979 l 383 900 q 376 903 381 899 q 375 910 372 908 l 518 1044 z "},"Ồ":{"ha":1064,"x_min":68,"x_max":996,"o":"m 508 -17 q 278 44 379 -17 q 123 208 178 104 q 68 433 68 311 q 140 678 68 576 q 326 832 213 781 q 557 883 439 883 q 789 822 689 883 q 942 658 889 760 q 996 443 996 557 q 929 211 996 317 q 751 44 863 106 q 508 -17 639 -17 m 557 13 q 727 58 651 13 q 847 193 803 104 q 890 404 890 282 q 842 636 890 535 q 705 794 793 738 q 499 851 617 851 q 260 753 346 851 q 174 482 174 654 q 222 244 174 351 q 358 74 271 136 q 557 13 446 13 m 518 1044 q 533 1051 525 1051 q 550 1044 543 1051 l 692 910 q 693 907 693 910 q 690 901 693 904 q 685 900 686 899 l 535 979 l 383 900 q 376 903 381 899 q 375 910 372 908 l 518 1044 m 767 975 q 676 1036 718 1011 q 582 1082 633 1061 q 593 1097 572 1085 q 642 1117 614 1108 q 672 1121 669 1126 q 776 988 718 1054 l 779 982 q 775 976 779 978 q 767 975 771 974 z "},"Ổ":{"ha":1064,"x_min":68,"x_max":996,"o":"m 508 -17 q 278 44 379 -17 q 123 208 178 104 q 68 433 68 311 q 140 678 68 576 q 326 832 213 781 q 557 883 439 883 q 789 822 689 883 q 942 658 889 760 q 996 443 996 557 q 929 211 996 317 q 751 44 863 106 q 508 -17 639 -17 m 557 13 q 727 58 651 13 q 847 193 803 104 q 890 404 890 282 q 842 636 890 535 q 705 794 793 738 q 499 851 617 851 q 260 753 346 851 q 174 482 174 654 q 222 244 174 351 q 358 74 271 136 q 557 13 446 13 m 518 1044 q 533 1051 525 1051 q 550 1044 543 1051 l 692 910 q 693 907 693 910 q 690 901 693 904 q 685 900 686 899 l 535 979 l 383 900 q 376 903 381 899 q 375 910 372 908 l 518 1044 m 646 1006 q 643 1024 643 1013 q 663 1075 643 1042 q 683 1128 683 1107 q 669 1160 683 1149 q 636 1171 654 1171 q 603 1164 619 1171 l 601 1164 q 593 1169 597 1164 q 593 1175 589 1174 q 637 1194 614 1188 q 676 1201 660 1201 q 725 1183 707 1201 q 743 1142 743 1165 q 731 1106 743 1122 q 699 1071 719 1090 q 667 1036 676 1050 q 661 1006 657 1022 q 656 1002 664 1003 q 646 1006 647 1001 z "},"Ỗ":{"ha":1064,"x_min":68,"x_max":996,"o":"m 508 -17 q 278 44 379 -17 q 123 208 178 104 q 68 433 68 311 q 140 678 68 576 q 326 832 213 781 q 557 883 439 883 q 789 822 689 883 q 942 658 889 760 q 996 443 996 557 q 929 211 996 317 q 751 44 863 106 q 508 -17 639 -17 m 557 13 q 727 58 651 13 q 847 193 803 104 q 890 404 890 282 q 842 636 890 535 q 705 794 793 738 q 499 851 617 851 q 260 753 346 851 q 174 482 174 654 q 222 244 174 351 q 358 74 271 136 q 557 13 446 13 m 518 1044 q 533 1051 525 1051 q 550 1044 543 1051 l 692 910 q 693 907 693 910 q 690 901 693 904 q 685 900 686 899 l 535 979 l 383 900 q 376 903 381 899 q 375 910 372 908 l 518 1044 m 650 1126 q 688 1136 674 1126 q 718 1164 701 1146 l 719 1164 q 727 1160 724 1164 q 728 1154 731 1157 q 668 1086 692 1104 q 618 1068 644 1068 q 533 1085 589 1068 q 498 1094 528 1086 q 436 1103 468 1103 q 403 1096 415 1103 q 383 1079 392 1089 q 368 1065 374 1069 l 365 1065 q 358 1069 361 1065 q 358 1075 356 1072 q 413 1133 382 1107 q 476 1160 444 1160 q 546 1146 496 1160 q 650 1126 610 1126 z "},"Ö":{"ha":1064,"x_min":68,"x_max":996,"o":"m 508 -17 q 278 44 379 -17 q 123 208 178 104 q 68 433 68 311 q 140 678 68 576 q 326 832 213 781 q 557 883 439 883 q 789 822 689 883 q 942 658 889 760 q 996 443 996 557 q 929 211 996 317 q 751 44 863 106 q 508 -17 639 -17 m 557 13 q 727 58 651 13 q 847 193 803 104 q 890 404 890 282 q 842 636 890 535 q 705 794 793 738 q 499 851 617 851 q 260 753 346 851 q 174 482 174 654 q 222 244 174 351 q 358 74 271 136 q 557 13 446 13 m 414 996 q 370 1011 386 996 q 354 1053 354 1026 q 370 1094 354 1079 q 414 1110 386 1110 q 456 1095 442 1110 q 471 1053 471 1081 q 456 1011 471 1026 q 414 996 442 996 m 657 996 q 613 1011 629 996 q 597 1053 597 1026 q 613 1094 597 1079 q 657 1110 629 1110 q 700 1095 685 1110 q 715 1053 715 1081 q 700 1010 715 1025 q 657 996 685 996 z "},"Ọ":{"ha":1064,"x_min":68,"x_max":996,"o":"m 508 -17 q 278 44 379 -17 q 123 208 178 104 q 68 433 68 311 q 140 678 68 576 q 326 832 213 781 q 557 883 439 883 q 789 822 689 883 q 942 658 889 760 q 996 443 996 557 q 929 211 996 317 q 751 44 863 106 q 508 -17 639 -17 m 557 13 q 727 58 651 13 q 847 193 803 104 q 890 404 890 282 q 842 636 890 535 q 705 794 793 738 q 499 851 617 851 q 260 753 346 851 q 174 482 174 654 q 222 244 174 351 q 358 74 271 136 q 557 13 446 13 m 550 -264 q 505 -249 521 -264 q 489 -206 489 -233 q 505 -162 489 -178 q 550 -147 521 -147 q 593 -162 578 -147 q 608 -206 608 -178 q 593 -249 608 -233 q 550 -264 578 -264 z "},"Ò":{"ha":1064,"x_min":68,"x_max":996,"o":"m 508 -17 q 278 44 379 -17 q 123 208 178 104 q 68 433 68 311 q 140 678 68 576 q 326 832 213 781 q 557 883 439 883 q 789 822 689 883 q 942 658 889 760 q 996 443 996 557 q 929 211 996 317 q 751 44 863 106 q 508 -17 639 -17 m 557 13 q 727 58 651 13 q 847 193 803 104 q 890 404 890 282 q 842 636 890 535 q 705 794 793 738 q 499 851 617 851 q 260 753 346 851 q 174 482 174 654 q 222 244 174 351 q 358 74 271 136 q 557 13 446 13 m 672 943 q 363 1050 515 1013 q 373 1063 353 1051 q 420 1083 393 1074 q 453 1089 447 1092 l 493 1064 q 678 957 631 982 q 681 951 681 956 q 678 944 681 947 q 672 943 675 942 z "},"Ỏ":{"ha":1064,"x_min":68,"x_max":996,"o":"m 508 -17 q 278 44 379 -17 q 123 208 178 104 q 68 433 68 311 q 140 678 68 576 q 326 832 213 781 q 557 883 439 883 q 789 822 689 883 q 942 658 889 760 q 996 443 996 557 q 929 211 996 317 q 751 44 863 106 q 508 -17 639 -17 m 557 13 q 727 58 651 13 q 847 193 803 104 q 890 404 890 282 q 842 636 890 535 q 705 794 793 738 q 499 851 617 851 q 260 753 346 851 q 174 482 174 654 q 222 244 174 351 q 358 74 271 136 q 557 13 446 13 m 539 904 q 531 901 539 901 q 522 904 524 901 q 518 933 518 919 q 526 973 518 954 q 549 1014 533 992 q 569 1053 563 1039 q 575 1083 575 1067 q 558 1124 575 1110 q 517 1139 542 1139 q 478 1129 497 1139 l 476 1129 q 468 1134 472 1129 q 468 1140 464 1139 q 558 1169 508 1169 q 624 1149 600 1169 q 647 1097 647 1128 q 633 1051 647 1072 q 590 1003 618 1031 q 551 958 564 976 q 538 918 538 939 q 539 904 538 908 z "},"Ơ":{"ha":1064,"x_min":68,"x_max":1018,"o":"m 1018 917 q 872 754 1018 824 q 964 610 932 692 q 996 443 996 529 q 929 211 996 317 q 751 44 863 106 q 508 -17 639 -17 q 278 44 379 -17 q 123 208 178 104 q 68 433 68 311 q 140 678 68 576 q 326 832 213 781 q 557 883 439 883 q 724 853 647 883 q 857 769 800 824 q 916 810 896 788 q 936 856 936 832 q 931 875 936 867 q 924 885 925 883 q 911 903 915 894 q 907 925 907 911 q 924 964 907 950 q 964 978 942 978 q 1004 960 990 978 q 1018 917 1018 942 m 557 13 q 727 58 651 13 q 847 193 803 104 q 890 404 890 282 q 842 636 890 535 q 705 794 793 738 q 499 851 617 851 q 260 753 346 851 q 174 482 174 654 q 222 244 174 351 q 358 74 271 136 q 557 13 446 13 z "},"Ớ":{"ha":1064,"x_min":68,"x_max":1018,"o":"m 1018 917 q 872 754 1018 824 q 964 610 932 692 q 996 443 996 529 q 929 211 996 317 q 751 44 863 106 q 508 -17 639 -17 q 278 44 379 -17 q 123 208 178 104 q 68 433 68 311 q 140 678 68 576 q 326 832 213 781 q 557 883 439 883 q 724 853 647 883 q 857 769 800 824 q 916 810 896 788 q 936 856 936 832 q 931 875 936 867 q 924 885 925 883 q 911 903 915 894 q 907 925 907 911 q 924 964 907 950 q 964 978 942 978 q 1004 960 990 978 q 1018 917 1018 942 m 557 13 q 727 58 651 13 q 847 193 803 104 q 890 404 890 282 q 842 636 890 535 q 705 794 793 738 q 499 851 617 851 q 260 753 346 851 q 174 482 174 654 q 222 244 174 351 q 358 74 271 136 q 557 13 446 13 m 397 942 q 390 948 392 942 q 392 957 388 954 q 535 1039 451 988 q 618 1088 590 1072 q 651 1083 624 1092 q 698 1063 678 1074 q 707 1050 718 1051 q 399 942 543 1008 l 397 942 z "},"Ợ":{"ha":1064,"x_min":68,"x_max":1018,"o":"m 1018 917 q 872 754 1018 824 q 964 610 932 692 q 996 443 996 529 q 929 211 996 317 q 751 44 863 106 q 508 -17 639 -17 q 278 44 379 -17 q 123 208 178 104 q 68 433 68 311 q 140 678 68 576 q 326 832 213 781 q 557 883 439 883 q 724 853 647 883 q 857 769 800 824 q 916 810 896 788 q 936 856 936 832 q 931 875 936 867 q 924 885 925 883 q 911 903 915 894 q 907 925 907 911 q 924 964 907 950 q 964 978 942 978 q 1004 960 990 978 q 1018 917 1018 942 m 557 13 q 727 58 651 13 q 847 193 803 104 q 890 404 890 282 q 842 636 890 535 q 705 794 793 738 q 499 851 617 851 q 260 753 346 851 q 174 482 174 654 q 222 244 174 351 q 358 74 271 136 q 557 13 446 13 m 535 -264 q 490 -249 506 -264 q 474 -206 474 -233 q 490 -162 474 -178 q 535 -147 506 -147 q 578 -162 563 -147 q 593 -206 593 -178 q 578 -249 593 -233 q 535 -264 563 -264 z "},"Ờ":{"ha":1064,"x_min":68,"x_max":1018,"o":"m 1018 917 q 872 754 1018 824 q 964 610 932 692 q 996 443 996 529 q 929 211 996 317 q 751 44 863 106 q 508 -17 639 -17 q 278 44 379 -17 q 123 208 178 104 q 68 433 68 311 q 140 678 68 576 q 326 832 213 781 q 557 883 439 883 q 724 853 647 883 q 857 769 800 824 q 916 810 896 788 q 936 856 936 832 q 931 875 936 867 q 924 885 925 883 q 911 903 915 894 q 907 925 907 911 q 924 964 907 950 q 964 978 942 978 q 1004 960 990 978 q 1018 917 1018 942 m 557 13 q 727 58 651 13 q 847 193 803 104 q 890 404 890 282 q 842 636 890 535 q 705 794 793 738 q 499 851 617 851 q 260 753 346 851 q 174 482 174 654 q 222 244 174 351 q 358 74 271 136 q 557 13 446 13 m 671 943 q 361 1050 514 1013 q 372 1063 351 1051 q 419 1083 392 1074 q 451 1089 446 1092 l 492 1064 q 676 957 629 982 q 679 951 679 956 q 676 944 679 947 q 671 943 674 942 z "},"Ở":{"ha":1064,"x_min":68,"x_max":1018,"o":"m 1018 917 q 872 754 1018 824 q 964 610 932 692 q 996 443 996 529 q 929 211 996 317 q 751 44 863 106 q 508 -17 639 -17 q 278 44 379 -17 q 123 208 178 104 q 68 433 68 311 q 140 678 68 576 q 326 832 213 781 q 557 883 439 883 q 724 853 647 883 q 857 769 800 824 q 916 810 896 788 q 936 856 936 832 q 931 875 936 867 q 924 885 925 883 q 911 903 915 894 q 907 925 907 911 q 924 964 907 950 q 964 978 942 978 q 1004 960 990 978 q 1018 917 1018 942 m 557 13 q 727 58 651 13 q 847 193 803 104 q 890 404 890 282 q 842 636 890 535 q 705 794 793 738 q 499 851 617 851 q 260 753 346 851 q 174 482 174 654 q 222 244 174 351 q 358 74 271 136 q 557 13 446 13 m 525 918 q 519 915 528 915 q 510 918 511 914 q 506 947 506 935 q 513 987 506 968 q 536 1028 521 1006 q 556 1065 550 1050 q 563 1096 563 1079 q 545 1137 563 1122 q 504 1151 528 1151 q 465 1142 485 1151 l 464 1142 q 456 1147 460 1142 q 456 1153 451 1151 q 546 1182 500 1182 q 610 1161 588 1182 q 633 1110 633 1140 q 618 1063 633 1083 q 575 1014 603 1042 q 536 969 549 988 q 524 931 524 951 q 525 918 524 922 z "},"Ỡ":{"ha":1064,"x_min":68,"x_max":1018,"o":"m 1018 917 q 872 754 1018 824 q 964 610 932 692 q 996 443 996 529 q 929 211 996 317 q 751 44 863 106 q 508 -17 639 -17 q 278 44 379 -17 q 123 208 178 104 q 68 433 68 311 q 140 678 68 576 q 326 832 213 781 q 557 883 439 883 q 724 853 647 883 q 857 769 800 824 q 916 810 896 788 q 936 856 936 832 q 931 875 936 867 q 924 885 925 883 q 911 903 915 894 q 907 925 907 911 q 924 964 907 950 q 964 978 942 978 q 1004 960 990 978 q 1018 917 1018 942 m 557 13 q 727 58 651 13 q 847 193 803 104 q 890 404 890 282 q 842 636 890 535 q 705 794 793 738 q 499 851 617 851 q 260 753 346 851 q 174 482 174 654 q 222 244 174 351 q 358 74 271 136 q 557 13 446 13 m 640 1060 q 678 1069 664 1060 q 708 1097 692 1079 l 710 1097 q 717 1094 714 1097 q 718 1088 721 1090 q 658 1019 682 1038 q 608 1001 635 1001 q 524 1018 579 1001 q 488 1028 518 1019 q 426 1036 458 1036 q 394 1029 406 1036 q 373 1013 382 1022 q 358 999 364 1003 l 356 999 q 349 1002 351 999 q 349 1008 346 1006 q 403 1067 372 1040 q 467 1093 435 1093 q 536 1079 486 1093 q 640 1060 600 1060 z "},"Ő":{"ha":1064,"x_min":68,"x_max":996,"o":"m 508 -17 q 278 44 379 -17 q 123 208 178 104 q 68 433 68 311 q 140 678 68 576 q 326 832 213 781 q 557 883 439 883 q 789 822 689 883 q 942 658 889 760 q 996 443 996 557 q 929 211 996 317 q 751 44 863 106 q 508 -17 639 -17 m 557 13 q 727 58 651 13 q 847 193 803 104 q 890 404 890 282 q 842 636 890 535 q 705 794 793 738 q 499 851 617 851 q 260 753 346 851 q 174 482 174 654 q 222 244 174 351 q 358 74 271 136 q 557 13 446 13 m 386 939 q 380 945 382 939 q 381 954 378 951 q 506 1086 447 1017 q 537 1085 510 1092 q 585 1067 564 1078 q 596 1053 606 1057 q 492 1003 539 1029 q 389 940 444 978 l 386 939 m 558 939 q 552 945 554 939 q 553 954 550 951 q 678 1086 619 1017 q 708 1085 682 1092 q 755 1067 735 1078 q 765 1053 775 1057 q 561 940 674 1015 l 558 939 z "},"Ō":{"ha":1064,"x_min":68,"x_max":996,"o":"m 508 -17 q 278 44 379 -17 q 123 208 178 104 q 68 433 68 311 q 140 678 68 576 q 326 832 213 781 q 557 883 439 883 q 789 822 689 883 q 942 658 889 760 q 996 443 996 557 q 929 211 996 317 q 751 44 863 106 q 508 -17 639 -17 m 557 13 q 727 58 651 13 q 847 193 803 104 q 890 404 890 282 q 842 636 890 535 q 705 794 793 738 q 499 851 617 851 q 260 753 346 851 q 174 482 174 654 q 222 244 174 351 q 358 74 271 136 q 557 13 446 13 m 360 1003 q 351 1022 351 1003 q 360 1042 351 1042 l 708 1042 q 717 1022 717 1042 q 708 1003 717 1003 l 360 1003 z "},"Ǫ":{"ha":1064,"x_min":68,"x_max":996,"o":"m 610 -7 q 534 -100 557 -54 q 511 -199 511 -146 q 544 -303 511 -265 q 640 -340 578 -340 q 690 -332 669 -340 q 731 -308 711 -324 l 733 -308 q 741 -312 738 -308 q 740 -319 744 -317 q 590 -382 668 -382 q 475 -344 515 -382 q 435 -244 435 -307 q 576 -12 435 -132 q 508 -17 543 -17 q 278 44 379 -17 q 123 208 178 104 q 68 433 68 311 q 140 678 68 576 q 326 832 213 781 q 557 883 439 883 q 789 822 689 883 q 942 658 889 760 q 996 443 996 557 q 945 238 996 333 q 806 79 894 143 q 610 -7 718 15 m 174 482 q 222 244 174 351 q 358 74 271 136 q 557 13 446 13 q 727 58 651 13 q 847 193 803 104 q 890 404 890 282 q 842 636 890 535 q 705 794 793 738 q 499 851 617 851 q 260 753 346 851 q 174 482 174 654 z "},"Ø":{"ha":1071,"x_min":68,"x_max":996,"o":"m 868 758 q 963 614 929 697 q 996 443 996 531 q 929 211 996 317 q 751 44 863 106 q 508 -17 639 -17 q 346 12 421 -17 q 213 93 271 40 l 111 -10 l 108 -11 q 94 -2 103 -11 q 90 11 86 7 l 192 114 q 100 258 132 175 q 68 433 68 340 q 140 678 68 576 q 326 832 213 781 q 557 883 439 883 q 717 856 643 883 q 847 779 790 829 l 942 875 l 944 876 q 960 868 951 876 q 964 857 968 860 l 868 758 m 174 482 q 195 319 174 396 q 257 181 217 242 l 789 719 q 663 817 738 783 q 499 851 589 851 q 260 753 346 851 q 174 482 174 654 m 557 13 q 727 58 651 13 q 847 193 803 104 q 890 404 890 282 q 869 564 890 489 q 807 697 847 639 l 274 156 q 398 50 325 88 q 557 13 471 13 z "},"Ǿ":{"ha":1071,"x_min":68,"x_max":996,"o":"m 868 758 q 963 614 929 697 q 996 443 996 531 q 929 211 996 317 q 751 44 863 106 q 508 -17 639 -17 q 346 12 421 -17 q 213 93 271 40 l 111 -10 l 108 -11 q 94 -2 103 -11 q 90 11 86 7 l 192 114 q 100 258 132 175 q 68 433 68 340 q 140 678 68 576 q 326 832 213 781 q 557 883 439 883 q 717 856 643 883 q 847 779 790 829 l 942 875 l 944 876 q 960 868 951 876 q 964 857 968 860 l 868 758 m 174 482 q 195 319 174 396 q 257 181 217 242 l 789 719 q 663 817 738 783 q 499 851 589 851 q 260 753 346 851 q 174 482 174 654 m 557 13 q 727 58 651 13 q 847 193 803 104 q 890 404 890 282 q 869 564 890 489 q 807 697 847 639 l 274 156 q 398 50 325 88 q 557 13 471 13 m 401 942 q 394 948 396 942 q 397 957 393 954 q 549 1043 443 982 q 592 1071 574 1060 q 624 1089 611 1082 q 656 1083 629 1092 q 703 1063 683 1074 q 713 1050 722 1051 q 555 1003 626 1029 q 404 943 483 978 l 401 942 z "},"Õ":{"ha":1064,"x_min":68,"x_max":996,"o":"m 508 -17 q 278 44 379 -17 q 123 208 178 104 q 68 433 68 311 q 140 678 68 576 q 326 832 213 781 q 557 883 439 883 q 789 822 689 883 q 942 658 889 760 q 996 443 996 557 q 929 211 996 317 q 751 44 863 106 q 508 -17 639 -17 m 557 13 q 727 58 651 13 q 847 193 803 104 q 890 404 890 282 q 842 636 890 535 q 705 794 793 738 q 499 851 617 851 q 260 753 346 851 q 174 482 174 654 q 222 244 174 351 q 358 74 271 136 q 557 13 446 13 m 643 1031 q 681 1040 667 1031 q 711 1068 696 1050 l 714 1068 q 721 1065 718 1068 q 721 1058 724 1061 q 661 990 685 1007 q 611 972 638 972 q 526 989 582 972 q 431 1006 465 1006 q 396 999 408 1006 q 374 982 383 992 q 361 968 365 972 l 360 968 q 352 972 356 968 q 351 978 349 975 q 406 1038 374 1011 q 469 1065 438 1065 q 539 1050 493 1065 q 578 1040 546 1049 q 643 1031 611 1031 z "},"Œ":{"ha":1269,"x_min":68,"x_max":1200,"o":"m 1185 206 q 1192 209 1185 210 q 1200 204 1200 208 q 1188 21 1188 94 q 1183 5 1188 10 q 1167 0 1179 0 l 753 0 q 656 -3 722 0 q 553 -6 586 -6 q 302 50 413 -6 q 130 203 192 106 q 68 418 68 300 q 133 656 68 553 q 306 815 197 758 q 546 871 415 871 q 640 869 606 871 l 750 868 l 1142 868 q 1156 856 1156 868 l 1158 685 q 1150 680 1158 681 q 1142 683 1142 679 q 1097 794 1139 749 q 993 839 1056 839 l 904 839 q 833 832 856 839 q 801 808 810 825 q 793 754 793 790 l 793 467 l 963 467 q 1059 489 1031 467 q 1088 564 1088 511 q 1095 567 1088 567 q 1103 564 1103 567 l 1101 451 q 1103 390 1101 411 l 1104 324 q 1097 321 1104 321 q 1089 324 1089 321 q 1059 411 1089 385 q 958 438 1029 438 l 793 438 l 793 118 q 801 62 793 81 q 833 36 810 43 q 901 29 856 29 l 1017 29 q 1124 79 1076 29 q 1185 206 1171 129 m 703 742 q 691 805 703 782 q 649 839 679 828 q 560 850 618 850 q 360 803 447 850 q 223 666 272 757 q 174 449 174 575 q 220 228 174 326 q 352 72 267 129 q 551 15 438 15 q 643 22 611 15 q 689 51 675 29 q 703 114 703 72 l 703 742 z "},"P":{"ha":754,"x_min":56,"x_max":696,"o":"m 267 118 q 278 53 267 74 q 324 25 290 33 q 432 17 358 17 q 436 8 436 17 q 432 0 436 0 q 343 1 375 0 l 222 3 l 129 1 q 58 0 103 0 q 56 8 56 0 q 58 17 56 17 q 135 24 111 17 q 168 51 160 31 q 176 113 176 71 l 176 756 q 168 817 176 797 q 135 844 160 836 q 58 851 111 851 q 56 860 56 851 q 58 868 56 868 l 128 867 q 221 864 186 864 q 299 868 256 864 q 351 870 315 868 q 414 872 388 872 q 619 815 542 872 q 696 642 696 758 q 651 488 696 550 q 535 394 606 425 q 389 364 464 364 q 322 371 349 364 q 318 378 318 371 q 320 386 318 382 q 325 389 322 390 q 375 383 347 383 q 530 443 467 383 q 593 615 593 503 q 533 788 593 725 q 381 851 474 851 q 308 846 331 851 q 276 820 286 840 q 267 753 267 800 l 267 118 z "},"Þ":{"ha":747,"x_min":57,"x_max":696,"o":"m 378 204 q 531 265 468 204 q 593 439 593 325 q 529 612 593 550 q 361 674 465 674 q 265 663 314 674 l 265 118 q 277 53 265 74 q 323 25 289 33 q 431 17 357 17 q 435 8 435 17 q 431 0 435 0 q 342 1 374 0 l 221 3 l 129 1 q 60 0 104 0 q 57 8 57 0 q 60 17 57 17 q 135 24 111 17 q 167 51 158 31 q 175 113 175 71 l 175 756 q 167 817 175 797 q 135 844 158 836 q 60 851 111 851 q 57 860 57 851 q 60 868 57 868 l 129 867 q 221 864 185 864 q 342 867 269 864 l 431 868 q 435 860 435 868 q 431 851 435 851 q 323 843 357 851 q 277 814 289 835 q 265 749 265 793 l 265 683 q 396 693 328 693 q 614 638 532 693 q 696 457 696 582 q 650 306 696 367 q 535 215 604 244 q 393 185 465 185 q 324 192 361 185 q 321 199 321 192 q 323 207 321 203 q 328 210 325 211 q 378 204 361 204 z "},"Q":{"ha":1064,"x_min":68,"x_max":1043,"o":"m 1036 -224 q 1041 -230 1039 -224 q 1040 -237 1043 -236 q 922 -254 969 -254 q 720 -191 826 -254 q 536 -15 614 -128 q 508 -17 526 -17 q 278 44 379 -17 q 123 208 178 104 q 68 433 68 311 q 140 678 68 576 q 326 832 213 781 q 557 883 439 883 q 789 822 689 883 q 942 658 889 760 q 996 443 996 557 q 951 249 996 340 q 826 94 906 158 q 647 3 747 31 q 802 -162 706 -97 q 985 -226 899 -226 q 1035 -224 1010 -226 l 1036 -224 m 174 482 q 222 244 174 351 q 358 74 271 136 q 557 13 446 13 q 727 58 651 13 q 847 193 803 104 q 890 404 890 282 q 842 636 890 535 q 705 794 793 738 q 499 851 617 851 q 260 753 346 851 q 174 482 174 654 z "},"R":{"ha":935,"x_min":57,"x_max":951,"o":"m 949 17 q 951 8 951 17 q 949 0 951 0 l 769 0 q 640 119 735 0 q 408 450 544 238 q 333 440 375 440 q 271 443 307 440 l 271 113 q 279 50 271 69 q 312 24 288 31 q 389 17 336 17 q 393 8 393 17 q 389 0 393 0 q 321 1 346 0 l 225 3 l 131 1 q 60 0 106 0 q 57 8 57 0 q 60 17 57 17 q 138 24 113 17 q 172 51 163 32 q 182 113 182 71 l 182 756 q 173 817 182 797 q 140 844 164 836 q 63 851 115 851 q 58 860 58 851 q 63 868 58 868 l 131 867 q 225 864 189 864 q 272 865 250 864 q 311 868 294 867 q 392 872 356 872 q 565 826 504 872 q 626 699 626 781 q 588 573 626 632 q 485 479 549 514 q 683 203 603 303 q 826 60 764 104 q 949 17 889 17 m 271 478 q 353 472 306 472 q 490 513 449 472 q 532 650 532 554 q 363 851 532 851 q 306 845 325 851 q 279 819 288 839 q 271 753 271 799 l 271 478 z "},"Ŕ":{"ha":935,"x_min":57,"x_max":951,"o":"m 949 17 q 951 8 951 17 q 949 0 951 0 l 769 0 q 640 119 735 0 q 408 450 544 238 q 333 440 375 440 q 271 443 307 440 l 271 113 q 279 50 271 69 q 312 24 288 31 q 389 17 336 17 q 393 8 393 17 q 389 0 393 0 q 321 1 346 0 l 225 3 l 131 1 q 60 0 106 0 q 57 8 57 0 q 60 17 57 17 q 138 24 113 17 q 172 51 163 32 q 182 113 182 71 l 182 756 q 173 817 182 797 q 140 844 164 836 q 63 851 115 851 q 58 860 58 851 q 63 868 58 868 l 131 867 q 225 864 189 864 q 272 865 250 864 q 311 868 294 867 q 392 872 356 872 q 565 826 504 872 q 626 699 626 781 q 588 573 626 632 q 485 479 549 514 q 683 203 603 303 q 826 60 764 104 q 949 17 889 17 m 271 478 q 353 472 306 472 q 490 513 449 472 q 532 650 532 554 q 363 851 532 851 q 306 845 325 851 q 279 819 288 839 q 271 753 271 799 l 271 478 m 219 942 q 213 948 214 942 q 215 957 211 954 q 367 1043 261 982 q 410 1071 392 1060 q 442 1089 429 1082 q 474 1083 447 1092 q 521 1063 501 1074 q 531 1050 540 1051 q 373 1003 444 1029 q 222 943 301 978 l 219 942 z "},"Ř":{"ha":935,"x_min":57,"x_max":951,"o":"m 949 17 q 951 8 951 17 q 949 0 951 0 l 769 0 q 640 119 735 0 q 408 450 544 238 q 333 440 375 440 q 271 443 307 440 l 271 113 q 279 50 271 69 q 312 24 288 31 q 389 17 336 17 q 393 8 393 17 q 389 0 393 0 q 321 1 346 0 l 225 3 l 131 1 q 60 0 106 0 q 57 8 57 0 q 60 17 57 17 q 138 24 113 17 q 172 51 163 32 q 182 113 182 71 l 182 756 q 173 817 182 797 q 140 844 164 836 q 63 851 115 851 q 58 860 58 851 q 63 868 58 868 l 131 867 q 225 864 189 864 q 272 865 250 864 q 311 868 294 867 q 392 872 356 872 q 565 826 504 872 q 626 699 626 781 q 588 573 626 632 q 485 479 549 514 q 683 203 603 303 q 826 60 764 104 q 949 17 889 17 m 271 478 q 353 472 306 472 q 490 513 449 472 q 532 650 532 554 q 363 851 532 851 q 306 845 325 851 q 279 819 288 839 q 271 753 271 799 l 271 478 m 197 1089 q 196 1090 196 1089 q 196 1090 196 1090 q 199 1097 196 1093 q 206 1099 203 1100 l 357 1019 l 507 1099 l 508 1099 q 515 1094 513 1099 q 514 1089 518 1090 l 372 954 q 357 949 367 949 q 340 954 346 949 l 197 1089 z "},"Ŗ":{"ha":935,"x_min":57,"x_max":951,"o":"m 949 17 q 951 8 951 17 q 949 0 951 0 l 769 0 q 640 119 735 0 q 408 450 544 238 q 333 440 375 440 q 271 443 307 440 l 271 113 q 279 50 271 69 q 312 24 288 31 q 389 17 336 17 q 393 8 393 17 q 389 0 393 0 q 321 1 346 0 l 225 3 l 131 1 q 60 0 106 0 q 57 8 57 0 q 60 17 57 17 q 138 24 113 17 q 172 51 163 32 q 182 113 182 71 l 182 756 q 173 817 182 797 q 140 844 164 836 q 63 851 115 851 q 58 860 58 851 q 63 868 58 868 l 131 867 q 225 864 189 864 q 272 865 250 864 q 311 868 294 867 q 392 872 356 872 q 565 826 504 872 q 626 699 626 781 q 588 573 626 632 q 485 479 549 514 q 683 203 603 303 q 826 60 764 104 q 949 17 889 17 m 271 478 q 353 472 306 472 q 490 513 449 472 q 532 650 532 554 q 363 851 532 851 q 306 845 325 851 q 279 819 288 839 q 271 753 271 799 l 271 478 m 464 -118 q 523 -144 503 -118 q 543 -219 543 -171 q 522 -305 543 -265 q 458 -382 500 -344 q 454 -383 457 -383 q 447 -378 450 -383 q 447 -371 444 -374 q 508 -247 508 -318 q 500 -207 508 -219 q 458 -228 489 -228 q 419 -212 433 -228 q 404 -174 404 -197 q 464 -118 404 -118 z "},"Ṛ":{"ha":935,"x_min":57,"x_max":951,"o":"m 949 17 q 951 8 951 17 q 949 0 951 0 l 769 0 q 640 119 735 0 q 408 450 544 238 q 333 440 375 440 q 271 443 307 440 l 271 113 q 279 50 271 69 q 312 24 288 31 q 389 17 336 17 q 393 8 393 17 q 389 0 393 0 q 321 1 346 0 l 225 3 l 131 1 q 60 0 106 0 q 57 8 57 0 q 60 17 57 17 q 138 24 113 17 q 172 51 163 32 q 182 113 182 71 l 182 756 q 173 817 182 797 q 140 844 164 836 q 63 851 115 851 q 58 860 58 851 q 63 868 58 868 l 131 867 q 225 864 189 864 q 272 865 250 864 q 311 868 294 867 q 392 872 356 872 q 565 826 504 872 q 626 699 626 781 q 588 573 626 632 q 485 479 549 514 q 683 203 603 303 q 826 60 764 104 q 949 17 889 17 m 271 478 q 353 472 306 472 q 490 513 449 472 q 532 650 532 554 q 363 851 532 851 q 306 845 325 851 q 279 819 288 839 q 271 753 271 799 l 271 478 m 475 -264 q 430 -249 446 -264 q 414 -206 414 -233 q 430 -162 414 -178 q 475 -147 446 -147 q 518 -162 503 -147 q 533 -206 533 -178 q 518 -249 533 -233 q 475 -264 503 -264 z "},"Ṝ":{"ha":935,"x_min":57,"x_max":951,"o":"m 949 17 q 951 8 951 17 q 949 0 951 0 l 769 0 q 640 119 735 0 q 408 450 544 238 q 333 440 375 440 q 271 443 307 440 l 271 113 q 279 50 271 69 q 312 24 288 31 q 389 17 336 17 q 393 8 393 17 q 389 0 393 0 q 321 1 346 0 l 225 3 l 131 1 q 60 0 106 0 q 57 8 57 0 q 60 17 57 17 q 138 24 113 17 q 172 51 163 32 q 182 113 182 71 l 182 756 q 173 817 182 797 q 140 844 164 836 q 63 851 115 851 q 58 860 58 851 q 63 868 58 868 l 131 867 q 225 864 189 864 q 272 865 250 864 q 311 868 294 867 q 392 872 356 872 q 565 826 504 872 q 626 699 626 781 q 588 573 626 632 q 485 479 549 514 q 683 203 603 303 q 826 60 764 104 q 949 17 889 17 m 271 478 q 353 472 306 472 q 490 513 449 472 q 532 650 532 554 q 363 851 532 851 q 306 845 325 851 q 279 819 288 839 q 271 753 271 799 l 271 478 m 475 -264 q 430 -249 446 -264 q 414 -206 414 -233 q 430 -162 414 -178 q 475 -147 446 -147 q 518 -162 503 -147 q 533 -206 533 -178 q 518 -249 533 -233 q 475 -264 503 -264 m 182 1003 q 174 1022 174 1003 q 182 1042 174 1042 l 531 1042 q 539 1022 539 1042 q 531 1003 539 1003 l 182 1003 z "},"Ṟ":{"ha":935,"x_min":57,"x_max":951,"o":"m 949 17 q 951 8 951 17 q 949 0 951 0 l 769 0 q 640 119 735 0 q 408 450 544 238 q 333 440 375 440 q 271 443 307 440 l 271 113 q 279 50 271 69 q 312 24 288 31 q 389 17 336 17 q 393 8 393 17 q 389 0 393 0 q 321 1 346 0 l 225 3 l 131 1 q 60 0 106 0 q 57 8 57 0 q 60 17 57 17 q 138 24 113 17 q 172 51 163 32 q 182 113 182 71 l 182 756 q 173 817 182 797 q 140 844 164 836 q 63 851 115 851 q 58 860 58 851 q 63 868 58 868 l 131 867 q 225 864 189 864 q 272 865 250 864 q 311 868 294 867 q 392 872 356 872 q 565 826 504 872 q 626 699 626 781 q 588 573 626 632 q 485 479 549 514 q 683 203 603 303 q 826 60 764 104 q 949 17 889 17 m 271 478 q 353 472 306 472 q 490 513 449 472 q 532 650 532 554 q 363 851 532 851 q 306 845 325 851 q 279 819 288 839 q 271 753 271 799 l 271 478 m 299 -157 q 290 -137 290 -157 q 299 -118 290 -118 l 647 -118 q 656 -137 656 -118 q 647 -157 656 -157 l 299 -157 z "},"S":{"ha":682,"x_min":93,"x_max":607,"o":"m 201 706 q 228 611 201 651 q 292 544 254 571 q 397 475 329 517 q 510 403 469 432 q 578 328 550 374 q 607 221 607 283 q 574 100 607 154 q 476 15 540 46 q 321 -17 411 -17 q 125 32 214 -17 q 116 42 118 36 q 113 58 114 47 l 94 247 q 101 254 93 253 q 110 250 108 256 q 192 78 132 150 q 353 6 253 6 q 470 44 422 6 q 518 165 518 82 q 490 274 518 228 q 423 349 463 319 q 315 419 383 379 q 210 489 249 460 q 146 563 172 518 q 119 667 119 607 q 156 785 119 736 q 252 859 193 835 q 378 883 311 883 q 540 850 460 883 q 561 826 561 843 l 571 667 q 564 661 571 661 q 556 667 557 661 q 496 801 544 739 q 356 863 447 863 q 240 817 278 863 q 201 706 201 772 z "},"Ś":{"ha":682,"x_min":94,"x_max":607,"o":"m 201 706 q 228 611 201 651 q 292 544 254 571 q 397 475 329 517 q 510 403 469 432 q 578 328 550 374 q 607 221 607 283 q 574 100 607 154 q 476 15 540 46 q 321 -17 411 -17 q 125 32 214 -17 q 116 42 118 36 q 113 58 114 47 l 94 247 q 101 254 93 253 q 110 250 108 256 q 192 78 132 150 q 353 6 253 6 q 470 44 422 6 q 518 165 518 82 q 490 274 518 228 q 423 349 463 319 q 315 419 383 379 q 210 489 249 460 q 146 563 172 518 q 119 667 119 607 q 156 785 119 736 q 252 859 193 835 q 378 883 311 883 q 540 850 460 883 q 561 826 561 843 l 571 667 q 564 661 571 661 q 556 667 557 661 q 496 801 544 739 q 356 863 447 863 q 240 817 278 863 q 201 706 201 772 m 217 942 q 210 948 211 942 q 213 957 208 954 q 364 1043 258 982 q 408 1071 389 1060 q 439 1089 426 1082 q 472 1083 444 1092 q 518 1063 499 1074 q 528 1050 538 1051 q 370 1003 442 1029 q 219 943 299 978 l 217 942 z "},"Š":{"ha":682,"x_min":94,"x_max":607,"o":"m 201 706 q 228 611 201 651 q 292 544 254 571 q 397 475 329 517 q 510 403 469 432 q 578 328 550 374 q 607 221 607 283 q 574 100 607 154 q 476 15 540 46 q 321 -17 411 -17 q 125 32 214 -17 q 116 42 118 36 q 113 58 114 47 l 94 247 q 101 254 93 253 q 110 250 108 256 q 192 78 132 150 q 353 6 253 6 q 470 44 422 6 q 518 165 518 82 q 490 274 518 228 q 423 349 463 319 q 315 419 383 379 q 210 489 249 460 q 146 563 172 518 q 119 667 119 607 q 156 785 119 736 q 252 859 193 835 q 378 883 311 883 q 540 850 460 883 q 561 826 561 843 l 571 667 q 564 661 571 661 q 556 667 557 661 q 496 801 544 739 q 356 863 447 863 q 240 817 278 863 q 201 706 201 772 m 194 1089 q 193 1090 193 1089 q 193 1090 193 1090 q 197 1097 193 1093 q 203 1099 200 1100 l 354 1019 l 504 1099 l 506 1099 q 513 1094 510 1099 q 511 1089 515 1090 l 369 954 q 354 949 364 949 q 338 954 343 949 l 194 1089 z "},"Ş":{"ha":682,"x_min":93,"x_max":607,"o":"m 607 221 q 542 61 607 126 q 361 -15 478 -4 q 347 -79 347 -57 q 359 -109 347 -99 q 408 -142 371 -119 q 463 -186 443 -161 q 483 -249 483 -211 q 447 -341 483 -300 q 339 -382 410 -382 q 275 -368 300 -382 q 250 -329 250 -354 q 263 -299 250 -311 q 292 -287 275 -287 q 315 -295 307 -287 q 332 -318 324 -303 q 352 -345 342 -336 q 383 -354 363 -354 q 431 -301 431 -354 q 405 -237 431 -265 q 311 -172 379 -208 q 292 -154 292 -162 q 299 -131 292 -149 q 342 -17 317 -87 l 321 -17 q 125 32 214 -17 q 116 42 118 36 q 113 58 114 47 l 94 247 q 101 254 93 253 q 110 250 108 256 q 192 78 132 150 q 353 6 253 6 q 470 44 422 6 q 518 165 518 82 q 490 274 518 228 q 423 349 463 319 q 315 419 383 379 q 210 489 249 460 q 146 563 172 518 q 119 667 119 607 q 156 785 119 736 q 252 859 193 835 q 378 883 311 883 q 540 850 460 883 q 561 826 561 843 l 571 667 q 564 661 571 661 q 556 667 557 661 q 496 801 544 739 q 356 863 447 863 q 240 817 278 863 q 201 706 201 772 q 228 611 201 651 q 292 544 254 571 q 397 475 329 517 q 510 403 469 432 q 578 328 550 374 q 607 221 607 283 z "},"Ŝ":{"ha":682,"x_min":94,"x_max":607,"o":"m 201 706 q 228 611 201 651 q 292 544 254 571 q 397 475 329 517 q 510 403 469 432 q 578 328 550 374 q 607 221 607 283 q 574 100 607 154 q 476 15 540 46 q 321 -17 411 -17 q 125 32 214 -17 q 116 42 118 36 q 113 58 114 47 l 94 247 q 101 254 93 253 q 110 250 108 256 q 192 78 132 150 q 353 6 253 6 q 470 44 422 6 q 518 165 518 82 q 490 274 518 228 q 423 349 463 319 q 315 419 383 379 q 210 489 249 460 q 146 563 172 518 q 119 667 119 607 q 156 785 119 736 q 252 859 193 835 q 378 883 311 883 q 540 850 460 883 q 561 826 561 843 l 571 667 q 564 661 571 661 q 556 667 557 661 q 496 801 544 739 q 356 863 447 863 q 240 817 278 863 q 201 706 201 772 m 339 1097 q 356 1104 346 1104 q 371 1097 364 1104 l 513 961 q 514 958 514 961 q 510 953 514 956 q 506 951 507 950 l 356 1032 l 204 951 q 197 955 201 950 q 196 961 193 960 l 339 1097 z "},"Ș":{"ha":682,"x_min":94,"x_max":607,"o":"m 201 706 q 228 611 201 651 q 292 544 254 571 q 397 475 329 517 q 510 403 469 432 q 578 328 550 374 q 607 221 607 283 q 574 100 607 154 q 476 15 540 46 q 321 -17 411 -17 q 125 32 214 -17 q 116 42 118 36 q 113 58 114 47 l 94 247 q 101 254 93 253 q 110 250 108 256 q 192 78 132 150 q 353 6 253 6 q 470 44 422 6 q 518 165 518 82 q 490 274 518 228 q 423 349 463 319 q 315 419 383 379 q 210 489 249 460 q 146 563 172 518 q 119 667 119 607 q 156 785 119 736 q 252 859 193 835 q 378 883 311 883 q 540 850 460 883 q 561 826 561 843 l 571 667 q 564 661 571 661 q 556 667 557 661 q 496 801 544 739 q 356 863 447 863 q 240 817 278 863 q 201 706 201 772 m 358 -118 q 417 -144 397 -118 q 438 -219 438 -171 q 416 -305 438 -265 q 353 -382 394 -344 q 349 -383 351 -383 q 342 -378 344 -383 q 342 -371 339 -374 q 403 -247 403 -318 q 394 -207 403 -219 q 353 -228 383 -228 q 313 -212 328 -228 q 299 -174 299 -197 q 358 -118 299 -118 z "},"Ṡ":{"ha":682,"x_min":94,"x_max":607,"o":"m 201 706 q 228 611 201 651 q 292 544 254 571 q 397 475 329 517 q 510 403 469 432 q 578 328 550 374 q 607 221 607 283 q 574 100 607 154 q 476 15 540 46 q 321 -17 411 -17 q 125 32 214 -17 q 116 42 118 36 q 113 58 114 47 l 94 247 q 101 254 93 253 q 110 250 108 256 q 192 78 132 150 q 353 6 253 6 q 470 44 422 6 q 518 165 518 82 q 490 274 518 228 q 423 349 463 319 q 315 419 383 379 q 210 489 249 460 q 146 563 172 518 q 119 667 119 607 q 156 785 119 736 q 252 859 193 835 q 378 883 311 883 q 540 850 460 883 q 561 826 561 843 l 571 667 q 564 661 571 661 q 556 667 557 661 q 496 801 544 739 q 356 863 447 863 q 240 817 278 863 q 201 706 201 772 m 354 990 q 309 1006 325 990 q 293 1050 293 1022 q 309 1093 293 1078 q 354 1108 325 1108 q 397 1093 382 1108 q 413 1050 413 1078 q 397 1006 413 1022 q 354 990 382 990 z "},"Ṣ":{"ha":682,"x_min":94,"x_max":607,"o":"m 201 706 q 228 611 201 651 q 292 544 254 571 q 397 475 329 517 q 510 403 469 432 q 578 328 550 374 q 607 221 607 283 q 574 100 607 154 q 476 15 540 46 q 321 -17 411 -17 q 125 32 214 -17 q 116 42 118 36 q 113 58 114 47 l 94 247 q 101 254 93 253 q 110 250 108 256 q 192 78 132 150 q 353 6 253 6 q 470 44 422 6 q 518 165 518 82 q 490 274 518 228 q 423 349 463 319 q 315 419 383 379 q 210 489 249 460 q 146 563 172 518 q 119 667 119 607 q 156 785 119 736 q 252 859 193 835 q 378 883 311 883 q 540 850 460 883 q 561 826 561 843 l 571 667 q 564 661 571 661 q 556 667 557 661 q 496 801 544 739 q 356 863 447 863 q 240 817 278 863 q 201 706 201 772 m 369 -264 q 324 -249 340 -264 q 308 -206 308 -233 q 324 -162 308 -178 q 369 -147 340 -147 q 413 -162 397 -147 q 428 -206 428 -178 q 413 -249 428 -233 q 369 -264 397 -264 z "},"ẞ":{"ha":961,"x_min":32,"x_max":888,"o":"m 667 13 q 772 52 728 13 q 817 163 817 92 q 758 310 817 239 q 568 476 700 382 q 563 497 556 483 l 718 742 q 553 813 633 789 q 408 836 472 836 q 313 812 349 836 q 260 727 278 788 q 243 558 243 667 l 243 113 q 251 50 243 69 q 283 24 260 31 q 360 17 307 17 q 364 8 364 17 q 360 0 364 0 l 196 1 l 36 0 q 32 8 32 0 q 36 17 32 17 q 110 24 86 17 q 144 51 135 32 q 154 113 154 71 l 154 524 q 192 697 154 614 q 306 831 231 779 q 486 883 382 883 q 721 836 576 883 q 760 826 753 826 q 783 835 774 826 q 813 874 792 844 q 821 878 817 878 q 828 875 825 878 q 828 868 831 872 l 621 543 q 825 376 763 449 q 888 229 888 304 q 855 114 888 171 q 761 20 822 57 q 619 -17 700 -17 q 537 -7 574 -17 q 458 28 500 3 q 446 54 446 35 l 428 199 q 434 206 426 204 q 443 201 442 207 q 488 113 453 157 q 572 40 524 68 q 667 13 621 13 z "},"Ə":{"ha":889,"x_min":65,"x_max":814,"o":"m 394 883 q 642 821 549 883 q 775 660 736 758 q 814 450 814 563 q 756 200 814 306 q 597 39 697 94 q 375 -17 497 -17 q 201 22 271 -17 q 98 117 131 61 q 65 226 65 174 q 69 240 65 236 q 82 243 74 243 l 694 246 q 711 400 711 315 q 674 637 711 531 q 564 804 636 743 q 393 865 492 865 q 215 814 300 865 q 99 668 131 763 q 89 664 97 663 q 82 669 81 665 l 140 886 q 149 891 142 892 q 156 885 157 890 q 154 869 154 879 q 178 843 154 843 q 193 846 182 843 q 297 875 253 867 q 394 883 340 883 m 424 10 q 591 64 524 10 q 688 219 658 118 l 168 213 q 250 65 179 121 q 424 10 321 10 z "},"T":{"ha":881,"x_min":53,"x_max":831,"o":"m 263 843 q 131 799 175 843 q 68 647 88 754 q 60 644 68 644 q 53 647 53 644 q 65 778 58 697 q 72 899 72 858 q 80 906 72 906 q 88 899 88 906 q 163 868 88 868 q 442 864 281 864 q 615 867 524 864 l 710 868 q 784 875 760 868 q 815 903 808 882 q 824 908 817 908 q 831 903 831 908 q 822 781 826 863 q 818 647 818 699 q 810 644 818 644 q 801 647 801 644 q 757 799 797 756 q 624 843 717 843 q 535 838 561 843 q 499 814 508 832 q 489 753 489 796 l 489 113 q 499 50 489 69 q 536 24 508 31 q 624 17 564 17 q 628 8 628 17 q 624 0 628 0 q 550 1 578 0 l 442 3 l 338 1 q 261 0 310 0 q 258 8 258 0 q 261 17 258 17 q 349 24 321 17 q 387 51 376 31 q 397 113 397 71 l 397 756 q 388 816 397 799 q 351 838 378 833 q 263 843 325 843 z "},"Ŧ":{"ha":878,"x_min":53,"x_max":831,"o":"m 815 903 q 824 908 817 908 q 831 903 831 908 q 822 781 826 863 q 818 647 818 699 q 810 644 818 644 q 801 647 801 644 q 757 799 797 756 q 624 843 717 843 q 535 838 561 843 q 499 814 508 832 q 489 753 489 796 l 489 463 l 628 463 q 633 458 631 463 q 635 449 635 454 q 628 433 635 433 l 489 433 l 489 113 q 499 50 489 69 q 536 24 508 31 q 624 17 564 17 q 628 8 628 17 q 624 0 628 0 q 550 1 578 0 l 442 3 l 338 1 q 261 0 310 0 q 258 8 258 0 q 261 17 258 17 q 349 24 321 17 q 387 51 376 31 q 397 113 397 71 l 397 433 l 260 433 q 254 449 254 433 q 260 463 254 463 l 397 463 l 397 756 q 388 816 397 799 q 351 838 378 833 q 263 843 325 843 q 131 799 175 843 q 68 647 88 754 q 60 644 68 644 q 53 647 53 644 q 65 778 58 697 q 72 899 72 858 q 80 906 72 906 q 88 899 88 906 q 163 868 88 868 q 442 864 281 864 q 615 867 524 864 l 710 868 q 784 875 760 868 q 815 903 808 882 z "},"Ť":{"ha":881,"x_min":53,"x_max":831,"o":"m 263 843 q 131 799 175 843 q 68 647 88 754 q 60 644 68 644 q 53 647 53 644 q 65 778 58 697 q 72 899 72 858 q 80 906 72 906 q 88 899 88 906 q 163 868 88 868 q 442 864 281 864 q 615 867 524 864 l 710 868 q 784 875 760 868 q 815 903 808 882 q 824 908 817 908 q 831 903 831 908 q 822 781 826 863 q 818 647 818 699 q 810 644 818 644 q 801 647 801 644 q 757 799 797 756 q 624 843 717 843 q 535 838 561 843 q 499 814 508 832 q 489 753 489 796 l 489 113 q 499 50 489 69 q 536 24 508 31 q 624 17 564 17 q 628 8 628 17 q 624 0 628 0 q 550 1 578 0 l 442 3 l 338 1 q 261 0 310 0 q 258 8 258 0 q 261 17 258 17 q 349 24 321 17 q 387 51 376 31 q 397 113 397 71 l 397 756 q 388 816 397 799 q 351 838 378 833 q 263 843 325 843 m 281 1089 q 279 1090 279 1089 q 279 1090 279 1090 q 283 1097 279 1093 q 289 1099 286 1100 l 440 1019 l 590 1099 l 592 1099 q 599 1094 596 1099 q 597 1089 601 1090 l 456 954 q 440 949 450 949 q 424 954 429 949 l 281 1089 z "},"Ţ":{"ha":881,"x_min":53,"x_max":831,"o":"m 815 903 q 824 908 817 908 q 831 903 831 908 q 822 781 826 863 q 818 647 818 699 q 810 644 818 644 q 801 647 801 644 q 757 799 797 756 q 624 843 717 843 q 535 838 561 843 q 499 814 508 832 q 489 753 489 796 l 489 113 q 499 50 489 69 q 536 24 508 31 q 624 17 564 17 q 628 8 628 17 q 624 0 628 0 q 553 1 579 0 l 449 3 q 431 -75 431 -56 q 443 -110 431 -97 q 488 -142 456 -124 q 542 -186 522 -161 q 563 -249 563 -211 q 526 -341 563 -300 q 418 -382 489 -382 q 354 -368 379 -382 q 329 -329 329 -354 q 342 -299 329 -311 q 371 -287 354 -287 q 394 -295 386 -287 q 411 -318 403 -303 q 431 -345 421 -336 q 463 -354 442 -354 q 510 -301 510 -354 q 484 -237 510 -265 q 390 -172 458 -208 q 371 -154 371 -162 q 378 -131 371 -149 l 429 3 l 332 1 q 261 0 307 0 q 258 8 258 0 q 261 17 258 17 q 349 24 321 17 q 387 51 376 31 q 397 113 397 71 l 397 756 q 388 816 397 799 q 351 838 378 833 q 263 843 325 843 q 131 799 175 843 q 68 647 88 754 q 60 644 68 644 q 53 647 53 644 q 65 778 58 697 q 72 899 72 858 q 80 906 72 906 q 88 899 88 906 q 163 868 88 868 q 442 864 281 864 q 615 867 524 864 l 710 868 q 784 875 760 868 q 815 903 808 882 z "},"Ț":{"ha":881,"x_min":53,"x_max":831,"o":"m 263 843 q 131 799 175 843 q 68 647 88 754 q 60 644 68 644 q 53 647 53 644 q 65 778 58 697 q 72 899 72 858 q 80 906 72 906 q 88 899 88 906 q 163 868 88 868 q 442 864 281 864 q 615 867 524 864 l 710 868 q 784 875 760 868 q 815 903 808 882 q 824 908 817 908 q 831 903 831 908 q 822 781 826 863 q 818 647 818 699 q 810 644 818 644 q 801 647 801 644 q 757 799 797 756 q 624 843 717 843 q 535 838 561 843 q 499 814 508 832 q 489 753 489 796 l 489 113 q 499 50 489 69 q 536 24 508 31 q 624 17 564 17 q 628 8 628 17 q 624 0 628 0 q 550 1 578 0 l 442 3 l 338 1 q 261 0 310 0 q 258 8 258 0 q 261 17 258 17 q 349 24 321 17 q 387 51 376 31 q 397 113 397 71 l 397 756 q 388 816 397 799 q 351 838 378 833 q 263 843 325 843 m 439 -118 q 498 -144 478 -118 q 518 -219 518 -171 q 497 -305 518 -265 q 433 -382 475 -344 q 429 -383 432 -383 q 422 -378 425 -383 q 422 -371 419 -374 q 483 -247 483 -318 q 475 -207 483 -219 q 433 -228 464 -228 q 394 -212 408 -228 q 379 -174 379 -197 q 439 -118 379 -118 z "},"Ṭ":{"ha":881,"x_min":53,"x_max":831,"o":"m 263 843 q 131 799 175 843 q 68 647 88 754 q 60 644 68 644 q 53 647 53 644 q 65 778 58 697 q 72 899 72 858 q 80 906 72 906 q 88 899 88 906 q 163 868 88 868 q 442 864 281 864 q 615 867 524 864 l 710 868 q 784 875 760 868 q 815 903 808 882 q 824 908 817 908 q 831 903 831 908 q 822 781 826 863 q 818 647 818 699 q 810 644 818 644 q 801 647 801 644 q 757 799 797 756 q 624 843 717 843 q 535 838 561 843 q 499 814 508 832 q 489 753 489 796 l 489 113 q 499 50 489 69 q 536 24 508 31 q 624 17 564 17 q 628 8 628 17 q 624 0 628 0 q 550 1 578 0 l 442 3 l 338 1 q 261 0 310 0 q 258 8 258 0 q 261 17 258 17 q 349 24 321 17 q 387 51 376 31 q 397 113 397 71 l 397 756 q 388 816 397 799 q 351 838 378 833 q 263 843 325 843 m 450 -264 q 405 -249 421 -264 q 389 -206 389 -233 q 405 -162 389 -178 q 450 -147 421 -147 q 493 -162 478 -147 q 508 -206 508 -178 q 493 -249 508 -233 q 450 -264 478 -264 z "},"Ṯ":{"ha":881,"x_min":53,"x_max":831,"o":"m 263 843 q 131 799 175 843 q 68 647 88 754 q 60 644 68 644 q 53 647 53 644 q 65 778 58 697 q 72 899 72 858 q 80 906 72 906 q 88 899 88 906 q 163 868 88 868 q 442 864 281 864 q 615 867 524 864 l 710 868 q 784 875 760 868 q 815 903 808 882 q 824 908 817 908 q 831 903 831 908 q 822 781 826 863 q 818 647 818 699 q 810 644 818 644 q 801 647 801 644 q 757 799 797 756 q 624 843 717 843 q 535 838 561 843 q 499 814 508 832 q 489 753 489 796 l 489 113 q 499 50 489 69 q 536 24 508 31 q 624 17 564 17 q 628 8 628 17 q 624 0 628 0 q 550 1 578 0 l 442 3 l 338 1 q 261 0 310 0 q 258 8 258 0 q 261 17 258 17 q 349 24 321 17 q 387 51 376 31 q 397 113 397 71 l 397 756 q 388 816 397 799 q 351 838 378 833 q 263 843 325 843 m 274 -157 q 265 -137 265 -157 q 274 -118 265 -118 l 622 -118 q 631 -137 631 -118 q 622 -157 631 -157 l 274 -157 z "},"U":{"ha":969,"x_min":38,"x_max":942,"o":"m 794 715 q 674 851 794 851 q 669 860 669 851 q 674 868 669 868 l 733 867 q 813 864 783 864 q 881 867 836 864 l 939 868 q 942 860 942 868 q 939 851 942 851 q 828 715 828 851 l 828 321 q 739 72 828 161 q 500 -18 650 -18 q 320 22 397 -18 q 201 137 243 63 q 158 311 158 211 l 158 756 q 150 817 158 797 q 117 844 142 836 q 40 851 93 851 q 38 860 38 851 q 40 868 38 868 l 108 867 q 203 864 167 864 q 300 867 242 864 l 367 868 q 371 860 371 868 q 367 851 371 851 q 290 843 315 851 q 257 815 265 835 q 249 753 249 794 l 249 360 q 323 110 249 197 q 531 24 397 24 q 725 102 656 24 q 794 319 794 181 l 794 715 z "},"Ú":{"ha":969,"x_min":38,"x_max":942,"o":"m 794 715 q 674 851 794 851 q 669 860 669 851 q 674 868 669 868 l 733 867 q 813 864 783 864 q 881 867 836 864 l 939 868 q 942 860 942 868 q 939 851 942 851 q 828 715 828 851 l 828 321 q 739 72 828 161 q 500 -18 650 -18 q 320 22 397 -18 q 201 137 243 63 q 158 311 158 211 l 158 756 q 150 817 158 797 q 117 844 142 836 q 40 851 93 851 q 38 860 38 851 q 40 868 38 868 l 108 867 q 203 864 167 864 q 300 867 242 864 l 367 868 q 371 860 371 868 q 367 851 371 851 q 290 843 315 851 q 257 815 265 835 q 249 753 249 794 l 249 360 q 323 110 249 197 q 531 24 397 24 q 725 102 656 24 q 794 319 794 181 l 794 715 m 382 942 q 375 948 376 942 q 378 957 374 954 q 529 1043 424 982 q 573 1071 554 1060 q 604 1089 592 1082 q 637 1083 610 1092 q 683 1063 664 1074 q 693 1050 703 1051 q 535 1003 607 1029 q 385 943 464 978 l 382 942 z "},"Ŭ":{"ha":969,"x_min":38,"x_max":942,"o":"m 794 715 q 674 851 794 851 q 669 860 669 851 q 674 868 669 868 l 733 867 q 813 864 783 864 q 881 867 836 864 l 939 868 q 942 860 942 868 q 939 851 942 851 q 828 715 828 851 l 828 321 q 739 72 828 161 q 500 -18 650 -18 q 320 22 397 -18 q 201 137 243 63 q 158 311 158 211 l 158 756 q 150 817 158 797 q 117 844 142 836 q 40 851 93 851 q 38 860 38 851 q 40 868 38 868 l 108 867 q 203 864 167 864 q 300 867 242 864 l 367 868 q 371 860 371 868 q 367 851 371 851 q 290 843 315 851 q 257 815 265 835 q 249 753 249 794 l 249 360 q 323 110 249 197 q 531 24 397 24 q 725 102 656 24 q 794 319 794 181 l 794 715 m 519 958 q 424 997 461 958 q 376 1107 388 1036 q 382 1113 375 1113 q 392 1111 389 1114 q 438 1046 401 1074 q 519 1018 475 1018 q 599 1046 563 1018 q 646 1111 636 1074 q 651 1114 646 1114 q 659 1112 656 1114 q 661 1107 663 1110 q 614 997 650 1035 q 519 958 578 958 z "},"Ǔ":{"ha":969,"x_min":38,"x_max":942,"o":"m 794 715 q 674 851 794 851 q 669 860 669 851 q 674 868 669 868 l 733 867 q 813 864 783 864 q 881 867 836 864 l 939 868 q 942 860 942 868 q 939 851 942 851 q 828 715 828 851 l 828 321 q 739 72 828 161 q 500 -18 650 -18 q 320 22 397 -18 q 201 137 243 63 q 158 311 158 211 l 158 756 q 150 817 158 797 q 117 844 142 836 q 40 851 93 851 q 38 860 38 851 q 40 868 38 868 l 108 867 q 203 864 167 864 q 300 867 242 864 l 367 868 q 371 860 371 868 q 367 851 371 851 q 290 843 315 851 q 257 815 265 835 q 249 753 249 794 l 249 360 q 323 110 249 197 q 531 24 397 24 q 725 102 656 24 q 794 319 794 181 l 794 715 m 360 1089 q 358 1090 358 1089 q 358 1090 358 1090 q 362 1097 358 1093 q 368 1099 365 1100 l 519 1019 l 669 1099 l 671 1099 q 678 1094 675 1099 q 676 1089 681 1090 l 535 954 q 519 949 529 949 q 503 954 508 949 l 360 1089 z "},"Û":{"ha":969,"x_min":38,"x_max":942,"o":"m 794 715 q 674 851 794 851 q 669 860 669 851 q 674 868 669 868 l 733 867 q 813 864 783 864 q 881 867 836 864 l 939 868 q 942 860 942 868 q 939 851 942 851 q 828 715 828 851 l 828 321 q 739 72 828 161 q 500 -18 650 -18 q 320 22 397 -18 q 201 137 243 63 q 158 311 158 211 l 158 756 q 150 817 158 797 q 117 844 142 836 q 40 851 93 851 q 38 860 38 851 q 40 868 38 868 l 108 867 q 203 864 167 864 q 300 867 242 864 l 367 868 q 371 860 371 868 q 367 851 371 851 q 290 843 315 851 q 257 815 265 835 q 249 753 249 794 l 249 360 q 323 110 249 197 q 531 24 397 24 q 725 102 656 24 q 794 319 794 181 l 794 715 m 504 1097 q 521 1104 511 1104 q 536 1097 529 1104 l 678 961 q 679 958 679 961 q 676 953 679 956 q 671 951 672 950 l 521 1032 l 369 951 q 363 955 367 950 q 361 961 358 960 l 504 1097 z "},"Ü":{"ha":969,"x_min":38,"x_max":942,"o":"m 794 715 q 674 851 794 851 q 669 860 669 851 q 674 868 669 868 l 733 867 q 813 864 783 864 q 881 867 836 864 l 939 868 q 942 860 942 868 q 939 851 942 851 q 828 715 828 851 l 828 321 q 739 72 828 161 q 500 -18 650 -18 q 320 22 397 -18 q 201 137 243 63 q 158 311 158 211 l 158 756 q 150 817 158 797 q 117 844 142 836 q 40 851 93 851 q 38 860 38 851 q 40 868 38 868 l 108 867 q 203 864 167 864 q 300 867 242 864 l 367 868 q 371 860 371 868 q 367 851 371 851 q 290 843 315 851 q 257 815 265 835 q 249 753 249 794 l 249 360 q 323 110 249 197 q 531 24 397 24 q 725 102 656 24 q 794 319 794 181 l 794 715 m 399 996 q 355 1011 371 996 q 339 1053 339 1026 q 355 1094 339 1079 q 399 1110 371 1110 q 441 1095 426 1110 q 456 1053 456 1081 q 441 1011 456 1026 q 399 996 426 996 m 642 996 q 598 1011 614 996 q 582 1053 582 1026 q 598 1094 582 1079 q 642 1110 614 1110 q 685 1095 669 1110 q 700 1053 700 1081 q 685 1010 700 1025 q 642 996 669 996 z "},"Ǘ":{"ha":969,"x_min":38,"x_max":942,"o":"m 794 715 q 674 851 794 851 q 669 860 669 851 q 674 868 669 868 l 733 867 q 813 864 783 864 q 881 867 836 864 l 939 868 q 942 860 942 868 q 939 851 942 851 q 828 715 828 851 l 828 321 q 739 72 828 161 q 500 -18 650 -18 q 320 22 397 -18 q 201 137 243 63 q 158 311 158 211 l 158 756 q 150 817 158 797 q 117 844 142 836 q 40 851 93 851 q 38 860 38 851 q 40 868 38 868 l 108 867 q 203 864 167 864 q 300 867 242 864 l 367 868 q 371 860 371 868 q 367 851 371 851 q 290 843 315 851 q 257 815 265 835 q 249 753 249 794 l 249 360 q 323 110 249 197 q 531 24 397 24 q 725 102 656 24 q 794 319 794 181 l 794 715 m 358 1138 q 351 1144 353 1138 q 354 1153 349 1151 q 508 1235 399 1174 q 594 1283 582 1276 q 627 1278 600 1288 q 674 1258 654 1269 q 685 1244 694 1247 q 360 1138 515 1204 l 358 1138 m 399 979 q 355 994 371 979 q 339 1038 339 1010 q 355 1078 339 1064 q 399 1093 371 1093 q 440 1078 425 1093 q 456 1038 456 1064 q 441 994 456 1010 q 399 979 426 979 m 642 979 q 598 994 614 979 q 582 1038 582 1010 q 598 1078 582 1064 q 642 1093 614 1093 q 685 1078 669 1093 q 700 1038 700 1064 q 685 994 700 1010 q 642 979 669 979 z "},"Ǚ":{"ha":969,"x_min":38,"x_max":942,"o":"m 794 715 q 674 851 794 851 q 669 860 669 851 q 674 868 669 868 l 733 867 q 813 864 783 864 q 881 867 836 864 l 939 868 q 942 860 942 868 q 939 851 942 851 q 828 715 828 851 l 828 321 q 739 72 828 161 q 500 -18 650 -18 q 320 22 397 -18 q 201 137 243 63 q 158 311 158 211 l 158 756 q 150 817 158 797 q 117 844 142 836 q 40 851 93 851 q 38 860 38 851 q 40 868 38 868 l 108 867 q 203 864 167 864 q 300 867 242 864 l 367 868 q 371 860 371 868 q 367 851 371 851 q 290 843 315 851 q 257 815 265 835 q 249 753 249 794 l 249 360 q 323 110 249 197 q 531 24 397 24 q 725 102 656 24 q 794 319 794 181 l 794 715 m 360 1267 q 358 1267 358 1267 q 358 1268 358 1268 q 362 1274 358 1271 q 368 1276 365 1278 l 524 1194 l 676 1276 l 679 1276 q 685 1273 683 1276 q 685 1267 688 1269 l 538 1132 q 522 1126 532 1126 q 507 1132 513 1126 l 360 1267 m 399 979 q 355 994 371 979 q 339 1038 339 1010 q 355 1078 339 1064 q 399 1093 371 1093 q 440 1078 425 1093 q 456 1038 456 1064 q 441 994 456 1010 q 399 979 426 979 m 642 979 q 598 994 614 979 q 582 1038 582 1010 q 598 1078 582 1064 q 642 1093 614 1093 q 685 1078 669 1093 q 700 1038 700 1064 q 685 994 700 1010 q 642 979 669 979 z "},"Ǜ":{"ha":969,"x_min":38,"x_max":942,"o":"m 794 715 q 674 851 794 851 q 669 860 669 851 q 674 868 669 868 l 733 867 q 813 864 783 864 q 881 867 836 864 l 939 868 q 942 860 942 868 q 939 851 942 851 q 828 715 828 851 l 828 321 q 739 72 828 161 q 500 -18 650 -18 q 320 22 397 -18 q 201 137 243 63 q 158 311 158 211 l 158 756 q 150 817 158 797 q 117 844 142 836 q 40 851 93 851 q 38 860 38 851 q 40 868 38 868 l 108 867 q 203 864 167 864 q 300 867 242 864 l 367 868 q 371 860 371 868 q 367 851 371 851 q 290 843 315 851 q 257 815 265 835 q 249 753 249 794 l 249 360 q 323 110 249 197 q 531 24 397 24 q 725 102 656 24 q 794 319 794 181 l 794 715 m 697 1138 q 374 1244 543 1204 q 384 1258 364 1247 q 431 1278 404 1269 q 464 1283 458 1288 q 550 1235 476 1276 q 704 1153 660 1174 q 707 1147 707 1151 q 704 1140 707 1143 q 697 1138 701 1136 m 417 979 q 374 994 389 979 q 360 1038 360 1010 q 375 1078 360 1064 q 417 1093 390 1093 q 460 1078 444 1093 q 475 1038 475 1064 q 460 994 475 1010 q 417 979 444 979 m 660 979 q 617 994 632 979 q 601 1038 601 1010 q 617 1078 601 1064 q 660 1093 632 1093 q 703 1078 688 1093 q 719 1038 719 1064 q 703 994 719 1010 q 660 979 688 979 z "},"Ǖ":{"ha":969,"x_min":38,"x_max":942,"o":"m 794 715 q 674 851 794 851 q 669 860 669 851 q 674 868 669 868 l 733 867 q 813 864 783 864 q 881 867 836 864 l 939 868 q 942 860 942 868 q 939 851 942 851 q 828 715 828 851 l 828 321 q 739 72 828 161 q 500 -18 650 -18 q 320 22 397 -18 q 201 137 243 63 q 158 311 158 211 l 158 756 q 150 817 158 797 q 117 844 142 836 q 40 851 93 851 q 38 860 38 851 q 40 868 38 868 l 108 867 q 203 864 167 864 q 300 867 242 864 l 367 868 q 371 860 371 868 q 367 851 371 851 q 290 843 315 851 q 257 815 265 835 q 249 753 249 794 l 249 360 q 323 110 249 197 q 531 24 397 24 q 725 102 656 24 q 794 319 794 181 l 794 715 m 357 1168 q 349 1188 349 1168 q 357 1207 349 1207 l 681 1207 q 689 1188 689 1207 q 681 1168 689 1168 l 357 1168 m 399 979 q 355 994 371 979 q 339 1038 339 1010 q 355 1078 339 1064 q 399 1093 371 1093 q 440 1078 425 1093 q 456 1038 456 1064 q 441 994 456 1010 q 399 979 426 979 m 642 979 q 598 994 614 979 q 582 1038 582 1010 q 598 1078 582 1064 q 642 1093 614 1093 q 685 1078 669 1093 q 700 1038 700 1064 q 685 994 700 1010 q 642 979 669 979 z "},"Ụ":{"ha":969,"x_min":38,"x_max":942,"o":"m 794 715 q 674 851 794 851 q 669 860 669 851 q 674 868 669 868 l 733 867 q 813 864 783 864 q 881 867 836 864 l 939 868 q 942 860 942 868 q 939 851 942 851 q 828 715 828 851 l 828 321 q 739 72 828 161 q 500 -18 650 -18 q 320 22 397 -18 q 201 137 243 63 q 158 311 158 211 l 158 756 q 150 817 158 797 q 117 844 142 836 q 40 851 93 851 q 38 860 38 851 q 40 868 38 868 l 108 867 q 203 864 167 864 q 300 867 242 864 l 367 868 q 371 860 371 868 q 367 851 371 851 q 290 843 315 851 q 257 815 265 835 q 249 753 249 794 l 249 360 q 323 110 249 197 q 531 24 397 24 q 725 102 656 24 q 794 319 794 181 l 794 715 m 488 -264 q 442 -249 458 -264 q 426 -206 426 -233 q 442 -162 426 -178 q 488 -147 458 -147 q 531 -162 515 -147 q 546 -206 546 -178 q 531 -249 546 -233 q 488 -264 515 -264 z "},"Ù":{"ha":969,"x_min":38,"x_max":942,"o":"m 794 715 q 674 851 794 851 q 669 860 669 851 q 674 868 669 868 l 733 867 q 813 864 783 864 q 881 867 836 864 l 939 868 q 942 860 942 868 q 939 851 942 851 q 828 715 828 851 l 828 321 q 739 72 828 161 q 500 -18 650 -18 q 320 22 397 -18 q 201 137 243 63 q 158 311 158 211 l 158 756 q 150 817 158 797 q 117 844 142 836 q 40 851 93 851 q 38 860 38 851 q 40 868 38 868 l 108 867 q 203 864 167 864 q 300 867 242 864 l 367 868 q 371 860 371 868 q 367 851 371 851 q 290 843 315 851 q 257 815 265 835 q 249 753 249 794 l 249 360 q 323 110 249 197 q 531 24 397 24 q 725 102 656 24 q 794 319 794 181 l 794 715 m 657 943 q 347 1050 500 1013 q 358 1063 338 1051 q 405 1083 378 1074 q 438 1089 432 1092 l 478 1064 q 663 957 615 982 q 665 951 665 956 q 663 944 665 947 q 657 943 660 942 z "},"Ủ":{"ha":969,"x_min":38,"x_max":942,"o":"m 794 715 q 674 851 794 851 q 669 860 669 851 q 674 868 669 868 l 733 867 q 813 864 783 864 q 881 867 836 864 l 939 868 q 942 860 942 868 q 939 851 942 851 q 828 715 828 851 l 828 321 q 739 72 828 161 q 500 -18 650 -18 q 320 22 397 -18 q 201 137 243 63 q 158 311 158 211 l 158 756 q 150 817 158 797 q 117 844 142 836 q 40 851 93 851 q 38 860 38 851 q 40 868 38 868 l 108 867 q 203 864 167 864 q 300 867 242 864 l 367 868 q 371 860 371 868 q 367 851 371 851 q 290 843 315 851 q 257 815 265 835 q 249 753 249 794 l 249 360 q 323 110 249 197 q 531 24 397 24 q 725 102 656 24 q 794 319 794 181 l 794 715 m 524 904 q 516 901 524 901 q 507 904 508 901 q 503 933 503 919 q 510 973 503 954 q 533 1014 518 992 q 553 1053 547 1039 q 560 1083 560 1067 q 543 1124 560 1110 q 501 1139 526 1139 q 463 1129 482 1139 l 461 1129 q 453 1134 457 1129 q 453 1140 449 1139 q 543 1169 493 1169 q 608 1149 585 1169 q 632 1097 632 1128 q 617 1051 632 1072 q 575 1003 603 1031 q 535 958 549 976 q 522 918 522 939 q 524 904 522 908 z "},"Ư":{"ha":969,"x_min":38,"x_max":1022,"o":"m 828 314 q 737 69 828 157 q 493 -18 646 -18 q 249 68 339 -18 q 158 304 158 154 l 158 756 q 150 817 158 797 q 117 844 142 836 q 40 851 93 851 q 38 860 38 851 q 40 868 38 868 l 108 867 q 203 864 167 864 q 300 867 242 864 l 367 868 q 371 860 371 868 q 367 851 371 851 q 290 843 315 851 q 257 815 265 835 q 249 753 249 794 l 249 353 q 322 108 249 192 q 524 24 396 24 q 722 100 650 24 q 794 313 794 176 l 794 715 q 674 851 794 851 q 669 860 669 851 q 674 868 669 868 l 733 867 q 813 864 783 864 q 907 878 878 864 q 936 926 936 893 q 922 964 936 947 q 911 996 911 981 q 928 1035 911 1021 q 968 1050 946 1050 q 1008 1031 994 1050 q 1022 985 1022 1013 q 900 853 1022 904 q 848 813 868 840 q 828 715 828 785 l 828 314 z "},"Ứ":{"ha":969,"x_min":38,"x_max":1022,"o":"m 828 314 q 737 69 828 157 q 493 -18 646 -18 q 249 68 339 -18 q 158 304 158 154 l 158 756 q 150 817 158 797 q 117 844 142 836 q 40 851 93 851 q 38 860 38 851 q 40 868 38 868 l 108 867 q 203 864 167 864 q 300 867 242 864 l 367 868 q 371 860 371 868 q 367 851 371 851 q 290 843 315 851 q 257 815 265 835 q 249 753 249 794 l 249 353 q 322 108 249 192 q 524 24 396 24 q 722 100 650 24 q 794 313 794 176 l 794 715 q 674 851 794 851 q 669 860 669 851 q 674 868 669 868 l 733 867 q 813 864 783 864 q 907 878 878 864 q 936 926 936 893 q 922 964 936 947 q 911 996 911 981 q 928 1035 911 1021 q 968 1050 946 1050 q 1008 1031 994 1050 q 1022 985 1022 1013 q 900 853 1022 904 q 848 813 868 840 q 828 715 828 785 l 828 314 m 382 942 q 374 948 376 942 q 376 957 372 954 q 519 1039 436 988 q 603 1088 575 1072 q 635 1083 608 1092 q 683 1063 663 1074 q 692 1050 703 1051 q 383 942 528 1008 l 382 942 z "},"Ự":{"ha":969,"x_min":38,"x_max":1022,"o":"m 828 314 q 737 69 828 157 q 493 -18 646 -18 q 249 68 339 -18 q 158 304 158 154 l 158 756 q 150 817 158 797 q 117 844 142 836 q 40 851 93 851 q 38 860 38 851 q 40 868 38 868 l 108 867 q 203 864 167 864 q 300 867 242 864 l 367 868 q 371 860 371 868 q 367 851 371 851 q 290 843 315 851 q 257 815 265 835 q 249 753 249 794 l 249 353 q 322 108 249 192 q 524 24 396 24 q 722 100 650 24 q 794 313 794 176 l 794 715 q 674 851 794 851 q 669 860 669 851 q 674 868 669 868 l 733 867 q 813 864 783 864 q 907 878 878 864 q 936 926 936 893 q 922 964 936 947 q 911 996 911 981 q 928 1035 911 1021 q 968 1050 946 1050 q 1008 1031 994 1050 q 1022 985 1022 1013 q 900 853 1022 904 q 848 813 868 840 q 828 715 828 785 l 828 314 m 515 -264 q 470 -249 486 -264 q 454 -206 454 -233 q 470 -162 454 -178 q 515 -147 486 -147 q 558 -162 543 -147 q 574 -206 574 -178 q 558 -249 574 -233 q 515 -264 543 -264 z "},"Ừ":{"ha":969,"x_min":38,"x_max":1022,"o":"m 828 314 q 737 69 828 157 q 493 -18 646 -18 q 249 68 339 -18 q 158 304 158 154 l 158 756 q 150 817 158 797 q 117 844 142 836 q 40 851 93 851 q 38 860 38 851 q 40 868 38 868 l 108 867 q 203 864 167 864 q 300 867 242 864 l 367 868 q 371 860 371 868 q 367 851 371 851 q 290 843 315 851 q 257 815 265 835 q 249 753 249 794 l 249 353 q 322 108 249 192 q 524 24 396 24 q 722 100 650 24 q 794 313 794 176 l 794 715 q 674 851 794 851 q 669 860 669 851 q 674 868 669 868 l 733 867 q 813 864 783 864 q 907 878 878 864 q 936 926 936 893 q 922 964 936 947 q 911 996 911 981 q 928 1035 911 1021 q 968 1050 946 1050 q 1008 1031 994 1050 q 1022 985 1022 1013 q 900 853 1022 904 q 848 813 868 840 q 828 715 828 785 l 828 314 m 656 943 q 346 1050 499 1013 q 356 1063 336 1051 q 403 1083 376 1074 q 436 1089 431 1092 l 476 1064 q 661 957 614 982 q 664 951 664 956 q 661 944 664 947 q 656 943 658 942 z "},"Ử":{"ha":969,"x_min":38,"x_max":1022,"o":"m 828 314 q 737 69 828 157 q 493 -18 646 -18 q 249 68 339 -18 q 158 304 158 154 l 158 756 q 150 817 158 797 q 117 844 142 836 q 40 851 93 851 q 38 860 38 851 q 40 868 38 868 l 108 867 q 203 864 167 864 q 300 867 242 864 l 367 868 q 371 860 371 868 q 367 851 371 851 q 290 843 315 851 q 257 815 265 835 q 249 753 249 794 l 249 353 q 322 108 249 192 q 524 24 396 24 q 722 100 650 24 q 794 313 794 176 l 794 715 q 674 851 794 851 q 669 860 669 851 q 674 868 669 868 l 733 867 q 813 864 783 864 q 907 878 878 864 q 936 926 936 893 q 922 964 936 947 q 911 996 911 981 q 928 1035 911 1021 q 968 1050 946 1050 q 1008 1031 994 1050 q 1022 985 1022 1013 q 900 853 1022 904 q 848 813 868 840 q 828 715 828 785 l 828 314 m 522 904 q 515 901 522 901 q 506 904 507 901 q 501 933 501 919 q 509 973 501 954 q 532 1014 517 992 q 552 1053 546 1039 q 558 1083 558 1067 q 542 1124 558 1110 q 500 1139 525 1139 q 461 1129 481 1139 l 460 1129 q 451 1134 456 1129 q 451 1140 447 1139 q 542 1169 492 1169 q 607 1149 583 1169 q 631 1097 631 1128 q 616 1051 631 1072 q 574 1003 601 1031 q 534 958 547 976 q 521 918 521 939 q 522 904 521 908 z "},"Ữ":{"ha":969,"x_min":38,"x_max":1022,"o":"m 828 314 q 737 69 828 157 q 493 -18 646 -18 q 249 68 339 -18 q 158 304 158 154 l 158 756 q 150 817 158 797 q 117 844 142 836 q 40 851 93 851 q 38 860 38 851 q 40 868 38 868 l 108 867 q 203 864 167 864 q 300 867 242 864 l 367 868 q 371 860 371 868 q 367 851 371 851 q 290 843 315 851 q 257 815 265 835 q 249 753 249 794 l 249 353 q 322 108 249 192 q 524 24 396 24 q 722 100 650 24 q 794 313 794 176 l 794 715 q 674 851 794 851 q 669 860 669 851 q 674 868 669 868 l 733 867 q 813 864 783 864 q 907 878 878 864 q 936 926 936 893 q 922 964 936 947 q 911 996 911 981 q 928 1035 911 1021 q 968 1050 946 1050 q 1008 1031 994 1050 q 1022 985 1022 1013 q 900 853 1022 904 q 848 813 868 840 q 828 715 828 785 l 828 314 m 625 1060 q 663 1069 649 1060 q 693 1097 676 1079 l 694 1097 q 702 1094 699 1097 q 703 1088 706 1090 q 643 1019 667 1038 q 593 1001 619 1001 q 508 1018 564 1001 q 473 1028 503 1019 q 411 1036 443 1036 q 378 1029 390 1036 q 358 1013 367 1022 q 343 999 349 1003 l 340 999 q 333 1002 336 999 q 333 1008 331 1006 q 388 1067 357 1040 q 451 1093 419 1093 q 521 1079 471 1093 q 625 1060 585 1060 z "},"Ű":{"ha":969,"x_min":38,"x_max":942,"o":"m 794 715 q 674 851 794 851 q 669 860 669 851 q 674 868 669 868 l 733 867 q 813 864 783 864 q 881 867 836 864 l 939 868 q 942 860 942 868 q 939 851 942 851 q 828 715 828 851 l 828 321 q 739 72 828 161 q 500 -18 650 -18 q 320 22 397 -18 q 201 137 243 63 q 158 311 158 211 l 158 756 q 150 817 158 797 q 117 844 142 836 q 40 851 93 851 q 38 860 38 851 q 40 868 38 868 l 108 867 q 203 864 167 864 q 300 867 242 864 l 367 868 q 371 860 371 868 q 367 851 371 851 q 290 843 315 851 q 257 815 265 835 q 249 753 249 794 l 249 360 q 323 110 249 197 q 531 24 397 24 q 725 102 656 24 q 794 319 794 181 l 794 715 m 371 939 q 365 945 367 939 q 365 954 363 951 q 490 1086 432 1017 q 522 1085 494 1092 q 569 1067 549 1078 q 581 1053 590 1057 q 476 1003 524 1029 q 374 940 429 978 l 371 939 m 543 939 q 537 945 539 939 q 538 954 535 951 q 663 1086 604 1017 q 693 1085 667 1092 q 740 1067 719 1078 q 750 1053 760 1057 q 546 940 658 1015 l 543 939 z "},"Ū":{"ha":969,"x_min":38,"x_max":942,"o":"m 794 715 q 674 851 794 851 q 669 860 669 851 q 674 868 669 868 l 733 867 q 813 864 783 864 q 881 867 836 864 l 939 868 q 942 860 942 868 q 939 851 942 851 q 828 715 828 851 l 828 321 q 739 72 828 161 q 500 -18 650 -18 q 320 22 397 -18 q 201 137 243 63 q 158 311 158 211 l 158 756 q 150 817 158 797 q 117 844 142 836 q 40 851 93 851 q 38 860 38 851 q 40 868 38 868 l 108 867 q 203 864 167 864 q 300 867 242 864 l 367 868 q 371 860 371 868 q 367 851 371 851 q 290 843 315 851 q 257 815 265 835 q 249 753 249 794 l 249 360 q 323 110 249 197 q 531 24 397 24 q 725 102 656 24 q 794 319 794 181 l 794 715 m 344 1003 q 336 1022 336 1003 q 344 1042 336 1042 l 693 1042 q 701 1022 701 1042 q 693 1003 701 1003 l 344 1003 z "},"Ų":{"ha":969,"x_min":38,"x_max":942,"o":"m 939 868 q 942 860 942 868 q 939 851 942 851 q 828 715 828 851 l 828 321 q 766 104 828 189 q 596 -7 704 19 q 522 -101 544 -56 q 499 -199 499 -146 q 532 -303 499 -265 q 628 -340 565 -340 q 678 -332 657 -340 q 718 -308 699 -324 l 721 -308 q 728 -312 725 -308 q 728 -319 732 -317 q 578 -382 656 -382 q 463 -344 503 -382 q 422 -244 422 -307 q 561 -14 422 -131 q 500 -18 532 -18 q 320 22 397 -18 q 201 137 243 63 q 158 311 158 211 l 158 756 q 150 817 158 797 q 117 844 142 836 q 40 851 93 851 q 38 860 38 851 q 40 868 38 868 l 108 867 q 203 864 167 864 q 300 867 242 864 l 367 868 q 371 860 371 868 q 367 851 371 851 q 290 843 315 851 q 257 815 265 835 q 249 753 249 794 l 249 360 q 323 110 249 197 q 531 24 397 24 q 725 102 656 24 q 794 319 794 181 l 794 715 q 674 851 794 851 q 669 860 669 851 q 674 868 669 868 l 733 867 q 813 864 783 864 q 881 867 836 864 l 939 868 z "},"Ů":{"ha":969,"x_min":38,"x_max":942,"o":"m 794 715 q 674 851 794 851 q 669 860 669 851 q 674 868 669 868 l 733 867 q 813 864 783 864 q 881 867 836 864 l 939 868 q 942 860 942 868 q 939 851 942 851 q 828 715 828 851 l 828 321 q 739 72 828 161 q 500 -18 650 -18 q 320 22 397 -18 q 201 137 243 63 q 158 311 158 211 l 158 756 q 150 817 158 797 q 117 844 142 836 q 40 851 93 851 q 38 860 38 851 q 40 868 38 868 l 108 867 q 203 864 167 864 q 300 867 242 864 l 367 868 q 371 860 371 868 q 367 851 371 851 q 290 843 315 851 q 257 815 265 835 q 249 753 249 794 l 249 360 q 323 110 249 197 q 531 24 397 24 q 725 102 656 24 q 794 319 794 181 l 794 715 m 507 982 q 418 1015 451 982 q 385 1092 385 1047 q 427 1171 385 1142 q 521 1200 469 1200 q 607 1167 571 1200 q 643 1089 643 1135 q 601 1011 643 1040 q 507 982 560 982 m 529 996 q 579 1064 579 996 q 554 1149 579 1114 q 493 1185 529 1185 q 458 1169 469 1185 q 447 1119 447 1153 q 469 1034 447 1072 q 529 996 492 996 z "},"Ũ":{"ha":969,"x_min":38,"x_max":942,"o":"m 794 715 q 674 851 794 851 q 669 860 669 851 q 674 868 669 868 l 733 867 q 813 864 783 864 q 881 867 836 864 l 939 868 q 942 860 942 868 q 939 851 942 851 q 828 715 828 851 l 828 321 q 739 72 828 161 q 500 -18 650 -18 q 320 22 397 -18 q 201 137 243 63 q 158 311 158 211 l 158 756 q 150 817 158 797 q 117 844 142 836 q 40 851 93 851 q 38 860 38 851 q 40 868 38 868 l 108 867 q 203 864 167 864 q 300 867 242 864 l 367 868 q 371 860 371 868 q 367 851 371 851 q 290 843 315 851 q 257 815 265 835 q 249 753 249 794 l 249 360 q 323 110 249 197 q 531 24 397 24 q 725 102 656 24 q 794 319 794 181 l 794 715 m 626 1060 q 664 1069 650 1060 q 694 1097 678 1079 l 696 1097 q 703 1094 700 1097 q 704 1088 707 1090 q 644 1019 668 1038 q 594 1001 621 1001 q 510 1018 565 1001 q 474 1028 504 1019 q 413 1036 444 1036 q 380 1029 392 1036 q 359 1013 368 1022 q 344 999 350 1003 l 342 999 q 335 1002 338 999 q 335 1008 332 1006 q 390 1067 358 1040 q 453 1093 421 1093 q 522 1079 472 1093 q 626 1060 586 1060 z "},"V":{"ha":925,"x_min":-6,"x_max":933,"o":"m 929 868 q 933 860 933 868 q 929 851 933 851 q 847 826 882 851 q 789 742 813 801 l 493 1 q 478 -4 492 -4 q 463 1 467 -4 l 117 753 q 67 829 93 807 q -1 851 40 851 q -6 860 -6 851 q -1 868 -6 868 l 51 867 q 114 864 90 864 q 233 867 169 864 l 290 868 q 294 860 294 868 q 290 851 294 851 q 226 840 247 851 q 204 803 204 829 q 217 758 204 786 l 507 122 l 757 749 q 768 794 768 778 q 742 838 768 824 q 660 851 715 851 q 656 860 656 851 q 660 868 656 868 l 719 867 q 806 864 767 864 q 871 867 835 864 l 929 868 z "},"W":{"ha":1293,"x_min":-6,"x_max":1301,"o":"m 1299 868 q 1301 860 1301 868 q 1299 851 1301 851 q 1217 826 1251 851 q 1157 742 1182 801 l 861 1 q 846 -4 860 -4 q 831 1 835 -4 l 650 396 l 493 1 q 478 -4 492 -4 q 463 1 467 -4 l 117 753 q 67 830 92 808 q -1 851 42 851 q -6 860 -6 851 q -1 868 -6 868 l 51 867 q 114 864 90 864 q 222 867 164 864 l 279 868 q 283 860 283 868 q 279 851 283 851 q 217 842 238 851 q 197 808 197 832 q 211 758 197 788 l 507 124 l 632 435 l 486 753 q 436 829 461 807 q 371 851 411 851 q 367 860 367 851 q 371 868 367 868 l 422 867 q 483 864 461 864 q 564 867 522 864 l 601 868 q 606 860 606 868 q 601 851 606 851 q 566 847 576 851 q 556 831 556 843 q 581 758 556 813 l 682 542 l 764 749 q 779 811 779 790 q 765 842 779 832 q 721 851 751 851 q 717 860 717 851 q 721 868 717 868 l 753 867 q 811 864 781 864 q 875 867 839 864 l 932 868 q 935 860 935 868 q 932 851 935 851 q 852 827 885 851 q 794 742 819 803 l 700 504 l 876 124 l 1125 746 q 1136 794 1136 775 q 1111 838 1136 824 q 1032 851 1086 851 q 1028 860 1028 851 q 1032 868 1028 868 l 1089 867 q 1175 864 1136 864 q 1239 867 1203 864 l 1299 868 z "},"Ẃ":{"ha":1293,"x_min":-6,"x_max":1301,"o":"m 1299 868 q 1301 860 1301 868 q 1299 851 1301 851 q 1217 826 1251 851 q 1157 742 1182 801 l 861 1 q 846 -4 860 -4 q 831 1 835 -4 l 650 396 l 493 1 q 478 -4 492 -4 q 463 1 467 -4 l 117 753 q 67 830 92 808 q -1 851 42 851 q -6 860 -6 851 q -1 868 -6 868 l 51 867 q 114 864 90 864 q 222 867 164 864 l 279 868 q 283 860 283 868 q 279 851 283 851 q 217 842 238 851 q 197 808 197 832 q 211 758 197 788 l 507 124 l 632 435 l 486 753 q 436 829 461 807 q 371 851 411 851 q 367 860 367 851 q 371 868 367 868 l 422 867 q 483 864 461 864 q 564 867 522 864 l 601 868 q 606 860 606 868 q 601 851 606 851 q 566 847 576 851 q 556 831 556 843 q 581 758 556 813 l 682 542 l 764 749 q 779 811 779 790 q 765 842 779 832 q 721 851 751 851 q 717 860 717 851 q 721 868 717 868 l 753 867 q 811 864 781 864 q 875 867 839 864 l 932 868 q 935 860 935 868 q 932 851 935 851 q 852 827 885 851 q 794 742 819 803 l 700 504 l 876 124 l 1125 746 q 1136 794 1136 775 q 1111 838 1136 824 q 1032 851 1086 851 q 1028 860 1028 851 q 1032 868 1028 868 l 1089 867 q 1175 864 1136 864 q 1239 867 1203 864 l 1299 868 m 514 942 q 507 948 508 942 q 510 957 506 954 q 661 1043 556 982 q 705 1071 686 1060 q 736 1089 724 1082 q 769 1083 742 1092 q 815 1063 796 1074 q 825 1050 835 1051 q 667 1003 739 1029 q 517 943 596 978 l 514 942 z "},"Ŵ":{"ha":1293,"x_min":-6,"x_max":1301,"o":"m 1299 868 q 1301 860 1301 868 q 1299 851 1301 851 q 1217 826 1251 851 q 1157 742 1182 801 l 861 1 q 846 -4 860 -4 q 831 1 835 -4 l 650 396 l 493 1 q 478 -4 492 -4 q 463 1 467 -4 l 117 753 q 67 830 92 808 q -1 851 42 851 q -6 860 -6 851 q -1 868 -6 868 l 51 867 q 114 864 90 864 q 222 867 164 864 l 279 868 q 283 860 283 868 q 279 851 283 851 q 217 842 238 851 q 197 808 197 832 q 211 758 197 788 l 507 124 l 632 435 l 486 753 q 436 829 461 807 q 371 851 411 851 q 367 860 367 851 q 371 868 367 868 l 422 867 q 483 864 461 864 q 564 867 522 864 l 601 868 q 606 860 606 868 q 601 851 606 851 q 566 847 576 851 q 556 831 556 843 q 581 758 556 813 l 682 542 l 764 749 q 779 811 779 790 q 765 842 779 832 q 721 851 751 851 q 717 860 717 851 q 721 868 717 868 l 753 867 q 811 864 781 864 q 875 867 839 864 l 932 868 q 935 860 935 868 q 932 851 935 851 q 852 827 885 851 q 794 742 819 803 l 700 504 l 876 124 l 1125 746 q 1136 794 1136 775 q 1111 838 1136 824 q 1032 851 1086 851 q 1028 860 1028 851 q 1032 868 1028 868 l 1089 867 q 1175 864 1136 864 q 1239 867 1203 864 l 1299 868 m 636 1097 q 653 1104 643 1104 q 668 1097 661 1104 l 810 961 q 811 958 811 961 q 808 953 811 956 q 803 951 804 950 l 653 1032 l 501 951 q 494 955 499 950 q 493 961 490 960 l 636 1097 z "},"Ẅ":{"ha":1293,"x_min":-6,"x_max":1301,"o":"m 1299 868 q 1301 860 1301 868 q 1299 851 1301 851 q 1217 826 1251 851 q 1157 742 1182 801 l 861 1 q 846 -4 860 -4 q 831 1 835 -4 l 650 396 l 493 1 q 478 -4 492 -4 q 463 1 467 -4 l 117 753 q 67 830 92 808 q -1 851 42 851 q -6 860 -6 851 q -1 868 -6 868 l 51 867 q 114 864 90 864 q 222 867 164 864 l 279 868 q 283 860 283 868 q 279 851 283 851 q 217 842 238 851 q 197 808 197 832 q 211 758 197 788 l 507 124 l 632 435 l 486 753 q 436 829 461 807 q 371 851 411 851 q 367 860 367 851 q 371 868 367 868 l 422 867 q 483 864 461 864 q 564 867 522 864 l 601 868 q 606 860 606 868 q 601 851 606 851 q 566 847 576 851 q 556 831 556 843 q 581 758 556 813 l 682 542 l 764 749 q 779 811 779 790 q 765 842 779 832 q 721 851 751 851 q 717 860 717 851 q 721 868 717 868 l 753 867 q 811 864 781 864 q 875 867 839 864 l 932 868 q 935 860 935 868 q 932 851 935 851 q 852 827 885 851 q 794 742 819 803 l 700 504 l 876 124 l 1125 746 q 1136 794 1136 775 q 1111 838 1136 824 q 1032 851 1086 851 q 1028 860 1028 851 q 1032 868 1028 868 l 1089 867 q 1175 864 1136 864 q 1239 867 1203 864 l 1299 868 m 531 996 q 487 1011 503 996 q 471 1053 471 1026 q 487 1094 471 1079 q 531 1110 503 1110 q 573 1095 558 1110 q 588 1053 588 1081 q 573 1011 588 1026 q 531 996 558 996 m 774 996 q 730 1011 746 996 q 714 1053 714 1026 q 730 1094 714 1079 q 774 1110 746 1110 q 817 1095 801 1110 q 832 1053 832 1081 q 817 1010 832 1025 q 774 996 801 996 z "},"Ẁ":{"ha":1293,"x_min":-6,"x_max":1301,"o":"m 1299 868 q 1301 860 1301 868 q 1299 851 1301 851 q 1217 826 1251 851 q 1157 742 1182 801 l 861 1 q 846 -4 860 -4 q 831 1 835 -4 l 650 396 l 493 1 q 478 -4 492 -4 q 463 1 467 -4 l 117 753 q 67 830 92 808 q -1 851 42 851 q -6 860 -6 851 q -1 868 -6 868 l 51 867 q 114 864 90 864 q 222 867 164 864 l 279 868 q 283 860 283 868 q 279 851 283 851 q 217 842 238 851 q 197 808 197 832 q 211 758 197 788 l 507 124 l 632 435 l 486 753 q 436 829 461 807 q 371 851 411 851 q 367 860 367 851 q 371 868 367 868 l 422 867 q 483 864 461 864 q 564 867 522 864 l 601 868 q 606 860 606 868 q 601 851 606 851 q 566 847 576 851 q 556 831 556 843 q 581 758 556 813 l 682 542 l 764 749 q 779 811 779 790 q 765 842 779 832 q 721 851 751 851 q 717 860 717 851 q 721 868 717 868 l 753 867 q 811 864 781 864 q 875 867 839 864 l 932 868 q 935 860 935 868 q 932 851 935 851 q 852 827 885 851 q 794 742 819 803 l 700 504 l 876 124 l 1125 746 q 1136 794 1136 775 q 1111 838 1136 824 q 1032 851 1086 851 q 1028 860 1028 851 q 1032 868 1028 868 l 1089 867 q 1175 864 1136 864 q 1239 867 1203 864 l 1299 868 m 789 943 q 479 1050 632 1013 q 490 1063 469 1051 q 537 1083 510 1074 q 569 1089 564 1092 l 610 1064 q 794 957 747 982 q 797 951 797 956 q 794 944 797 947 q 789 943 792 942 z "},"X":{"ha":906,"x_min":19,"x_max":885,"o":"m 882 17 q 885 8 885 17 q 882 0 885 0 q 825 1 846 0 l 749 3 l 642 1 q 574 0 617 0 q 571 8 571 0 q 574 17 571 17 q 628 22 611 17 q 644 40 644 28 q 632 71 644 53 l 421 390 l 244 142 q 211 65 211 94 q 293 17 211 17 q 297 8 297 17 q 293 0 297 0 q 229 1 251 0 l 133 3 l 75 1 q 24 0 60 0 q 19 8 19 0 q 24 17 19 17 q 213 143 119 17 l 408 411 l 185 750 q 113 828 149 806 q 29 851 78 851 q 26 860 26 851 q 29 868 26 868 l 82 867 q 135 864 118 864 q 249 867 182 864 l 321 868 q 325 860 325 868 q 321 851 325 851 q 267 846 285 851 q 250 826 250 840 q 263 796 250 815 l 468 486 l 631 717 q 668 803 668 769 q 590 851 668 851 q 586 860 586 851 q 590 868 586 868 l 653 867 q 749 864 706 864 q 807 867 774 864 l 858 868 q 863 860 863 868 q 858 851 863 851 q 763 817 813 851 q 663 714 713 782 l 481 465 l 713 115 q 787 39 749 61 q 882 17 825 17 z "},"Y":{"ha":846,"x_min":-6,"x_max":856,"o":"m 853 868 q 856 860 856 868 q 853 851 856 851 q 751 815 803 851 q 660 714 700 778 l 474 428 l 474 113 q 482 50 474 69 q 515 24 490 31 q 592 17 539 17 q 596 8 596 17 q 592 0 596 0 q 525 1 549 0 l 428 3 l 332 1 q 264 0 307 0 q 260 8 260 0 q 264 17 260 17 q 341 24 317 17 q 374 51 365 31 q 383 113 383 71 l 383 406 l 153 743 q 79 828 114 804 q -1 851 44 851 q -6 860 -6 851 q -1 868 -6 868 q 49 865 15 868 l 97 864 q 217 867 144 864 l 292 868 q 294 860 294 868 q 292 851 294 851 q 219 822 219 851 q 233 788 219 807 l 457 460 l 626 719 q 657 801 657 768 q 582 851 657 851 q 579 860 579 851 q 582 868 579 868 l 647 867 q 744 864 700 864 q 801 867 768 864 l 853 868 z "},"Ý":{"ha":846,"x_min":-6,"x_max":856,"o":"m 853 868 q 856 860 856 868 q 853 851 856 851 q 751 815 803 851 q 660 714 700 778 l 474 428 l 474 113 q 482 50 474 69 q 515 24 490 31 q 592 17 539 17 q 596 8 596 17 q 592 0 596 0 q 525 1 549 0 l 428 3 l 332 1 q 264 0 307 0 q 260 8 260 0 q 264 17 260 17 q 341 24 317 17 q 374 51 365 31 q 383 113 383 71 l 383 406 l 153 743 q 79 828 114 804 q -1 851 44 851 q -6 860 -6 851 q -1 868 -6 868 q 49 865 15 868 l 97 864 q 217 867 144 864 l 292 868 q 294 860 294 868 q 292 851 294 851 q 219 822 219 851 q 233 788 219 807 l 457 460 l 626 719 q 657 801 657 768 q 582 851 657 851 q 579 860 579 851 q 582 868 579 868 l 647 867 q 744 864 700 864 q 801 867 768 864 l 853 868 m 304 942 q 297 948 299 942 q 300 957 296 954 q 451 1043 346 982 q 495 1071 476 1060 q 526 1089 514 1082 q 559 1083 532 1092 q 606 1063 586 1074 q 615 1050 625 1051 q 458 1003 529 1029 q 307 943 386 978 l 304 942 z "},"Ŷ":{"ha":846,"x_min":-6,"x_max":856,"o":"m 853 868 q 856 860 856 868 q 853 851 856 851 q 751 815 803 851 q 660 714 700 778 l 474 428 l 474 113 q 482 50 474 69 q 515 24 490 31 q 592 17 539 17 q 596 8 596 17 q 592 0 596 0 q 525 1 549 0 l 428 3 l 332 1 q 264 0 307 0 q 260 8 260 0 q 264 17 260 17 q 341 24 317 17 q 374 51 365 31 q 383 113 383 71 l 383 406 l 153 743 q 79 828 114 804 q -1 851 44 851 q -6 860 -6 851 q -1 868 -6 868 q 49 865 15 868 l 97 864 q 217 867 144 864 l 292 868 q 294 860 294 868 q 292 851 294 851 q 219 822 219 851 q 233 788 219 807 l 457 460 l 626 719 q 657 801 657 768 q 582 851 657 851 q 579 860 579 851 q 582 868 579 868 l 647 867 q 744 864 700 864 q 801 867 768 864 l 853 868 m 426 1097 q 443 1104 433 1104 q 458 1097 451 1104 l 600 961 q 601 958 601 961 q 598 953 601 956 q 593 951 594 950 l 443 1032 l 292 951 q 285 955 289 950 q 283 961 281 960 l 426 1097 z "},"Ÿ":{"ha":846,"x_min":-6,"x_max":856,"o":"m 853 868 q 856 860 856 868 q 853 851 856 851 q 751 815 803 851 q 660 714 700 778 l 474 428 l 474 113 q 482 50 474 69 q 515 24 490 31 q 592 17 539 17 q 596 8 596 17 q 592 0 596 0 q 525 1 549 0 l 428 3 l 332 1 q 264 0 307 0 q 260 8 260 0 q 264 17 260 17 q 341 24 317 17 q 374 51 365 31 q 383 113 383 71 l 383 406 l 153 743 q 79 828 114 804 q -1 851 44 851 q -6 860 -6 851 q -1 868 -6 868 q 49 865 15 868 l 97 864 q 217 867 144 864 l 292 868 q 294 860 294 868 q 292 851 294 851 q 219 822 219 851 q 233 788 219 807 l 457 460 l 626 719 q 657 801 657 768 q 582 851 657 851 q 579 860 579 851 q 582 868 579 868 l 647 867 q 744 864 700 864 q 801 867 768 864 l 853 868 m 321 996 q 277 1011 293 996 q 261 1053 261 1026 q 277 1094 261 1079 q 321 1110 293 1110 q 363 1095 349 1110 q 378 1053 378 1081 q 363 1011 378 1026 q 321 996 349 996 m 564 996 q 520 1011 536 996 q 504 1053 504 1026 q 520 1094 504 1079 q 564 1110 536 1110 q 607 1095 592 1110 q 622 1053 622 1081 q 607 1010 622 1025 q 564 996 592 996 z "},"Ẏ":{"ha":846,"x_min":-6,"x_max":856,"o":"m 853 868 q 856 860 856 868 q 853 851 856 851 q 751 815 803 851 q 660 714 700 778 l 474 428 l 474 113 q 482 50 474 69 q 515 24 490 31 q 592 17 539 17 q 596 8 596 17 q 592 0 596 0 q 525 1 549 0 l 428 3 l 332 1 q 264 0 307 0 q 260 8 260 0 q 264 17 260 17 q 341 24 317 17 q 374 51 365 31 q 383 113 383 71 l 383 406 l 153 743 q 79 828 114 804 q -1 851 44 851 q -6 860 -6 851 q -1 868 -6 868 q 49 865 15 868 l 97 864 q 217 867 144 864 l 292 868 q 294 860 294 868 q 292 851 294 851 q 219 822 219 851 q 233 788 219 807 l 457 460 l 626 719 q 657 801 657 768 q 582 851 657 851 q 579 860 579 851 q 582 868 579 868 l 647 867 q 744 864 700 864 q 801 867 768 864 l 853 868 m 442 990 q 397 1006 413 990 q 381 1050 381 1022 q 397 1093 381 1078 q 442 1108 413 1108 q 485 1093 469 1108 q 500 1050 500 1078 q 485 1006 500 1022 q 442 990 469 990 z "},"Ỵ":{"ha":846,"x_min":-6,"x_max":856,"o":"m 853 868 q 856 860 856 868 q 853 851 856 851 q 751 815 803 851 q 660 714 700 778 l 474 428 l 474 113 q 482 50 474 69 q 515 24 490 31 q 592 17 539 17 q 596 8 596 17 q 592 0 596 0 q 525 1 549 0 l 428 3 l 332 1 q 264 0 307 0 q 260 8 260 0 q 264 17 260 17 q 341 24 317 17 q 374 51 365 31 q 383 113 383 71 l 383 406 l 153 743 q 79 828 114 804 q -1 851 44 851 q -6 860 -6 851 q -1 868 -6 868 q 49 865 15 868 l 97 864 q 217 867 144 864 l 292 868 q 294 860 294 868 q 292 851 294 851 q 219 822 219 851 q 233 788 219 807 l 457 460 l 626 719 q 657 801 657 768 q 582 851 657 851 q 579 860 579 851 q 582 868 579 868 l 647 867 q 744 864 700 864 q 801 867 768 864 l 853 868 m 425 -264 q 380 -249 396 -264 q 364 -206 364 -233 q 380 -162 364 -178 q 425 -147 396 -147 q 468 -162 453 -147 q 483 -206 483 -178 q 468 -249 483 -233 q 425 -264 453 -264 z "},"Ỳ":{"ha":846,"x_min":-6,"x_max":856,"o":"m 853 868 q 856 860 856 868 q 853 851 856 851 q 751 815 803 851 q 660 714 700 778 l 474 428 l 474 113 q 482 50 474 69 q 515 24 490 31 q 592 17 539 17 q 596 8 596 17 q 592 0 596 0 q 525 1 549 0 l 428 3 l 332 1 q 264 0 307 0 q 260 8 260 0 q 264 17 260 17 q 341 24 317 17 q 374 51 365 31 q 383 113 383 71 l 383 406 l 153 743 q 79 828 114 804 q -1 851 44 851 q -6 860 -6 851 q -1 868 -6 868 q 49 865 15 868 l 97 864 q 217 867 144 864 l 292 868 q 294 860 294 868 q 292 851 294 851 q 219 822 219 851 q 233 788 219 807 l 457 460 l 626 719 q 657 801 657 768 q 582 851 657 851 q 579 860 579 851 q 582 868 579 868 l 647 867 q 744 864 700 864 q 801 867 768 864 l 853 868 m 579 943 q 269 1050 422 1013 q 280 1063 260 1051 q 327 1083 300 1074 q 360 1089 354 1092 l 400 1064 q 585 957 538 982 q 588 951 588 956 q 585 944 588 947 q 579 943 582 942 z "},"Ỷ":{"ha":846,"x_min":-6,"x_max":856,"o":"m 853 868 q 856 860 856 868 q 853 851 856 851 q 751 815 803 851 q 660 714 700 778 l 474 428 l 474 113 q 482 50 474 69 q 515 24 490 31 q 592 17 539 17 q 596 8 596 17 q 592 0 596 0 q 525 1 549 0 l 428 3 l 332 1 q 264 0 307 0 q 260 8 260 0 q 264 17 260 17 q 341 24 317 17 q 374 51 365 31 q 383 113 383 71 l 383 406 l 153 743 q 79 828 114 804 q -1 851 44 851 q -6 860 -6 851 q -1 868 -6 868 q 49 865 15 868 l 97 864 q 217 867 144 864 l 292 868 q 294 860 294 868 q 292 851 294 851 q 219 822 219 851 q 233 788 219 807 l 457 460 l 626 719 q 657 801 657 768 q 582 851 657 851 q 579 860 579 851 q 582 868 579 868 l 647 867 q 744 864 700 864 q 801 867 768 864 l 853 868 m 446 904 q 438 901 446 901 q 429 904 431 901 q 425 933 425 919 q 433 973 425 954 q 456 1014 440 992 q 476 1053 469 1039 q 482 1083 482 1067 q 465 1124 482 1110 q 424 1139 449 1139 q 385 1129 404 1139 l 383 1129 q 375 1134 379 1129 q 375 1140 371 1139 q 465 1169 415 1169 q 531 1149 507 1169 q 554 1097 554 1128 q 540 1051 554 1072 q 497 1003 525 1031 q 458 958 471 976 q 444 918 444 939 q 446 904 444 908 z "},"Ȳ":{"ha":846,"x_min":-6,"x_max":856,"o":"m 853 868 q 856 860 856 868 q 853 851 856 851 q 751 815 803 851 q 660 714 700 778 l 474 428 l 474 113 q 482 50 474 69 q 515 24 490 31 q 592 17 539 17 q 596 8 596 17 q 592 0 596 0 q 525 1 549 0 l 428 3 l 332 1 q 264 0 307 0 q 260 8 260 0 q 264 17 260 17 q 341 24 317 17 q 374 51 365 31 q 383 113 383 71 l 383 406 l 153 743 q 79 828 114 804 q -1 851 44 851 q -6 860 -6 851 q -1 868 -6 868 q 49 865 15 868 l 97 864 q 217 867 144 864 l 292 868 q 294 860 294 868 q 292 851 294 851 q 219 822 219 851 q 233 788 219 807 l 457 460 l 626 719 q 657 801 657 768 q 582 851 657 851 q 579 860 579 851 q 582 868 579 868 l 647 867 q 744 864 700 864 q 801 867 768 864 l 853 868 m 267 1003 q 258 1022 258 1003 q 267 1042 258 1042 l 615 1042 q 624 1022 624 1042 q 615 1003 624 1003 l 267 1003 z "},"Ỹ":{"ha":846,"x_min":-6,"x_max":856,"o":"m 853 868 q 856 860 856 868 q 853 851 856 851 q 751 815 803 851 q 660 714 700 778 l 474 428 l 474 113 q 482 50 474 69 q 515 24 490 31 q 592 17 539 17 q 596 8 596 17 q 592 0 596 0 q 525 1 549 0 l 428 3 l 332 1 q 264 0 307 0 q 260 8 260 0 q 264 17 260 17 q 341 24 317 17 q 374 51 365 31 q 383 113 383 71 l 383 406 l 153 743 q 79 828 114 804 q -1 851 44 851 q -6 860 -6 851 q -1 868 -6 868 q 49 865 15 868 l 97 864 q 217 867 144 864 l 292 868 q 294 860 294 868 q 292 851 294 851 q 219 822 219 851 q 233 788 219 807 l 457 460 l 626 719 q 657 801 657 768 q 582 851 657 851 q 579 860 579 851 q 582 868 579 868 l 647 867 q 744 864 700 864 q 801 867 768 864 l 853 868 m 550 1031 q 588 1040 574 1031 q 618 1068 603 1050 l 621 1068 q 628 1065 625 1068 q 628 1058 631 1061 q 568 990 592 1007 q 518 972 544 972 q 433 989 489 972 q 338 1006 372 1006 q 303 999 315 1006 q 281 982 290 992 q 268 968 272 972 l 267 968 q 259 972 263 968 q 258 978 256 975 q 313 1038 281 1011 q 376 1065 344 1065 q 446 1050 400 1065 q 485 1040 453 1049 q 550 1031 518 1031 z "},"Z":{"ha":826,"x_min":71,"x_max":781,"o":"m 625 833 q 628 842 629 840 q 618 844 628 844 q 281 837 371 844 q 154 800 190 829 q 89 690 118 771 q 83 688 89 688 q 75 690 79 688 q 72 693 71 692 l 128 910 q 133 911 128 911 q 144 907 147 911 q 143 896 143 903 q 159 874 143 879 q 224 868 175 868 l 731 868 q 741 861 738 868 q 740 850 744 854 l 199 38 l 194 29 q 206 26 194 26 l 560 26 q 701 65 653 26 q 765 188 750 104 q 774 190 767 190 q 781 188 781 190 l 761 11 q 758 2 761 7 q 749 -3 754 -3 q 85 0 542 0 q 75 6 78 0 q 76 18 72 13 l 625 833 z "},"Ź":{"ha":826,"x_min":72,"x_max":781,"o":"m 625 833 q 628 842 629 840 q 618 844 628 844 q 281 837 371 844 q 154 800 190 829 q 89 690 118 771 q 83 688 89 688 q 75 690 79 688 q 72 693 71 692 l 128 910 q 133 911 128 911 q 144 907 147 911 q 143 896 143 903 q 159 874 143 879 q 224 868 175 868 l 731 868 q 741 861 738 868 q 740 850 744 854 l 199 38 l 194 29 q 206 26 194 26 l 560 26 q 701 65 653 26 q 765 188 750 104 q 774 190 767 190 q 781 188 781 190 l 761 11 q 758 2 761 7 q 749 -3 754 -3 q 85 0 542 0 q 75 6 78 0 q 76 18 72 13 l 625 833 m 297 942 q 290 948 292 942 q 293 957 289 954 q 444 1043 339 982 q 488 1071 469 1060 q 519 1089 507 1082 q 552 1083 525 1092 q 599 1063 579 1074 q 608 1050 618 1051 q 451 1003 522 1029 q 300 943 379 978 l 297 942 z "},"Ž":{"ha":826,"x_min":72,"x_max":781,"o":"m 625 833 q 628 842 629 840 q 618 844 628 844 q 281 837 371 844 q 154 800 190 829 q 89 690 118 771 q 83 688 89 688 q 75 690 79 688 q 72 693 71 692 l 128 910 q 133 911 128 911 q 144 907 147 911 q 143 896 143 903 q 159 874 143 879 q 224 868 175 868 l 731 868 q 741 861 738 868 q 740 850 744 854 l 199 38 l 194 29 q 206 26 194 26 l 560 26 q 701 65 653 26 q 765 188 750 104 q 774 190 767 190 q 781 188 781 190 l 761 11 q 758 2 761 7 q 749 -3 754 -3 q 85 0 542 0 q 75 6 78 0 q 76 18 72 13 l 625 833 m 275 1089 q 274 1090 274 1089 q 274 1090 274 1090 q 277 1097 274 1093 q 283 1099 281 1100 l 435 1019 l 585 1099 l 586 1099 q 593 1094 590 1099 q 592 1089 596 1090 l 450 954 q 435 949 444 949 q 418 954 424 949 l 275 1089 z "},"Ż":{"ha":826,"x_min":72,"x_max":781,"o":"m 625 833 q 628 842 629 840 q 618 844 628 844 q 281 837 371 844 q 154 800 190 829 q 89 690 118 771 q 83 688 89 688 q 75 690 79 688 q 72 693 71 692 l 128 910 q 133 911 128 911 q 144 907 147 911 q 143 896 143 903 q 159 874 143 879 q 224 868 175 868 l 731 868 q 741 861 738 868 q 740 850 744 854 l 199 38 l 194 29 q 206 26 194 26 l 560 26 q 701 65 653 26 q 765 188 750 104 q 774 190 767 190 q 781 188 781 190 l 761 11 q 758 2 761 7 q 749 -3 754 -3 q 85 0 542 0 q 75 6 78 0 q 76 18 72 13 l 625 833 m 435 990 q 390 1006 406 990 q 374 1050 374 1022 q 390 1093 374 1078 q 435 1108 406 1108 q 478 1093 463 1108 q 493 1050 493 1078 q 478 1006 493 1022 q 435 990 463 990 z "},"Ẓ":{"ha":826,"x_min":72,"x_max":781,"o":"m 625 833 q 628 842 629 840 q 618 844 628 844 q 281 837 371 844 q 154 800 190 829 q 89 690 118 771 q 83 688 89 688 q 75 690 79 688 q 72 693 71 692 l 128 910 q 133 911 128 911 q 144 907 147 911 q 143 896 143 903 q 159 874 143 879 q 224 868 175 868 l 731 868 q 741 861 738 868 q 740 850 744 854 l 199 38 l 194 29 q 206 26 194 26 l 560 26 q 701 65 653 26 q 765 188 750 104 q 774 190 767 190 q 781 188 781 190 l 761 11 q 758 2 761 7 q 749 -3 754 -3 q 85 0 542 0 q 75 6 78 0 q 76 18 72 13 l 625 833 m 415 -264 q 370 -249 386 -264 q 354 -206 354 -233 q 370 -162 354 -178 q 415 -147 386 -147 q 458 -162 443 -147 q 474 -206 474 -178 q 458 -249 474 -233 q 415 -264 443 -264 z "},"a":{"ha":582,"x_min":75,"x_max":585,"o":"m 576 75 q 583 69 582 75 q 579 60 585 63 l 436 -8 q 425 -11 431 -11 q 393 13 407 -11 q 375 78 379 36 l 289 32 q 218 0 246 10 q 164 -10 190 -10 q 98 13 121 -10 q 75 71 75 36 q 103 131 75 108 q 206 179 132 154 l 374 239 l 374 354 q 350 483 374 446 q 285 519 326 519 q 211 486 238 519 q 179 406 185 453 q 128 353 174 353 q 93 364 106 353 q 81 394 81 375 q 122 463 81 426 q 223 524 164 499 q 329 549 282 549 q 418 510 385 549 q 451 396 451 472 l 451 150 q 464 79 451 101 q 506 57 476 57 q 574 75 532 57 l 576 75 m 374 97 l 374 106 l 374 222 l 231 168 q 185 140 199 156 q 172 101 172 125 q 189 56 172 72 q 232 40 206 40 q 289 54 258 40 l 374 97 z "},"á":{"ha":582,"x_min":75,"x_max":583,"o":"m 576 75 q 583 69 582 75 q 579 60 585 63 l 436 -8 q 425 -11 431 -11 q 393 13 407 -11 q 375 78 379 36 l 289 32 q 218 0 246 10 q 164 -10 190 -10 q 98 13 121 -10 q 75 71 75 36 q 103 131 75 108 q 206 179 132 154 l 374 239 l 374 354 q 350 483 374 446 q 285 519 326 519 q 211 486 238 519 q 179 406 185 453 q 128 353 174 353 q 93 364 106 353 q 81 394 81 375 q 122 463 81 426 q 223 524 164 499 q 329 549 282 549 q 418 510 385 549 q 451 396 451 472 l 451 150 q 464 79 451 101 q 506 57 476 57 q 574 75 532 57 l 576 75 m 374 97 l 374 106 l 374 222 l 231 168 q 185 140 199 156 q 172 101 172 125 q 189 56 172 72 q 232 40 206 40 q 289 54 258 40 l 374 97 m 288 658 q 282 656 288 656 q 274 658 278 656 q 272 661 271 660 l 344 994 q 373 1008 346 1000 q 418 1015 400 1015 q 429 1010 431 1015 l 288 658 z "},"ă":{"ha":582,"x_min":75,"x_max":583,"o":"m 576 75 q 583 69 582 75 q 579 60 585 63 l 436 -8 q 425 -11 431 -11 q 393 13 407 -11 q 375 78 379 36 l 289 32 q 218 0 246 10 q 164 -10 190 -10 q 98 13 121 -10 q 75 71 75 36 q 103 131 75 108 q 206 179 132 154 l 374 239 l 374 354 q 350 483 374 446 q 285 519 326 519 q 211 486 238 519 q 179 406 185 453 q 128 353 174 353 q 93 364 106 353 q 81 394 81 375 q 122 463 81 426 q 223 524 164 499 q 329 549 282 549 q 418 510 385 549 q 451 396 451 472 l 451 150 q 464 79 451 101 q 506 57 476 57 q 574 75 532 57 l 576 75 m 374 97 l 374 106 l 374 222 l 231 168 q 185 140 199 156 q 172 101 172 125 q 189 56 172 72 q 232 40 206 40 q 289 54 258 40 l 374 97 m 147 865 q 155 872 147 871 q 163 869 163 874 q 199 767 163 808 q 290 726 235 726 q 380 768 343 726 q 417 869 417 810 q 421 872 417 872 q 428 870 425 872 q 432 865 432 868 q 396 710 432 763 q 290 657 360 657 q 184 710 221 657 q 147 865 147 764 z "}}}
